<?xml version="1.0" encoding="UTF-8"?>
<svg width="180px" height="96px" viewBox="0 0 180 96" version="1.1" xmlns="http://www.w3.org/2000/svg" xmlns:xlink="http://www.w3.org/1999/xlink">
    <title>Arrastratufoto</title>
    <g id="Page-1" stroke="none" stroke-width="1" fill="none" fill-rule="evenodd">
        <g id="Artboard" transform="translate(-326.000000, -109.000000)" fill="#FCCCD2" fill-rule="nonzero">
            <path d="M333.033333,144 L334.983333,134.85 L343.033333,134.85 L345.083333,144 L351.633333,144 L342.783333,109 L335.033333,109 L326.833333,144 L333.033333,144 Z M341.733333,129 L336.283333,129 L338.883333,118.2 L341.733333,129 Z M364.85,144 L364.85,127.9 C364.85,126.666667 365.283333,125.675 366.15,124.925 C367.016667,124.175 368.066667,123.8 369.3,123.8 C370.2,123.8 371.116667,124.033333 372.05,124.5 L372.05,124.5 L373.35,119.15 L372.35,118.95 C370.75,118.616667 369.533333,118.45 368.7,118.45 C367.5,118.45 366.216667,118.683333 364.85,119.15 L364.85,119.15 L364.45,118.95 L359.35,118.95 L359.35,144 L364.85,144 Z M385.716667,144 L385.716667,127.9 C385.716667,126.666667 386.15,125.675 387.016667,124.925 C387.883333,124.175 388.933333,123.8 390.166667,123.8 C391.066667,123.8 391.983333,124.033333 392.916667,124.5 L392.916667,124.5 L394.216667,119.15 L393.216667,118.95 C391.616667,118.616667 390.4,118.45 389.566667,118.45 C388.366667,118.45 387.083333,118.683333 385.716667,119.15 L385.716667,119.15 L385.316667,118.95 L380.216667,118.95 L380.216667,144 L385.716667,144 Z M408.633333,144.55 C410.233333,144.55 412.833333,144.366667 416.433333,144 L416.433333,144 L416.433333,129.1 C416.433333,126.9 416.258333,125.1 415.908333,123.7 C415.558333,122.3 414.625,121.091667 413.108333,120.075 C411.591667,119.058333 409.233333,118.55 406.033333,118.55 L406.033333,118.55 L405.583333,122.35 C407.15,122.35 408.433333,122.575 409.433333,123.025 C410.433333,123.475 410.933333,124.316667 410.933333,125.55 C410.2,125.15 409.233333,124.783333 408.033333,124.45 C406.833333,124.116667 405.616667,123.95 404.383333,123.95 C402.983333,123.95 401.733333,124.216667 400.633333,124.75 C398.333333,125.883333 397.183333,128.1 397.183333,131.4 L397.183333,131.4 L397.183333,135.55 C397.183333,138.95 398.216667,141.3 400.283333,142.6 C402.35,143.9 405.133333,144.55 408.633333,144.55 Z M408.083333,139.4 C404.516667,139.4 402.733333,137.883333 402.733333,134.85 L402.733333,134.85 L402.733333,132.1 C402.733333,131.233333 402.983333,130.6 403.483333,130.2 C403.983333,129.8 404.633333,129.6 405.433333,129.6 C406.333333,129.6 407.325,129.791667 408.408333,130.175 C409.491667,130.558333 410.333333,130.966667 410.933333,131.4 L410.933333,131.4 L410.933333,139.15 C410.066667,139.316667 409.116667,139.4 408.083333,139.4 Z M433.45,144.75 C435.516667,144.75 437.241667,144.383333 438.625,143.65 C440.008333,142.916667 441.033333,141.958333 441.7,140.775 C442.366667,139.591667 442.7,138.316667 442.7,136.95 C442.7,135.15 442.291667,133.675 441.475,132.525 C440.658333,131.375 439.691667,130.508333 438.575,129.925 C437.458333,129.341667 436.083333,128.75 434.45,128.15 C433.283333,127.716667 432.4,127.341667 431.8,127.025 C431.2,126.708333 430.85,126.316667 430.75,125.85 C430.683333,125.65 430.65,125.45 430.65,125.25 C430.65,124.25 431.55,123.75 433.35,123.75 C434.183333,123.75 434.9,123.833333 435.5,124 C436.1,124.166667 436.541667,124.341667 436.825,124.525 C437.108333,124.708333 437.283333,124.833333 437.35,124.9 L437.35,124.9 L438.95,119.8 C438.85,119.733333 438.566667,119.583333 438.1,119.35 C437.633333,119.116667 436.991667,118.891667 436.175,118.675 C435.358333,118.458333 434.416667,118.35 433.35,118.35 C431.283333,118.35 429.591667,118.725 428.275,119.475 C426.958333,120.225 426.025,121.175 425.475,122.325 C424.925,123.475 424.7,124.616667 424.8,125.75 C424.933333,127.25 425.366667,128.466667 426.1,129.4 C426.833333,130.333333 427.666667,131.033333 428.6,131.5 C429.533333,131.966667 430.716667,132.433333 432.15,132.9 C433.816667,133.5 435.025,134.05 435.775,134.55 C436.525,135.05 436.9,135.816667 436.9,136.85 C436.9,137.583333 436.6,138.225 436,138.775 C435.4,139.325 434.55,139.6 433.45,139.6 C432.183333,139.6 431.241667,139.333333 430.625,138.8 C430.008333,138.266667 429.7,137.7 429.7,137.1 L429.7,137.1 L424.2,137.65 C424.266667,138.95 424.658333,140.133333 425.375,141.2 C426.091667,142.266667 427.141667,143.125 428.525,143.775 C429.908333,144.425 431.55,144.75 433.45,144.75 Z M457.916667,144.65 L459.566667,140.25 C458.4,140.25 457.5,140.058333 456.866667,139.675 C456.233333,139.291667 455.916667,138.533333 455.916667,137.4 L455.916667,137.4 L455.916667,124.1 L459.466667,124.1 L460.666667,118.95 L455.916667,118.95 L455.916667,109 L450.316667,109 L450.316667,137.4 C450.316667,142.133333 452.85,144.55 457.916667,144.65 L457.916667,144.65 Z M474.533333,144 L474.533333,127.9 C474.533333,126.666667 474.966667,125.675 475.833333,124.925 C476.7,124.175 477.75,123.8 478.983333,123.8 C479.883333,123.8 480.8,124.033333 481.733333,124.5 L481.733333,124.5 L483.033333,119.15 L482.033333,118.95 C480.433333,118.616667 479.216667,118.45 478.383333,118.45 C477.183333,118.45 475.9,118.683333 474.533333,119.15 L474.533333,119.15 L474.133333,118.95 L469.033333,118.95 L469.033333,144 L474.533333,144 Z M497.45,144.55 C499.05,144.55 501.65,144.366667 505.25,144 L505.25,144 L505.25,129.1 C505.25,126.9 505.075,125.1 504.725,123.7 C504.375,122.3 503.441667,121.091667 501.925,120.075 C500.408333,119.058333 498.05,118.55 494.85,118.55 L494.85,118.55 L494.4,122.35 C495.966667,122.35 497.25,122.575 498.25,123.025 C499.25,123.475 499.75,124.316667 499.75,125.55 C499.016667,125.15 498.05,124.783333 496.85,124.45 C495.65,124.116667 494.433333,123.95 493.2,123.95 C491.8,123.95 490.55,124.216667 489.45,124.75 C487.15,125.883333 486,128.1 486,131.4 L486,131.4 L486,135.55 C486,138.95 487.033333,141.3 489.1,142.6 C491.166667,143.9 493.95,144.55 497.45,144.55 Z M496.9,139.4 C493.333333,139.4 491.55,137.883333 491.55,134.85 L491.55,134.85 L491.55,132.1 C491.55,131.233333 491.8,130.6 492.3,130.2 C492.8,129.8 493.45,129.6 494.25,129.6 C495.15,129.6 496.141667,129.791667 497.225,130.175 C498.308333,130.558333 499.15,130.966667 499.75,131.4 L499.75,131.4 L499.75,139.15 C498.883333,139.316667 497.933333,139.4 496.9,139.4 Z M351.366667,204.65 L353.016667,200.25 C351.85,200.25 350.95,200.058333 350.316667,199.675 C349.683333,199.291667 349.366667,198.533333 349.366667,197.4 L349.366667,197.4 L349.366667,184.1 L352.916667,184.1 L354.116667,178.95 L349.366667,178.95 L349.366667,169 L343.766667,169 L343.766667,197.4 C343.766667,202.133333 346.3,204.55 351.366667,204.65 L351.366667,204.65 Z M370.633333,204.55 C371.7,204.55 372.566667,204.416667 373.233333,204.15 C373.9,203.883333 374.283333,203.733333 374.383333,203.7 L374.383333,203.7 L374.733333,204 L379.883333,204 L379.883333,178.95 L374.383333,178.95 L374.383333,194.4 C374.383333,195.9 374.133333,197.058333 373.633333,197.875 C373.133333,198.691667 372.133333,199.1 370.633333,199.1 C369.133333,199.1 368.108333,198.733333 367.558333,198 C367.008333,197.266667 366.733333,196.133333 366.733333,194.6 L366.733333,194.6 L366.733333,178.95 L361.233333,178.95 L361.233333,195.4 C361.233333,201.5 364.366667,204.55 370.633333,204.55 Z M413.516667,204 L413.516667,184.1 L416.666667,184.1 L417.866667,178.95 L413.516667,178.95 L413.516667,176.55 C413.516667,175.383333 413.775,174.566667 414.291667,174.1 C414.808333,173.633333 415.433333,173.4 416.166667,173.4 C416.6,173.4 417.016667,173.483333 417.416667,173.65 L417.416667,173.65 L418.316667,168.65 C417.483333,168.483333 416.666667,168.4 415.866667,168.4 C413.633333,168.4 411.75,169.025 410.216667,170.275 C408.683333,171.525 407.916667,173.616667 407.916667,176.55 L407.916667,176.55 L407.916667,204 L413.516667,204 Z M433.533333,204.5 C436.633333,204.5 438.95,203.583333 440.483333,201.75 C442.016667,199.916667 442.783333,197.6 442.783333,194.8 L442.783333,194.8 L442.783333,188.2 C442.783333,185.166667 441.966667,182.775 440.333333,181.025 C438.7,179.275 436.433333,178.4 433.533333,178.4 C430.5,178.4 428.175,179.241667 426.558333,180.925 C424.941667,182.608333 424.133333,185.033333 424.133333,188.2 L424.133333,188.2 L424.133333,194.8 C424.133333,197.566667 424.925,199.875 426.508333,201.725 C428.091667,203.575 430.433333,204.5 433.533333,204.5 Z M433.533333,199.1 C432.4,199.1 431.466667,198.8 430.733333,198.2 C430,197.6 429.633333,196.633333 429.633333,195.3 L429.633333,195.3 L429.633333,188.2 C429.633333,185.366667 430.933333,183.95 433.533333,183.95 C434.6,183.95 435.5,184.216667 436.233333,184.75 C436.966667,185.283333 437.333333,186.433333 437.333333,188.2 L437.333333,188.2 L437.333333,195.3 C437.333333,196.566667 436.975,197.516667 436.258333,198.15 C435.541667,198.783333 434.633333,199.1 433.533333,199.1 Z M458.7,204.65 L460.35,200.25 C459.183333,200.25 458.283333,200.058333 457.65,199.675 C457.016667,199.291667 456.7,198.533333 456.7,197.4 L456.7,197.4 L456.7,184.1 L460.25,184.1 L461.45,178.95 L456.7,178.95 L456.7,169 L451.1,169 L451.1,197.4 C451.1,202.133333 453.633333,204.55 458.7,204.65 L458.7,204.65 Z M480.066667,204.5 C483.166667,204.5 485.483333,203.583333 487.016667,201.75 C488.55,199.916667 489.316667,197.6 489.316667,194.8 L489.316667,194.8 L489.316667,188.2 C489.316667,185.166667 488.5,182.775 486.866667,181.025 C485.233333,179.275 482.966667,178.4 480.066667,178.4 C477.033333,178.4 474.708333,179.241667 473.091667,180.925 C471.475,182.608333 470.666667,185.033333 470.666667,188.2 L470.666667,188.2 L470.666667,194.8 C470.666667,197.566667 471.458333,199.875 473.041667,201.725 C474.625,203.575 476.966667,204.5 480.066667,204.5 Z M480.066667,199.1 C478.933333,199.1 478,198.8 477.266667,198.2 C476.533333,197.6 476.166667,196.633333 476.166667,195.3 L476.166667,195.3 L476.166667,188.2 C476.166667,185.366667 477.466667,183.95 480.066667,183.95 C481.133333,183.95 482.033333,184.216667 482.766667,184.75 C483.5,185.283333 483.866667,186.433333 483.866667,188.2 L483.866667,188.2 L483.866667,195.3 C483.866667,196.566667 483.508333,197.516667 482.791667,198.15 C482.075,198.783333 481.166667,199.1 480.066667,199.1 Z" id="Arrastratufoto"></path>
        </g>
    </g>
</svg>