<?xml version="1.0" encoding="UTF-8"?>
<svg width="18px" height="12px" viewBox="0 0 18 12" version="1.1" xmlns="http://www.w3.org/2000/svg" xmlns:xlink="http://www.w3.org/1999/xlink">
    <title>ic-email</title>
    <g id="Page-1" stroke="none" stroke-width="1" fill="none" fill-rule="evenodd">
        <g id="Template2-colors" transform="translate(-448.000000, -352.000000)" fill="#FCCCD2" fill-rule="nonzero">
            <g id="owner-info" transform="translate(163.000000, 131.000000)">
                <g id="ic-email" transform="translate(285.000000, 221.000000)">
                    <path d="M17.7480625,5.622125 L14.4453125,0.6679375 C14.1670958,0.250651552 13.6987485,0 13.1972187,0 L4.80278125,0 C4.30125837,0 3.83291767,0.250647959 3.55471875,0.6679375 L0.2519375,5.622125 C0.0876587613,5.8685146 0,6.15802226 0,6.45415625 L0,10.5 C0,11.3284375 0.6715625,12 1.5,12 L16.5,12 C17.3284375,12 18,11.3284375 18,10.5 L18,6.45415625 C18,6.15802226 17.9123412,5.8685146 17.7480625,5.622125 Z M4.6277513,2 L12.3722795,2 L15,6 L11.2098474,6 L10.2244483,8 L6.77555168,8 L5.79015264,6 L2,6 L4.6277513,2 Z" id="Shape"></path>
                </g>
            </g>
        </g>
    </g>
</svg>