<?xml version="1.0" encoding="UTF-8"?>
<svg width="18px" height="18px" viewBox="0 0 18 18" version="1.1" xmlns="http://www.w3.org/2000/svg" xmlns:xlink="http://www.w3.org/1999/xlink">
    <title>ic-linkedin</title>
    <g id="Page-1" stroke="none" stroke-width="1" fill="none" fill-rule="evenodd">
        <g id="Template2-colors" transform="translate(-733.000000, -349.000000)" fill="#FCCCD2" fill-rule="nonzero">
            <g id="owner-info" transform="translate(163.000000, 131.000000)">
                <g id="ic-linkedin" transform="translate(570.000000, 218.000000)">
                    <path d="M16.7142857,0 L1.28169643,0 C0.574553571,0 0,0.582589286 0,1.29776786 L0,16.7022321 C0,17.4174107 0.574553571,18 1.28169643,18 L16.7142857,18 C17.4214286,18 18,17.4174107 18,16.7022321 L18,1.29776786 C18,0.582589286 17.4214286,0 16.7142857,0 Z M5.99548872,16 L3,16 L3,7 L6,7 L6,16 L5.99548872,16 Z M4.5,6 C3.67012987,6 3,5.32597403 3,4.5 C3,3.67402597 3.67012987,3 4.5,3 C5.32597403,3 6,3.67402597 6,4.5 C6,5.32987013 5.32987013,6 4.5,6 L4.5,6 Z M15,16 L12.4362934,16 L12.4362934,11.7279781 C12.4362934,10.7092652 12.4169884,9.39890461 11.1042471,9.39890461 C9.76833977,9.39890461 9.56370656,10.5079872 9.56370656,11.6540393 L9.56370656,16 L7,16 L7,7.21770881 L9.45945946,7.21770881 L9.45945946,8.41716111 L9.49420849,8.41716111 C9.83783784,7.72706527 10.6756757,7 11.9227799,7 C14.5173745,7 15,8.81971702 15,11.1857599 L15,16 L15,16 Z" id="Shape"></path>
                </g>
            </g>
        </g>
    </g>
</svg>