<?xml version="1.0" encoding="UTF-8"?>
<svg width="543px" height="107px" viewBox="0 0 543 107" version="1.1" xmlns="http://www.w3.org/2000/svg" xmlns:xlink="http://www.w3.org/1999/xlink">
    <title>Arrastratrayectoriaprofesionalaéstaárea</title>
    <g id="Page-1" stroke="none" stroke-width="1" fill="none" fill-rule="evenodd">
        <g id="Artboard" transform="translate(-64.000000, -1263.000000)" fill="#FCCCD2" fill-rule="nonzero">
            <path d="M114.508333,1299 L116.458333,1289.85 L124.508333,1289.85 L126.558333,1299 L133.108333,1299 L124.258333,1264 L116.508333,1264 L108.308333,1299 L114.508333,1299 Z M123.208333,1284 L117.758333,1284 L120.358333,1273.2 L123.208333,1284 Z M146.325,1299 L146.325,1282.9 C146.325,1281.66667 146.758333,1280.675 147.625,1279.925 C148.491667,1279.175 149.541667,1278.8 150.775,1278.8 C151.675,1278.8 152.591667,1279.03333 153.525,1279.5 L153.525,1279.5 L154.825,1274.15 L153.825,1273.95 C152.225,1273.61667 151.008333,1273.45 150.175,1273.45 C148.975,1273.45 147.691667,1273.68333 146.325,1274.15 L146.325,1274.15 L145.925,1273.95 L140.825,1273.95 L140.825,1299 L146.325,1299 Z M167.191667,1299 L167.191667,1282.9 C167.191667,1281.66667 167.625,1280.675 168.491667,1279.925 C169.358333,1279.175 170.408333,1278.8 171.641667,1278.8 C172.541667,1278.8 173.458333,1279.03333 174.391667,1279.5 L174.391667,1279.5 L175.691667,1274.15 L174.691667,1273.95 C173.091667,1273.61667 171.875,1273.45 171.041667,1273.45 C169.841667,1273.45 168.558333,1273.68333 167.191667,1274.15 L167.191667,1274.15 L166.791667,1273.95 L161.691667,1273.95 L161.691667,1299 L167.191667,1299 Z M190.108333,1299.55 C191.708333,1299.55 194.308333,1299.36667 197.908333,1299 L197.908333,1299 L197.908333,1284.1 C197.908333,1281.9 197.733333,1280.1 197.383333,1278.7 C197.033333,1277.3 196.1,1276.09167 194.583333,1275.075 C193.066667,1274.05833 190.708333,1273.55 187.508333,1273.55 L187.508333,1273.55 L187.058333,1277.35 C188.625,1277.35 189.908333,1277.575 190.908333,1278.025 C191.908333,1278.475 192.408333,1279.31667 192.408333,1280.55 C191.675,1280.15 190.708333,1279.78333 189.508333,1279.45 C188.308333,1279.11667 187.091667,1278.95 185.858333,1278.95 C184.458333,1278.95 183.208333,1279.21667 182.108333,1279.75 C179.808333,1280.88333 178.658333,1283.1 178.658333,1286.4 L178.658333,1286.4 L178.658333,1290.55 C178.658333,1293.95 179.691667,1296.3 181.758333,1297.6 C183.825,1298.9 186.608333,1299.55 190.108333,1299.55 Z M189.558333,1294.4 C185.991667,1294.4 184.208333,1292.88333 184.208333,1289.85 L184.208333,1289.85 L184.208333,1287.1 C184.208333,1286.23333 184.458333,1285.6 184.958333,1285.2 C185.458333,1284.8 186.108333,1284.6 186.908333,1284.6 C187.808333,1284.6 188.8,1284.79167 189.883333,1285.175 C190.966667,1285.55833 191.808333,1285.96667 192.408333,1286.4 L192.408333,1286.4 L192.408333,1294.15 C191.541667,1294.31667 190.591667,1294.4 189.558333,1294.4 Z M214.925,1299.75 C216.991667,1299.75 218.716667,1299.38333 220.1,1298.65 C221.483333,1297.91667 222.508333,1296.95833 223.175,1295.775 C223.841667,1294.59167 224.175,1293.31667 224.175,1291.95 C224.175,1290.15 223.766667,1288.675 222.95,1287.525 C222.133333,1286.375 221.166667,1285.50833 220.05,1284.925 C218.933333,1284.34167 217.558333,1283.75 215.925,1283.15 C214.758333,1282.71667 213.875,1282.34167 213.275,1282.025 C212.675,1281.70833 212.325,1281.31667 212.225,1280.85 C212.158333,1280.65 212.125,1280.45 212.125,1280.25 C212.125,1279.25 213.025,1278.75 214.825,1278.75 C215.658333,1278.75 216.375,1278.83333 216.975,1279 C217.575,1279.16667 218.016667,1279.34167 218.3,1279.525 C218.583333,1279.70833 218.758333,1279.83333 218.825,1279.9 L218.825,1279.9 L220.425,1274.8 C220.325,1274.73333 220.041667,1274.58333 219.575,1274.35 C219.108333,1274.11667 218.466667,1273.89167 217.65,1273.675 C216.833333,1273.45833 215.891667,1273.35 214.825,1273.35 C212.758333,1273.35 211.066667,1273.725 209.75,1274.475 C208.433333,1275.225 207.5,1276.175 206.95,1277.325 C206.4,1278.475 206.175,1279.61667 206.275,1280.75 C206.408333,1282.25 206.841667,1283.46667 207.575,1284.4 C208.308333,1285.33333 209.141667,1286.03333 210.075,1286.5 C211.008333,1286.96667 212.191667,1287.43333 213.625,1287.9 C215.291667,1288.5 216.5,1289.05 217.25,1289.55 C218,1290.05 218.375,1290.81667 218.375,1291.85 C218.375,1292.58333 218.075,1293.225 217.475,1293.775 C216.875,1294.325 216.025,1294.6 214.925,1294.6 C213.658333,1294.6 212.716667,1294.33333 212.1,1293.8 C211.483333,1293.26667 211.175,1292.7 211.175,1292.1 L211.175,1292.1 L205.675,1292.65 C205.741667,1293.95 206.133333,1295.13333 206.85,1296.2 C207.566667,1297.26667 208.616667,1298.125 210,1298.775 C211.383333,1299.425 213.025,1299.75 214.925,1299.75 Z M239.391667,1299.65 L241.041667,1295.25 C239.875,1295.25 238.975,1295.05833 238.341667,1294.675 C237.708333,1294.29167 237.391667,1293.53333 237.391667,1292.4 L237.391667,1292.4 L237.391667,1279.1 L240.941667,1279.1 L242.141667,1273.95 L237.391667,1273.95 L237.391667,1264 L231.791667,1264 L231.791667,1292.4 C231.791667,1297.13333 234.325,1299.55 239.391667,1299.65 L239.391667,1299.65 Z M256.008333,1299 L256.008333,1282.9 C256.008333,1281.66667 256.441667,1280.675 257.308333,1279.925 C258.175,1279.175 259.225,1278.8 260.458333,1278.8 C261.358333,1278.8 262.275,1279.03333 263.208333,1279.5 L263.208333,1279.5 L264.508333,1274.15 L263.508333,1273.95 C261.908333,1273.61667 260.691667,1273.45 259.858333,1273.45 C258.658333,1273.45 257.375,1273.68333 256.008333,1274.15 L256.008333,1274.15 L255.608333,1273.95 L250.508333,1273.95 L250.508333,1299 L256.008333,1299 Z M278.925,1299.55 C280.525,1299.55 283.125,1299.36667 286.725,1299 L286.725,1299 L286.725,1284.1 C286.725,1281.9 286.55,1280.1 286.2,1278.7 C285.85,1277.3 284.916667,1276.09167 283.4,1275.075 C281.883333,1274.05833 279.525,1273.55 276.325,1273.55 L276.325,1273.55 L275.875,1277.35 C277.441667,1277.35 278.725,1277.575 279.725,1278.025 C280.725,1278.475 281.225,1279.31667 281.225,1280.55 C280.491667,1280.15 279.525,1279.78333 278.325,1279.45 C277.125,1279.11667 275.908333,1278.95 274.675,1278.95 C273.275,1278.95 272.025,1279.21667 270.925,1279.75 C268.625,1280.88333 267.475,1283.1 267.475,1286.4 L267.475,1286.4 L267.475,1290.55 C267.475,1293.95 268.508333,1296.3 270.575,1297.6 C272.641667,1298.9 275.425,1299.55 278.925,1299.55 Z M278.375,1294.4 C274.808333,1294.4 273.025,1292.88333 273.025,1289.85 L273.025,1289.85 L273.025,1287.1 C273.025,1286.23333 273.275,1285.6 273.775,1285.2 C274.275,1284.8 274.925,1284.6 275.725,1284.6 C276.625,1284.6 277.616667,1284.79167 278.7,1285.175 C279.783333,1285.55833 280.625,1285.96667 281.225,1286.4 L281.225,1286.4 L281.225,1294.15 C280.358333,1294.31667 279.408333,1294.4 278.375,1294.4 Z M320.558333,1299.65 L322.208333,1295.25 C321.041667,1295.25 320.141667,1295.05833 319.508333,1294.675 C318.875,1294.29167 318.558333,1293.53333 318.558333,1292.4 L318.558333,1292.4 L318.558333,1279.1 L322.108333,1279.1 L323.308333,1273.95 L318.558333,1273.95 L318.558333,1264 L312.958333,1264 L312.958333,1292.4 C312.958333,1297.13333 315.491667,1299.55 320.558333,1299.65 L320.558333,1299.65 Z M337.175,1299 L337.175,1282.9 C337.175,1281.66667 337.608333,1280.675 338.475,1279.925 C339.341667,1279.175 340.391667,1278.8 341.625,1278.8 C342.525,1278.8 343.441667,1279.03333 344.375,1279.5 L344.375,1279.5 L345.675,1274.15 L344.675,1273.95 C343.075,1273.61667 341.858333,1273.45 341.025,1273.45 C339.825,1273.45 338.541667,1273.68333 337.175,1274.15 L337.175,1274.15 L336.775,1273.95 L331.675,1273.95 L331.675,1299 L337.175,1299 Z M360.091667,1299.55 C361.691667,1299.55 364.291667,1299.36667 367.891667,1299 L367.891667,1299 L367.891667,1284.1 C367.891667,1281.9 367.716667,1280.1 367.366667,1278.7 C367.016667,1277.3 366.083333,1276.09167 364.566667,1275.075 C363.05,1274.05833 360.691667,1273.55 357.491667,1273.55 L357.491667,1273.55 L357.041667,1277.35 C358.608333,1277.35 359.891667,1277.575 360.891667,1278.025 C361.891667,1278.475 362.391667,1279.31667 362.391667,1280.55 C361.658333,1280.15 360.691667,1279.78333 359.491667,1279.45 C358.291667,1279.11667 357.075,1278.95 355.841667,1278.95 C354.441667,1278.95 353.191667,1279.21667 352.091667,1279.75 C349.791667,1280.88333 348.641667,1283.1 348.641667,1286.4 L348.641667,1286.4 L348.641667,1290.55 C348.641667,1293.95 349.675,1296.3 351.741667,1297.6 C353.808333,1298.9 356.591667,1299.55 360.091667,1299.55 Z M359.541667,1294.4 C355.975,1294.4 354.191667,1292.88333 354.191667,1289.85 L354.191667,1289.85 L354.191667,1287.1 C354.191667,1286.23333 354.441667,1285.6 354.941667,1285.2 C355.441667,1284.8 356.091667,1284.6 356.891667,1284.6 C357.791667,1284.6 358.783333,1284.79167 359.866667,1285.175 C360.95,1285.55833 361.791667,1285.96667 362.391667,1286.4 L362.391667,1286.4 L362.391667,1294.15 C361.525,1294.31667 360.575,1294.4 359.541667,1294.4 Z M388.758333,1309.5 C391.191667,1309.2 392.916667,1308.425 393.933333,1307.175 C394.95,1305.925 395.458333,1304.21667 395.458333,1302.05 L395.458333,1302.05 L395.458333,1281.65 C395.458333,1280.81667 395.716667,1280.05833 396.233333,1279.375 C396.75,1278.69167 397.491667,1278.23333 398.458333,1278 L398.458333,1278 L396.408333,1273.5 C395.175,1273.6 394.066667,1274.01667 393.083333,1274.75 C392.1,1275.48333 391.333333,1276.4 390.783333,1277.5 C390.233333,1278.6 389.958333,1279.71667 389.958333,1280.85 L389.958333,1280.85 L389.958333,1288.7 C389.958333,1290.16667 389.808333,1291.29167 389.508333,1292.075 C389.208333,1292.85833 388.766667,1293.39167 388.183333,1293.675 C387.6,1293.95833 386.825,1294.1 385.858333,1294.1 C384.525,1294.1 383.583333,1293.725 383.033333,1292.975 C382.483333,1292.225 382.208333,1290.8 382.208333,1288.7 L382.208333,1288.7 L382.208333,1273.95 L376.708333,1273.95 L376.708333,1290.2 C376.708333,1293.3 377.5,1295.64167 379.083333,1297.225 C380.666667,1298.80833 382.925,1299.6 385.858333,1299.6 C387.158333,1299.6 388.141667,1299.49167 388.808333,1299.275 C389.475,1299.05833 389.858333,1298.93333 389.958333,1298.9 L389.958333,1298.9 L389.958333,1301.8 C389.958333,1302.96667 389.616667,1303.81667 388.933333,1304.35 C388.25,1304.88333 387.475,1305.15 386.608333,1305.15 L386.608333,1305.15 L388.758333,1309.5 Z M413.125,1299.6 C414.658333,1299.6 416.191667,1299.4 417.725,1299 C419.258333,1298.6 420.625,1298.01667 421.825,1297.25 L421.825,1297.25 L419.825,1292.5 C417.258333,1293.83333 415.208333,1294.5 413.675,1294.5 C412.675,1294.5 411.916667,1294.24167 411.4,1293.725 C410.883333,1293.20833 410.625,1292.48333 410.625,1291.55 L410.625,1291.55 L410.625,1290.15 L423.075,1289.5 L423.075,1281.9 C423.075,1279.26667 422.3,1277.20833 420.75,1275.725 C419.2,1274.24167 417.041667,1273.5 414.275,1273.5 C411.508333,1273.5 409.283333,1274.25 407.6,1275.75 C405.916667,1277.25 405.075,1279.35 405.075,1282.05 L405.075,1282.05 L405.075,1292.3 C405.075,1294.73333 405.8,1296.55833 407.25,1297.775 C408.7,1298.99167 410.658333,1299.6 413.125,1299.6 Z M410.625,1285.1 L410.625,1282.1 C410.625,1281.3 410.908333,1280.56667 411.475,1279.9 C412.041667,1279.23333 412.958333,1278.9 414.225,1278.9 C415.158333,1278.9 415.941667,1279.16667 416.575,1279.7 C417.208333,1280.23333 417.525,1281 417.525,1282 L417.525,1282 L417.525,1284.65 L410.625,1285.1 Z M441.091667,1299.5 C443.025,1299.5 445.025,1299.23333 447.091667,1298.7 L447.091667,1298.7 L445.591667,1293.3 C445.125,1293.46667 444.491667,1293.63333 443.691667,1293.8 C442.891667,1293.96667 442.091667,1294.05 441.291667,1294.05 C439.891667,1294.05 438.741667,1293.78333 437.841667,1293.25 C436.941667,1292.71667 436.491667,1291.81667 436.491667,1290.55 L436.491667,1290.55 L436.491667,1283.3 C436.491667,1282.03333 436.9,1280.98333 437.716667,1280.15 C438.533333,1279.31667 439.691667,1278.9 441.191667,1278.9 C442.458333,1278.9 443.891667,1279.21667 445.491667,1279.85 L445.491667,1279.85 L446.991667,1275.1 C444.691667,1274.03333 442.458333,1273.5 440.291667,1273.5 C437.558333,1273.5 435.325,1274.35833 433.591667,1276.075 C431.858333,1277.79167 430.991667,1280.3 430.991667,1283.6 L430.991667,1283.6 L430.991667,1290 C430.991667,1292.5 431.433333,1294.44167 432.316667,1295.825 C433.2,1297.20833 434.625,1298.23333 436.591667,1298.9 C437.791667,1299.3 439.291667,1299.5 441.091667,1299.5 Z M462.308333,1299.65 L463.958333,1295.25 C462.791667,1295.25 461.891667,1295.05833 461.258333,1294.675 C460.625,1294.29167 460.308333,1293.53333 460.308333,1292.4 L460.308333,1292.4 L460.308333,1279.1 L463.858333,1279.1 L465.058333,1273.95 L460.308333,1273.95 L460.308333,1264 L454.708333,1264 L454.708333,1292.4 C454.708333,1297.13333 457.241667,1299.55 462.308333,1299.65 L462.308333,1299.65 Z M483.675,1299.5 C486.775,1299.5 489.091667,1298.58333 490.625,1296.75 C492.158333,1294.91667 492.925,1292.6 492.925,1289.8 L492.925,1289.8 L492.925,1283.2 C492.925,1280.16667 492.108333,1277.775 490.475,1276.025 C488.841667,1274.275 486.575,1273.4 483.675,1273.4 C480.641667,1273.4 478.316667,1274.24167 476.7,1275.925 C475.083333,1277.60833 474.275,1280.03333 474.275,1283.2 L474.275,1283.2 L474.275,1289.8 C474.275,1292.56667 475.066667,1294.875 476.65,1296.725 C478.233333,1298.575 480.575,1299.5 483.675,1299.5 Z M483.675,1294.1 C482.541667,1294.1 481.608333,1293.8 480.875,1293.2 C480.141667,1292.6 479.775,1291.63333 479.775,1290.3 L479.775,1290.3 L479.775,1283.2 C479.775,1280.36667 481.075,1278.95 483.675,1278.95 C484.741667,1278.95 485.641667,1279.21667 486.375,1279.75 C487.108333,1280.28333 487.475,1281.43333 487.475,1283.2 L487.475,1283.2 L487.475,1290.3 C487.475,1291.56667 487.116667,1292.51667 486.4,1293.15 C485.683333,1293.78333 484.775,1294.1 483.675,1294.1 Z M507.591667,1299 L507.591667,1282.9 C507.591667,1281.66667 508.025,1280.675 508.891667,1279.925 C509.758333,1279.175 510.808333,1278.8 512.041667,1278.8 C512.941667,1278.8 513.858333,1279.03333 514.791667,1279.5 L514.791667,1279.5 L516.091667,1274.15 L515.091667,1273.95 C513.491667,1273.61667 512.275,1273.45 511.441667,1273.45 C510.241667,1273.45 508.958333,1273.68333 507.591667,1274.15 L507.591667,1274.15 L507.191667,1273.95 L502.091667,1273.95 L502.091667,1299 L507.591667,1299 Z M527.608333,1269.4 C528.375,1269.4 529.05,1269.1 529.633333,1268.5 C530.216667,1267.9 530.508333,1267.2 530.508333,1266.4 C530.508333,1265.63333 530.216667,1264.95833 529.633333,1264.375 C529.05,1263.79167 528.375,1263.5 527.608333,1263.5 C526.808333,1263.5 526.108333,1263.79167 525.508333,1264.375 C524.908333,1264.95833 524.608333,1265.63333 524.608333,1266.4 C524.608333,1267.2 524.908333,1267.9 525.508333,1268.5 C526.108333,1269.1 526.808333,1269.4 527.608333,1269.4 Z M530.208333,1299 L530.208333,1273.95 L524.708333,1273.95 L524.708333,1299 L530.208333,1299 Z M551.975,1299.55 C553.575,1299.55 556.175,1299.36667 559.775,1299 L559.775,1299 L559.775,1284.1 C559.775,1281.9 559.6,1280.1 559.25,1278.7 C558.9,1277.3 557.966667,1276.09167 556.45,1275.075 C554.933333,1274.05833 552.575,1273.55 549.375,1273.55 L549.375,1273.55 L548.925,1277.35 C550.491667,1277.35 551.775,1277.575 552.775,1278.025 C553.775,1278.475 554.275,1279.31667 554.275,1280.55 C553.541667,1280.15 552.575,1279.78333 551.375,1279.45 C550.175,1279.11667 548.958333,1278.95 547.725,1278.95 C546.325,1278.95 545.075,1279.21667 543.975,1279.75 C541.675,1280.88333 540.525,1283.1 540.525,1286.4 L540.525,1286.4 L540.525,1290.55 C540.525,1293.95 541.558333,1296.3 543.625,1297.6 C545.691667,1298.9 548.475,1299.55 551.975,1299.55 Z M551.425,1294.4 C547.858333,1294.4 546.075,1292.88333 546.075,1289.85 L546.075,1289.85 L546.075,1287.1 C546.075,1286.23333 546.325,1285.6 546.825,1285.2 C547.325,1284.8 547.975,1284.6 548.775,1284.6 C549.675,1284.6 550.666667,1284.79167 551.75,1285.175 C552.833333,1285.55833 553.675,1285.96667 554.275,1286.4 L554.275,1286.4 L554.275,1294.15 C553.408333,1294.31667 552.458333,1294.4 551.425,1294.4 Z M64.3833333,1369.5 L69.8833333,1368.4 L69.8833333,1358.9 C70.0833333,1358.96667 70.35,1359.05833 70.6833333,1359.175 C71.0166667,1359.29167 71.4166667,1359.39167 71.8833333,1359.475 C72.35,1359.55833 73.0333333,1359.6 73.9333333,1359.6 C76.7333333,1359.6 78.9833333,1358.79167 80.6833333,1357.175 C82.3833333,1355.55833 83.2333333,1353.23333 83.2333333,1350.2 L83.2333333,1350.2 L83.2333333,1343.25 C83.2333333,1340.38333 82.425,1338.05 80.8083333,1336.25 C79.1916667,1334.45 76.8333333,1333.55 73.7333333,1333.55 C73.0333333,1333.55 72.3083333,1333.63333 71.5583333,1333.8 C70.8083333,1333.96667 70.25,1334.13333 69.8833333,1334.3 L69.8833333,1334.3 L69.5833333,1333.95 L64.3833333,1333.95 L64.3833333,1369.5 Z M73.9333333,1354.1 C72.4,1354.1 71.3416667,1353.68333 70.7583333,1352.85 C70.175,1352.01667 69.8833333,1350.93333 69.8833333,1349.6 L69.8833333,1349.6 L69.8833333,1342.8 C69.8833333,1341.6 70.2166667,1340.65833 70.8833333,1339.975 C71.55,1339.29167 72.5666667,1338.95 73.9333333,1338.95 C75.3,1338.95 76.275,1339.3 76.8583333,1340 C77.4416667,1340.7 77.7333333,1341.71667 77.7333333,1343.05 L77.7333333,1343.05 L77.7333333,1348.9 C77.7333333,1350.76667 77.4833333,1352.1 76.9833333,1352.9 C76.4833333,1353.7 75.4666667,1354.1 73.9333333,1354.1 Z M97.9,1359 L97.9,1342.9 C97.9,1341.66667 98.3333333,1340.675 99.2,1339.925 C100.066667,1339.175 101.116667,1338.8 102.35,1338.8 C103.25,1338.8 104.166667,1339.03333 105.1,1339.5 L105.1,1339.5 L106.4,1334.15 L105.4,1333.95 C103.8,1333.61667 102.583333,1333.45 101.75,1333.45 C100.55,1333.45 99.2666667,1333.68333 97.9,1334.15 L97.9,1334.15 L97.5,1333.95 L92.4,1333.95 L92.4,1359 L97.9,1359 Z M123.216667,1359.5 C126.316667,1359.5 128.633333,1358.58333 130.166667,1356.75 C131.7,1354.91667 132.466667,1352.6 132.466667,1349.8 L132.466667,1349.8 L132.466667,1343.2 C132.466667,1340.16667 131.65,1337.775 130.016667,1336.025 C128.383333,1334.275 126.116667,1333.4 123.216667,1333.4 C120.183333,1333.4 117.858333,1334.24167 116.241667,1335.925 C114.625,1337.60833 113.816667,1340.03333 113.816667,1343.2 L113.816667,1343.2 L113.816667,1349.8 C113.816667,1352.56667 114.608333,1354.875 116.191667,1356.725 C117.775,1358.575 120.116667,1359.5 123.216667,1359.5 Z M123.216667,1354.1 C122.083333,1354.1 121.15,1353.8 120.416667,1353.2 C119.683333,1352.6 119.316667,1351.63333 119.316667,1350.3 L119.316667,1350.3 L119.316667,1343.2 C119.316667,1340.36667 120.616667,1338.95 123.216667,1338.95 C124.283333,1338.95 125.183333,1339.21667 125.916667,1339.75 C126.65,1340.28333 127.016667,1341.43333 127.016667,1343.2 L127.016667,1343.2 L127.016667,1350.3 C127.016667,1351.56667 126.658333,1352.51667 125.941667,1353.15 C125.225,1353.78333 124.316667,1354.1 123.216667,1354.1 Z M148.083333,1359 L148.083333,1339.1 L151.233333,1339.1 L152.433333,1333.95 L148.083333,1333.95 L148.083333,1331.55 C148.083333,1330.38333 148.341667,1329.56667 148.858333,1329.1 C149.375,1328.63333 150,1328.4 150.733333,1328.4 C151.166667,1328.4 151.583333,1328.48333 151.983333,1328.65 L151.983333,1328.65 L152.883333,1323.65 C152.05,1323.48333 151.233333,1323.4 150.433333,1323.4 C148.2,1323.4 146.316667,1324.025 144.783333,1325.275 C143.25,1326.525 142.483333,1328.61667 142.483333,1331.55 L142.483333,1331.55 L142.483333,1359 L148.083333,1359 Z M167.4,1359.6 C168.933333,1359.6 170.466667,1359.4 172,1359 C173.533333,1358.6 174.9,1358.01667 176.1,1357.25 L176.1,1357.25 L174.1,1352.5 C171.533333,1353.83333 169.483333,1354.5 167.95,1354.5 C166.95,1354.5 166.191667,1354.24167 165.675,1353.725 C165.158333,1353.20833 164.9,1352.48333 164.9,1351.55 L164.9,1351.55 L164.9,1350.15 L177.35,1349.5 L177.35,1341.9 C177.35,1339.26667 176.575,1337.20833 175.025,1335.725 C173.475,1334.24167 171.316667,1333.5 168.55,1333.5 C165.783333,1333.5 163.558333,1334.25 161.875,1335.75 C160.191667,1337.25 159.35,1339.35 159.35,1342.05 L159.35,1342.05 L159.35,1352.3 C159.35,1354.73333 160.075,1356.55833 161.525,1357.775 C162.975,1358.99167 164.933333,1359.6 167.4,1359.6 Z M164.9,1345.1 L164.9,1342.1 C164.9,1341.3 165.183333,1340.56667 165.75,1339.9 C166.316667,1339.23333 167.233333,1338.9 168.5,1338.9 C169.433333,1338.9 170.216667,1339.16667 170.85,1339.7 C171.483333,1340.23333 171.8,1341 171.8,1342 L171.8,1342 L171.8,1344.65 L164.9,1345.1 Z M194.516667,1359.75 C196.583333,1359.75 198.308333,1359.38333 199.691667,1358.65 C201.075,1357.91667 202.1,1356.95833 202.766667,1355.775 C203.433333,1354.59167 203.766667,1353.31667 203.766667,1351.95 C203.766667,1350.15 203.358333,1348.675 202.541667,1347.525 C201.725,1346.375 200.758333,1345.50833 199.641667,1344.925 C198.525,1344.34167 197.15,1343.75 195.516667,1343.15 C194.35,1342.71667 193.466667,1342.34167 192.866667,1342.025 C192.266667,1341.70833 191.916667,1341.31667 191.816667,1340.85 C191.75,1340.65 191.716667,1340.45 191.716667,1340.25 C191.716667,1339.25 192.616667,1338.75 194.416667,1338.75 C195.25,1338.75 195.966667,1338.83333 196.566667,1339 C197.166667,1339.16667 197.608333,1339.34167 197.891667,1339.525 C198.175,1339.70833 198.35,1339.83333 198.416667,1339.9 L198.416667,1339.9 L200.016667,1334.8 C199.916667,1334.73333 199.633333,1334.58333 199.166667,1334.35 C198.7,1334.11667 198.058333,1333.89167 197.241667,1333.675 C196.425,1333.45833 195.483333,1333.35 194.416667,1333.35 C192.35,1333.35 190.658333,1333.725 189.341667,1334.475 C188.025,1335.225 187.091667,1336.175 186.541667,1337.325 C185.991667,1338.475 185.766667,1339.61667 185.866667,1340.75 C186,1342.25 186.433333,1343.46667 187.166667,1344.4 C187.9,1345.33333 188.733333,1346.03333 189.666667,1346.5 C190.6,1346.96667 191.783333,1347.43333 193.216667,1347.9 C194.883333,1348.5 196.091667,1349.05 196.841667,1349.55 C197.591667,1350.05 197.966667,1350.81667 197.966667,1351.85 C197.966667,1352.58333 197.666667,1353.225 197.066667,1353.775 C196.466667,1354.325 195.616667,1354.6 194.516667,1354.6 C193.25,1354.6 192.308333,1354.33333 191.691667,1353.8 C191.075,1353.26667 190.766667,1352.7 190.766667,1352.1 L190.766667,1352.1 L185.266667,1352.65 C185.333333,1353.95 185.725,1355.13333 186.441667,1356.2 C187.158333,1357.26667 188.208333,1358.125 189.591667,1358.775 C190.975,1359.425 192.616667,1359.75 194.516667,1359.75 Z M216.083333,1329.4 C216.85,1329.4 217.525,1329.1 218.108333,1328.5 C218.691667,1327.9 218.983333,1327.2 218.983333,1326.4 C218.983333,1325.63333 218.691667,1324.95833 218.108333,1324.375 C217.525,1323.79167 216.85,1323.5 216.083333,1323.5 C215.283333,1323.5 214.583333,1323.79167 213.983333,1324.375 C213.383333,1324.95833 213.083333,1325.63333 213.083333,1326.4 C213.083333,1327.2 213.383333,1327.9 213.983333,1328.5 C214.583333,1329.1 215.283333,1329.4 216.083333,1329.4 Z M218.683333,1359 L218.683333,1333.95 L213.183333,1333.95 L213.183333,1359 L218.683333,1359 Z M240.45,1359.5 C243.55,1359.5 245.866667,1358.58333 247.4,1356.75 C248.933333,1354.91667 249.7,1352.6 249.7,1349.8 L249.7,1349.8 L249.7,1343.2 C249.7,1340.16667 248.883333,1337.775 247.25,1336.025 C245.616667,1334.275 243.35,1333.4 240.45,1333.4 C237.416667,1333.4 235.091667,1334.24167 233.475,1335.925 C231.858333,1337.60833 231.05,1340.03333 231.05,1343.2 L231.05,1343.2 L231.05,1349.8 C231.05,1352.56667 231.841667,1354.875 233.425,1356.725 C235.008333,1358.575 237.35,1359.5 240.45,1359.5 Z M240.45,1354.1 C239.316667,1354.1 238.383333,1353.8 237.65,1353.2 C236.916667,1352.6 236.55,1351.63333 236.55,1350.3 L236.55,1350.3 L236.55,1343.2 C236.55,1340.36667 237.85,1338.95 240.45,1338.95 C241.516667,1338.95 242.416667,1339.21667 243.15,1339.75 C243.883333,1340.28333 244.25,1341.43333 244.25,1343.2 L244.25,1343.2 L244.25,1350.3 C244.25,1351.56667 243.891667,1352.51667 243.175,1353.15 C242.458333,1353.78333 241.55,1354.1 240.45,1354.1 Z M264.466667,1359 L264.466667,1339.7 C265.666667,1339.1 266.783333,1338.8 267.816667,1338.8 C269.083333,1338.8 270.091667,1339.20833 270.841667,1340.025 C271.591667,1340.84167 271.966667,1341.91667 271.966667,1343.25 L271.966667,1343.25 L271.966667,1359 L277.466667,1359 L277.466667,1341.7 C277.466667,1339.86667 277.091667,1338.35 276.341667,1337.15 C275.591667,1335.95 274.55,1335.05 273.216667,1334.45 C271.983333,1333.85 270.533333,1333.55 268.866667,1333.55 C267.366667,1333.55 265.916667,1333.78333 264.516667,1334.25 L264.516667,1334.25 L263.866667,1333.95 L259.016667,1333.95 L259.016667,1359 L264.466667,1359 Z M298.283333,1359.55 C299.883333,1359.55 302.483333,1359.36667 306.083333,1359 L306.083333,1359 L306.083333,1344.1 C306.083333,1341.9 305.908333,1340.1 305.558333,1338.7 C305.208333,1337.3 304.275,1336.09167 302.758333,1335.075 C301.241667,1334.05833 298.883333,1333.55 295.683333,1333.55 L295.683333,1333.55 L295.233333,1337.35 C296.8,1337.35 298.083333,1337.575 299.083333,1338.025 C300.083333,1338.475 300.583333,1339.31667 300.583333,1340.55 C299.85,1340.15 298.883333,1339.78333 297.683333,1339.45 C296.483333,1339.11667 295.266667,1338.95 294.033333,1338.95 C292.633333,1338.95 291.383333,1339.21667 290.283333,1339.75 C287.983333,1340.88333 286.833333,1343.1 286.833333,1346.4 L286.833333,1346.4 L286.833333,1350.55 C286.833333,1353.95 287.866667,1356.3 289.933333,1357.6 C292,1358.9 294.783333,1359.55 298.283333,1359.55 Z M297.733333,1354.4 C294.166667,1354.4 292.383333,1352.88333 292.383333,1349.85 L292.383333,1349.85 L292.383333,1347.1 C292.383333,1346.23333 292.633333,1345.6 293.133333,1345.2 C293.633333,1344.8 294.283333,1344.6 295.083333,1344.6 C295.983333,1344.6 296.975,1344.79167 298.058333,1345.175 C299.141667,1345.55833 299.983333,1345.96667 300.583333,1346.4 L300.583333,1346.4 L300.583333,1354.15 C299.716667,1354.31667 298.766667,1354.4 297.733333,1354.4 Z M321.45,1359 L321.45,1324 L315.95,1324 L315.95,1359 L321.45,1359 Z M360.983333,1359.55 C362.583333,1359.55 365.183333,1359.36667 368.783333,1359 L368.783333,1359 L368.783333,1344.1 C368.783333,1341.9 368.608333,1340.1 368.258333,1338.7 C367.908333,1337.3 366.975,1336.09167 365.458333,1335.075 C363.941667,1334.05833 361.583333,1333.55 358.383333,1333.55 L358.383333,1333.55 L357.933333,1337.35 C359.5,1337.35 360.783333,1337.575 361.783333,1338.025 C362.783333,1338.475 363.283333,1339.31667 363.283333,1340.55 C362.55,1340.15 361.583333,1339.78333 360.383333,1339.45 C359.183333,1339.11667 357.966667,1338.95 356.733333,1338.95 C355.333333,1338.95 354.083333,1339.21667 352.983333,1339.75 C350.683333,1340.88333 349.533333,1343.1 349.533333,1346.4 L349.533333,1346.4 L349.533333,1350.55 C349.533333,1353.95 350.566667,1356.3 352.633333,1357.6 C354.7,1358.9 357.483333,1359.55 360.983333,1359.55 Z M360.433333,1354.4 C356.866667,1354.4 355.083333,1352.88333 355.083333,1349.85 L355.083333,1349.85 L355.083333,1347.1 C355.083333,1346.23333 355.333333,1345.6 355.833333,1345.2 C356.333333,1344.8 356.983333,1344.6 357.783333,1344.6 C358.683333,1344.6 359.675,1344.79167 360.758333,1345.175 C361.841667,1345.55833 362.683333,1345.96667 363.283333,1346.4 L363.283333,1346.4 L363.283333,1354.15 C362.416667,1354.31667 361.466667,1354.4 360.433333,1354.4 Z M408.466667,1332.1 L410.916667,1328.95 C411.416667,1328.31667 411.666667,1327.68333 411.666667,1327.05 C411.666667,1326.21667 411.266667,1325.6 410.466667,1325.2 C410.266667,1325.1 410,1325.05 409.666667,1325.05 C409.166667,1325.05 408.675,1325.18333 408.191667,1325.45 C407.708333,1325.71667 407.35,1326.13333 407.116667,1326.7 L407.116667,1326.7 L404.816667,1332.1 L408.466667,1332.1 Z M404.766667,1359.6 C406.3,1359.6 407.833333,1359.4 409.366667,1359 C410.9,1358.6 412.266667,1358.01667 413.466667,1357.25 L413.466667,1357.25 L411.466667,1352.5 C408.9,1353.83333 406.85,1354.5 405.316667,1354.5 C404.316667,1354.5 403.558333,1354.24167 403.041667,1353.725 C402.525,1353.20833 402.266667,1352.48333 402.266667,1351.55 L402.266667,1351.55 L402.266667,1350.15 L414.716667,1349.5 L414.716667,1341.9 C414.716667,1339.26667 413.941667,1337.20833 412.391667,1335.725 C410.841667,1334.24167 408.683333,1333.5 405.916667,1333.5 C403.15,1333.5 400.925,1334.25 399.241667,1335.75 C397.558333,1337.25 396.716667,1339.35 396.716667,1342.05 L396.716667,1342.05 L396.716667,1352.3 C396.716667,1354.73333 397.441667,1356.55833 398.891667,1357.775 C400.341667,1358.99167 402.3,1359.6 404.766667,1359.6 Z M402.266667,1345.1 L402.266667,1342.1 C402.266667,1341.3 402.55,1340.56667 403.116667,1339.9 C403.683333,1339.23333 404.6,1338.9 405.866667,1338.9 C406.8,1338.9 407.583333,1339.16667 408.216667,1339.7 C408.85,1340.23333 409.166667,1341 409.166667,1342 L409.166667,1342 L409.166667,1344.65 L402.266667,1345.1 Z M431.883333,1359.75 C433.95,1359.75 435.675,1359.38333 437.058333,1358.65 C438.441667,1357.91667 439.466667,1356.95833 440.133333,1355.775 C440.8,1354.59167 441.133333,1353.31667 441.133333,1351.95 C441.133333,1350.15 440.725,1348.675 439.908333,1347.525 C439.091667,1346.375 438.125,1345.50833 437.008333,1344.925 C435.891667,1344.34167 434.516667,1343.75 432.883333,1343.15 C431.716667,1342.71667 430.833333,1342.34167 430.233333,1342.025 C429.633333,1341.70833 429.283333,1341.31667 429.183333,1340.85 C429.116667,1340.65 429.083333,1340.45 429.083333,1340.25 C429.083333,1339.25 429.983333,1338.75 431.783333,1338.75 C432.616667,1338.75 433.333333,1338.83333 433.933333,1339 C434.533333,1339.16667 434.975,1339.34167 435.258333,1339.525 C435.541667,1339.70833 435.716667,1339.83333 435.783333,1339.9 L435.783333,1339.9 L437.383333,1334.8 C437.283333,1334.73333 437,1334.58333 436.533333,1334.35 C436.066667,1334.11667 435.425,1333.89167 434.608333,1333.675 C433.791667,1333.45833 432.85,1333.35 431.783333,1333.35 C429.716667,1333.35 428.025,1333.725 426.708333,1334.475 C425.391667,1335.225 424.458333,1336.175 423.908333,1337.325 C423.358333,1338.475 423.133333,1339.61667 423.233333,1340.75 C423.366667,1342.25 423.8,1343.46667 424.533333,1344.4 C425.266667,1345.33333 426.1,1346.03333 427.033333,1346.5 C427.966667,1346.96667 429.15,1347.43333 430.583333,1347.9 C432.25,1348.5 433.458333,1349.05 434.208333,1349.55 C434.958333,1350.05 435.333333,1350.81667 435.333333,1351.85 C435.333333,1352.58333 435.033333,1353.225 434.433333,1353.775 C433.833333,1354.325 432.983333,1354.6 431.883333,1354.6 C430.616667,1354.6 429.675,1354.33333 429.058333,1353.8 C428.441667,1353.26667 428.133333,1352.7 428.133333,1352.1 L428.133333,1352.1 L422.633333,1352.65 C422.7,1353.95 423.091667,1355.13333 423.808333,1356.2 C424.525,1357.26667 425.575,1358.125 426.958333,1358.775 C428.341667,1359.425 429.983333,1359.75 431.883333,1359.75 Z M456.35,1359.65 L458,1355.25 C456.833333,1355.25 455.933333,1355.05833 455.3,1354.675 C454.666667,1354.29167 454.35,1353.53333 454.35,1352.4 L454.35,1352.4 L454.35,1339.1 L457.9,1339.1 L459.1,1333.95 L454.35,1333.95 L454.35,1324 L448.75,1324 L448.75,1352.4 C448.75,1357.13333 451.283333,1359.55 456.35,1359.65 L456.35,1359.65 Z M477.716667,1359.55 C479.316667,1359.55 481.916667,1359.36667 485.516667,1359 L485.516667,1359 L485.516667,1344.1 C485.516667,1341.9 485.341667,1340.1 484.991667,1338.7 C484.641667,1337.3 483.708333,1336.09167 482.191667,1335.075 C480.675,1334.05833 478.316667,1333.55 475.116667,1333.55 L475.116667,1333.55 L474.666667,1337.35 C476.233333,1337.35 477.516667,1337.575 478.516667,1338.025 C479.516667,1338.475 480.016667,1339.31667 480.016667,1340.55 C479.283333,1340.15 478.316667,1339.78333 477.116667,1339.45 C475.916667,1339.11667 474.7,1338.95 473.466667,1338.95 C472.066667,1338.95 470.816667,1339.21667 469.716667,1339.75 C467.416667,1340.88333 466.266667,1343.1 466.266667,1346.4 L466.266667,1346.4 L466.266667,1350.55 C466.266667,1353.95 467.3,1356.3 469.366667,1357.6 C471.433333,1358.9 474.216667,1359.55 477.716667,1359.55 Z M477.166667,1354.4 C473.6,1354.4 471.816667,1352.88333 471.816667,1349.85 L471.816667,1349.85 L471.816667,1347.1 C471.816667,1346.23333 472.066667,1345.6 472.566667,1345.2 C473.066667,1344.8 473.716667,1344.6 474.516667,1344.6 C475.416667,1344.6 476.408333,1344.79167 477.491667,1345.175 C478.575,1345.55833 479.416667,1345.96667 480.016667,1346.4 L480.016667,1346.4 L480.016667,1354.15 C479.15,1354.31667 478.2,1354.4 477.166667,1354.4 Z M526.1,1332.1 L528.55,1328.95 C529.05,1328.31667 529.3,1327.68333 529.3,1327.05 C529.3,1326.21667 528.9,1325.6 528.1,1325.2 C527.9,1325.1 527.633333,1325.05 527.3,1325.05 C526.8,1325.05 526.308333,1325.18333 525.825,1325.45 C525.341667,1325.71667 524.983333,1326.13333 524.75,1326.7 L524.75,1326.7 L522.45,1332.1 L526.1,1332.1 Z M524.9,1359.55 C526.5,1359.55 529.1,1359.36667 532.7,1359 L532.7,1359 L532.7,1344.1 C532.7,1341.9 532.525,1340.1 532.175,1338.7 C531.825,1337.3 530.891667,1336.09167 529.375,1335.075 C527.858333,1334.05833 525.5,1333.55 522.3,1333.55 L522.3,1333.55 L521.85,1337.35 C523.416667,1337.35 524.7,1337.575 525.7,1338.025 C526.7,1338.475 527.2,1339.31667 527.2,1340.55 C526.466667,1340.15 525.5,1339.78333 524.3,1339.45 C523.1,1339.11667 521.883333,1338.95 520.65,1338.95 C519.25,1338.95 518,1339.21667 516.9,1339.75 C514.6,1340.88333 513.45,1343.1 513.45,1346.4 L513.45,1346.4 L513.45,1350.55 C513.45,1353.95 514.483333,1356.3 516.55,1357.6 C518.616667,1358.9 521.4,1359.55 524.9,1359.55 Z M524.35,1354.4 C520.783333,1354.4 519,1352.88333 519,1349.85 L519,1349.85 L519,1347.1 C519,1346.23333 519.25,1345.6 519.75,1345.2 C520.25,1344.8 520.9,1344.6 521.7,1344.6 C522.6,1344.6 523.591667,1344.79167 524.675,1345.175 C525.758333,1345.55833 526.6,1345.96667 527.2,1346.4 L527.2,1346.4 L527.2,1354.15 C526.333333,1354.31667 525.383333,1354.4 524.35,1354.4 Z M547.366667,1359 L547.366667,1342.9 C547.366667,1341.66667 547.8,1340.675 548.666667,1339.925 C549.533333,1339.175 550.583333,1338.8 551.816667,1338.8 C552.716667,1338.8 553.633333,1339.03333 554.566667,1339.5 L554.566667,1339.5 L555.866667,1334.15 L554.866667,1333.95 C553.266667,1333.61667 552.05,1333.45 551.216667,1333.45 C550.016667,1333.45 548.733333,1333.68333 547.366667,1334.15 L547.366667,1334.15 L546.966667,1333.95 L541.866667,1333.95 L541.866667,1359 L547.366667,1359 Z M569.383333,1359.6 C570.916667,1359.6 572.45,1359.4 573.983333,1359 C575.516667,1358.6 576.883333,1358.01667 578.083333,1357.25 L578.083333,1357.25 L576.083333,1352.5 C573.516667,1353.83333 571.466667,1354.5 569.933333,1354.5 C568.933333,1354.5 568.175,1354.24167 567.658333,1353.725 C567.141667,1353.20833 566.883333,1352.48333 566.883333,1351.55 L566.883333,1351.55 L566.883333,1350.15 L579.333333,1349.5 L579.333333,1341.9 C579.333333,1339.26667 578.558333,1337.20833 577.008333,1335.725 C575.458333,1334.24167 573.3,1333.5 570.533333,1333.5 C567.766667,1333.5 565.541667,1334.25 563.858333,1335.75 C562.175,1337.25 561.333333,1339.35 561.333333,1342.05 L561.333333,1342.05 L561.333333,1352.3 C561.333333,1354.73333 562.058333,1356.55833 563.508333,1357.775 C564.958333,1358.99167 566.916667,1359.6 569.383333,1359.6 Z M566.883333,1345.1 L566.883333,1342.1 C566.883333,1341.3 567.166667,1340.56667 567.733333,1339.9 C568.3,1339.23333 569.216667,1338.9 570.483333,1338.9 C571.416667,1338.9 572.2,1339.16667 572.833333,1339.7 C573.466667,1340.23333 573.783333,1341 573.783333,1342 L573.783333,1342 L573.783333,1344.65 L566.883333,1345.1 Z M598.75,1359.55 C600.35,1359.55 602.95,1359.36667 606.55,1359 L606.55,1359 L606.55,1344.1 C606.55,1341.9 606.375,1340.1 606.025,1338.7 C605.675,1337.3 604.741667,1336.09167 603.225,1335.075 C601.708333,1334.05833 599.35,1333.55 596.15,1333.55 L596.15,1333.55 L595.7,1337.35 C597.266667,1337.35 598.55,1337.575 599.55,1338.025 C600.55,1338.475 601.05,1339.31667 601.05,1340.55 C600.316667,1340.15 599.35,1339.78333 598.15,1339.45 C596.95,1339.11667 595.733333,1338.95 594.5,1338.95 C593.1,1338.95 591.85,1339.21667 590.75,1339.75 C588.45,1340.88333 587.3,1343.1 587.3,1346.4 L587.3,1346.4 L587.3,1350.55 C587.3,1353.95 588.333333,1356.3 590.4,1357.6 C592.466667,1358.9 595.25,1359.55 598.75,1359.55 Z M598.2,1354.4 C594.633333,1354.4 592.85,1352.88333 592.85,1349.85 L592.85,1349.85 L592.85,1347.1 C592.85,1346.23333 593.1,1345.6 593.6,1345.2 C594.1,1344.8 594.75,1344.6 595.55,1344.6 C596.45,1344.6 597.441667,1344.79167 598.525,1345.175 C599.608333,1345.55833 600.45,1345.96667 601.05,1346.4 L601.05,1346.4 L601.05,1354.15 C600.183333,1354.31667 599.233333,1354.4 598.2,1354.4 Z" id="Arrastratrayectoriaprofesionalaéstaárea"></path>
        </g>
    </g>
</svg>