<?xml version="1.0" encoding="UTF-8"?>
<svg width="612px" height="37px" viewBox="0 0 612 37" version="1.1" xmlns="http://www.w3.org/2000/svg" xmlns:xlink="http://www.w3.org/1999/xlink">
    <title>Arrastraskillsaéstaárea</title>
    <g id="Page-1" stroke="none" stroke-width="1" fill="none" fill-rule="evenodd">
        <g id="Artboard" transform="translate(-61.000000, -972.000000)" fill="#FCCCD2" fill-rule="nonzero">
            <path d="M67.35,1008 L69.3,998.85 L77.35,998.85 L79.4,1008 L85.95,1008 L77.1,973 L69.35,973 L61.15,1008 L67.35,1008 Z M76.05,993 L70.6,993 L73.2,982.2 L76.05,993 Z M99.1666667,1008 L99.1666667,991.9 C99.1666667,990.666667 99.6,989.675 100.466667,988.925 C101.333333,988.175 102.383333,987.8 103.616667,987.8 C104.516667,987.8 105.433333,988.033333 106.366667,988.5 L106.366667,988.5 L107.666667,983.15 L106.666667,982.95 C105.066667,982.616667 103.85,982.45 103.016667,982.45 C101.816667,982.45 100.533333,982.683333 99.1666667,983.15 L99.1666667,983.15 L98.7666667,982.95 L93.6666667,982.95 L93.6666667,1008 L99.1666667,1008 Z M120.033333,1008 L120.033333,991.9 C120.033333,990.666667 120.466667,989.675 121.333333,988.925 C122.2,988.175 123.25,987.8 124.483333,987.8 C125.383333,987.8 126.3,988.033333 127.233333,988.5 L127.233333,988.5 L128.533333,983.15 L127.533333,982.95 C125.933333,982.616667 124.716667,982.45 123.883333,982.45 C122.683333,982.45 121.4,982.683333 120.033333,983.15 L120.033333,983.15 L119.633333,982.95 L114.533333,982.95 L114.533333,1008 L120.033333,1008 Z M142.95,1008.55 C144.55,1008.55 147.15,1008.36667 150.75,1008 L150.75,1008 L150.75,993.1 C150.75,990.9 150.575,989.1 150.225,987.7 C149.875,986.3 148.941667,985.091667 147.425,984.075 C145.908333,983.058333 143.55,982.55 140.35,982.55 L140.35,982.55 L139.9,986.35 C141.466667,986.35 142.75,986.575 143.75,987.025 C144.75,987.475 145.25,988.316667 145.25,989.55 C144.516667,989.15 143.55,988.783333 142.35,988.45 C141.15,988.116667 139.933333,987.95 138.7,987.95 C137.3,987.95 136.05,988.216667 134.95,988.75 C132.65,989.883333 131.5,992.1 131.5,995.4 L131.5,995.4 L131.5,999.55 C131.5,1002.95 132.533333,1005.3 134.6,1006.6 C136.666667,1007.9 139.45,1008.55 142.95,1008.55 Z M142.4,1003.4 C138.833333,1003.4 137.05,1001.88333 137.05,998.85 L137.05,998.85 L137.05,996.1 C137.05,995.233333 137.3,994.6 137.8,994.2 C138.3,993.8 138.95,993.6 139.75,993.6 C140.65,993.6 141.641667,993.791667 142.725,994.175 C143.808333,994.558333 144.65,994.966667 145.25,995.4 L145.25,995.4 L145.25,1003.15 C144.383333,1003.31667 143.433333,1003.4 142.4,1003.4 Z M167.766667,1008.75 C169.833333,1008.75 171.558333,1008.38333 172.941667,1007.65 C174.325,1006.91667 175.35,1005.95833 176.016667,1004.775 C176.683333,1003.59167 177.016667,1002.31667 177.016667,1000.95 C177.016667,999.15 176.608333,997.675 175.791667,996.525 C174.975,995.375 174.008333,994.508333 172.891667,993.925 C171.775,993.341667 170.4,992.75 168.766667,992.15 C167.6,991.716667 166.716667,991.341667 166.116667,991.025 C165.516667,990.708333 165.166667,990.316667 165.066667,989.85 C165,989.65 164.966667,989.45 164.966667,989.25 C164.966667,988.25 165.866667,987.75 167.666667,987.75 C168.5,987.75 169.216667,987.833333 169.816667,988 C170.416667,988.166667 170.858333,988.341667 171.141667,988.525 C171.425,988.708333 171.6,988.833333 171.666667,988.9 L171.666667,988.9 L173.266667,983.8 C173.166667,983.733333 172.883333,983.583333 172.416667,983.35 C171.95,983.116667 171.308333,982.891667 170.491667,982.675 C169.675,982.458333 168.733333,982.35 167.666667,982.35 C165.6,982.35 163.908333,982.725 162.591667,983.475 C161.275,984.225 160.341667,985.175 159.791667,986.325 C159.241667,987.475 159.016667,988.616667 159.116667,989.75 C159.25,991.25 159.683333,992.466667 160.416667,993.4 C161.15,994.333333 161.983333,995.033333 162.916667,995.5 C163.85,995.966667 165.033333,996.433333 166.466667,996.9 C168.133333,997.5 169.341667,998.05 170.091667,998.55 C170.841667,999.05 171.216667,999.816667 171.216667,1000.85 C171.216667,1001.58333 170.916667,1002.225 170.316667,1002.775 C169.716667,1003.325 168.866667,1003.6 167.766667,1003.6 C166.5,1003.6 165.558333,1003.33333 164.941667,1002.8 C164.325,1002.26667 164.016667,1001.7 164.016667,1001.1 L164.016667,1001.1 L158.516667,1001.65 C158.583333,1002.95 158.975,1004.13333 159.691667,1005.2 C160.408333,1006.26667 161.458333,1007.125 162.841667,1007.775 C164.225,1008.425 165.866667,1008.75 167.766667,1008.75 Z M192.233333,1008.65 L193.883333,1004.25 C192.716667,1004.25 191.816667,1004.05833 191.183333,1003.675 C190.55,1003.29167 190.233333,1002.53333 190.233333,1001.4 L190.233333,1001.4 L190.233333,988.1 L193.783333,988.1 L194.983333,982.95 L190.233333,982.95 L190.233333,973 L184.633333,973 L184.633333,1001.4 C184.633333,1006.13333 187.166667,1008.55 192.233333,1008.65 L192.233333,1008.65 Z M208.85,1008 L208.85,991.9 C208.85,990.666667 209.283333,989.675 210.15,988.925 C211.016667,988.175 212.066667,987.8 213.3,987.8 C214.2,987.8 215.116667,988.033333 216.05,988.5 L216.05,988.5 L217.35,983.15 L216.35,982.95 C214.75,982.616667 213.533333,982.45 212.7,982.45 C211.5,982.45 210.216667,982.683333 208.85,983.15 L208.85,983.15 L208.45,982.95 L203.35,982.95 L203.35,1008 L208.85,1008 Z M231.766667,1008.55 C233.366667,1008.55 235.966667,1008.36667 239.566667,1008 L239.566667,1008 L239.566667,993.1 C239.566667,990.9 239.391667,989.1 239.041667,987.7 C238.691667,986.3 237.758333,985.091667 236.241667,984.075 C234.725,983.058333 232.366667,982.55 229.166667,982.55 L229.166667,982.55 L228.716667,986.35 C230.283333,986.35 231.566667,986.575 232.566667,987.025 C233.566667,987.475 234.066667,988.316667 234.066667,989.55 C233.333333,989.15 232.366667,988.783333 231.166667,988.45 C229.966667,988.116667 228.75,987.95 227.516667,987.95 C226.116667,987.95 224.866667,988.216667 223.766667,988.75 C221.466667,989.883333 220.316667,992.1 220.316667,995.4 L220.316667,995.4 L220.316667,999.55 C220.316667,1002.95 221.35,1005.3 223.416667,1006.6 C225.483333,1007.9 228.266667,1008.55 231.766667,1008.55 Z M231.216667,1003.4 C227.65,1003.4 225.866667,1001.88333 225.866667,998.85 L225.866667,998.85 L225.866667,996.1 C225.866667,995.233333 226.116667,994.6 226.616667,994.2 C227.116667,993.8 227.766667,993.6 228.566667,993.6 C229.466667,993.6 230.458333,993.791667 231.541667,994.175 C232.625,994.558333 233.466667,994.966667 234.066667,995.4 L234.066667,995.4 L234.066667,1003.15 C233.2,1003.31667 232.25,1003.4 231.216667,1003.4 Z M274.65,1008.75 C276.716667,1008.75 278.441667,1008.38333 279.825,1007.65 C281.208333,1006.91667 282.233333,1005.95833 282.9,1004.775 C283.566667,1003.59167 283.9,1002.31667 283.9,1000.95 C283.9,999.15 283.491667,997.675 282.675,996.525 C281.858333,995.375 280.891667,994.508333 279.775,993.925 C278.658333,993.341667 277.283333,992.75 275.65,992.15 C274.483333,991.716667 273.6,991.341667 273,991.025 C272.4,990.708333 272.05,990.316667 271.95,989.85 C271.883333,989.65 271.85,989.45 271.85,989.25 C271.85,988.25 272.75,987.75 274.55,987.75 C275.383333,987.75 276.1,987.833333 276.7,988 C277.3,988.166667 277.741667,988.341667 278.025,988.525 C278.308333,988.708333 278.483333,988.833333 278.55,988.9 L278.55,988.9 L280.15,983.8 C280.05,983.733333 279.766667,983.583333 279.3,983.35 C278.833333,983.116667 278.191667,982.891667 277.375,982.675 C276.558333,982.458333 275.616667,982.35 274.55,982.35 C272.483333,982.35 270.791667,982.725 269.475,983.475 C268.158333,984.225 267.225,985.175 266.675,986.325 C266.125,987.475 265.9,988.616667 266,989.75 C266.133333,991.25 266.566667,992.466667 267.3,993.4 C268.033333,994.333333 268.866667,995.033333 269.8,995.5 C270.733333,995.966667 271.916667,996.433333 273.35,996.9 C275.016667,997.5 276.225,998.05 276.975,998.55 C277.725,999.05 278.1,999.816667 278.1,1000.85 C278.1,1001.58333 277.8,1002.225 277.2,1002.775 C276.6,1003.325 275.75,1003.6 274.65,1003.6 C273.383333,1003.6 272.441667,1003.33333 271.825,1002.8 C271.208333,1002.26667 270.9,1001.7 270.9,1001.1 L270.9,1001.1 L265.4,1001.65 C265.466667,1002.95 265.858333,1004.13333 266.575,1005.2 C267.291667,1006.26667 268.341667,1007.125 269.725,1007.775 C271.108333,1008.425 272.75,1008.75 274.65,1008.75 Z M298.016667,1008 L298.016667,996 L298.716667,995.3 L306.216667,1008 L313.116667,1008 C310.616667,1004.03333 307.583333,999.083333 304.016667,993.15 C303.55,992.316667 303.2,991.733333 302.966667,991.4 L302.966667,991.4 L309.516667,985.85 L305.466667,982 L298.016667,988.9 L298.016667,973 L292.516667,973 L292.516667,1008 L298.016667,1008 Z M324.083333,978.4 C324.85,978.4 325.525,978.1 326.108333,977.5 C326.691667,976.9 326.983333,976.2 326.983333,975.4 C326.983333,974.633333 326.691667,973.958333 326.108333,973.375 C325.525,972.791667 324.85,972.5 324.083333,972.5 C323.283333,972.5 322.583333,972.791667 321.983333,973.375 C321.383333,973.958333 321.083333,974.633333 321.083333,975.4 C321.083333,976.2 321.383333,976.9 321.983333,977.5 C322.583333,978.1 323.283333,978.4 324.083333,978.4 Z M326.683333,1008 L326.683333,982.95 L321.183333,982.95 L321.183333,1008 L326.683333,1008 Z M344.55,1008 L344.55,973 L339.05,973 L339.05,1008 L344.55,1008 Z M362.116667,1008 L362.116667,973 L356.616667,973 L356.616667,1008 L362.116667,1008 Z M381.333333,1008.75 C383.4,1008.75 385.125,1008.38333 386.508333,1007.65 C387.891667,1006.91667 388.916667,1005.95833 389.583333,1004.775 C390.25,1003.59167 390.583333,1002.31667 390.583333,1000.95 C390.583333,999.15 390.175,997.675 389.358333,996.525 C388.541667,995.375 387.575,994.508333 386.458333,993.925 C385.341667,993.341667 383.966667,992.75 382.333333,992.15 C381.166667,991.716667 380.283333,991.341667 379.683333,991.025 C379.083333,990.708333 378.733333,990.316667 378.633333,989.85 C378.566667,989.65 378.533333,989.45 378.533333,989.25 C378.533333,988.25 379.433333,987.75 381.233333,987.75 C382.066667,987.75 382.783333,987.833333 383.383333,988 C383.983333,988.166667 384.425,988.341667 384.708333,988.525 C384.991667,988.708333 385.166667,988.833333 385.233333,988.9 L385.233333,988.9 L386.833333,983.8 C386.733333,983.733333 386.45,983.583333 385.983333,983.35 C385.516667,983.116667 384.875,982.891667 384.058333,982.675 C383.241667,982.458333 382.3,982.35 381.233333,982.35 C379.166667,982.35 377.475,982.725 376.158333,983.475 C374.841667,984.225 373.908333,985.175 373.358333,986.325 C372.808333,987.475 372.583333,988.616667 372.683333,989.75 C372.816667,991.25 373.25,992.466667 373.983333,993.4 C374.716667,994.333333 375.55,995.033333 376.483333,995.5 C377.416667,995.966667 378.6,996.433333 380.033333,996.9 C381.7,997.5 382.908333,998.05 383.658333,998.55 C384.408333,999.05 384.783333,999.816667 384.783333,1000.85 C384.783333,1001.58333 384.483333,1002.225 383.883333,1002.775 C383.283333,1003.325 382.433333,1003.6 381.333333,1003.6 C380.066667,1003.6 379.125,1003.33333 378.508333,1002.8 C377.891667,1002.26667 377.583333,1001.7 377.583333,1001.1 L377.583333,1001.1 L372.083333,1001.65 C372.15,1002.95 372.541667,1004.13333 373.258333,1005.2 C373.975,1006.26667 375.025,1007.125 376.408333,1007.775 C377.791667,1008.425 379.433333,1008.75 381.333333,1008.75 Z M427.366667,1008.55 C428.966667,1008.55 431.566667,1008.36667 435.166667,1008 L435.166667,1008 L435.166667,993.1 C435.166667,990.9 434.991667,989.1 434.641667,987.7 C434.291667,986.3 433.358333,985.091667 431.841667,984.075 C430.325,983.058333 427.966667,982.55 424.766667,982.55 L424.766667,982.55 L424.316667,986.35 C425.883333,986.35 427.166667,986.575 428.166667,987.025 C429.166667,987.475 429.666667,988.316667 429.666667,989.55 C428.933333,989.15 427.966667,988.783333 426.766667,988.45 C425.566667,988.116667 424.35,987.95 423.116667,987.95 C421.716667,987.95 420.466667,988.216667 419.366667,988.75 C417.066667,989.883333 415.916667,992.1 415.916667,995.4 L415.916667,995.4 L415.916667,999.55 C415.916667,1002.95 416.95,1005.3 419.016667,1006.6 C421.083333,1007.9 423.866667,1008.55 427.366667,1008.55 Z M426.816667,1003.4 C423.25,1003.4 421.466667,1001.88333 421.466667,998.85 L421.466667,998.85 L421.466667,996.1 C421.466667,995.233333 421.716667,994.6 422.216667,994.2 C422.716667,993.8 423.366667,993.6 424.166667,993.6 C425.066667,993.6 426.058333,993.791667 427.141667,994.175 C428.225,994.558333 429.066667,994.966667 429.666667,995.4 L429.666667,995.4 L429.666667,1003.15 C428.8,1003.31667 427.85,1003.4 426.816667,1003.4 Z M474.85,981.1 L477.3,977.95 C477.8,977.316667 478.05,976.683333 478.05,976.05 C478.05,975.216667 477.65,974.6 476.85,974.2 C476.65,974.1 476.383333,974.05 476.05,974.05 C475.55,974.05 475.058333,974.183333 474.575,974.45 C474.091667,974.716667 473.733333,975.133333 473.5,975.7 L473.5,975.7 L471.2,981.1 L474.85,981.1 Z M471.15,1008.6 C472.683333,1008.6 474.216667,1008.4 475.75,1008 C477.283333,1007.6 478.65,1007.01667 479.85,1006.25 L479.85,1006.25 L477.85,1001.5 C475.283333,1002.83333 473.233333,1003.5 471.7,1003.5 C470.7,1003.5 469.941667,1003.24167 469.425,1002.725 C468.908333,1002.20833 468.65,1001.48333 468.65,1000.55 L468.65,1000.55 L468.65,999.15 L481.1,998.5 L481.1,990.9 C481.1,988.266667 480.325,986.208333 478.775,984.725 C477.225,983.241667 475.066667,982.5 472.3,982.5 C469.533333,982.5 467.308333,983.25 465.625,984.75 C463.941667,986.25 463.1,988.35 463.1,991.05 L463.1,991.05 L463.1,1001.3 C463.1,1003.73333 463.825,1005.55833 465.275,1006.775 C466.725,1007.99167 468.683333,1008.6 471.15,1008.6 Z M468.65,994.1 L468.65,991.1 C468.65,990.3 468.933333,989.566667 469.5,988.9 C470.066667,988.233333 470.983333,987.9 472.25,987.9 C473.183333,987.9 473.966667,988.166667 474.6,988.7 C475.233333,989.233333 475.55,990 475.55,991 L475.55,991 L475.55,993.65 L468.65,994.1 Z M498.266667,1008.75 C500.333333,1008.75 502.058333,1008.38333 503.441667,1007.65 C504.825,1006.91667 505.85,1005.95833 506.516667,1004.775 C507.183333,1003.59167 507.516667,1002.31667 507.516667,1000.95 C507.516667,999.15 507.108333,997.675 506.291667,996.525 C505.475,995.375 504.508333,994.508333 503.391667,993.925 C502.275,993.341667 500.9,992.75 499.266667,992.15 C498.1,991.716667 497.216667,991.341667 496.616667,991.025 C496.016667,990.708333 495.666667,990.316667 495.566667,989.85 C495.5,989.65 495.466667,989.45 495.466667,989.25 C495.466667,988.25 496.366667,987.75 498.166667,987.75 C499,987.75 499.716667,987.833333 500.316667,988 C500.916667,988.166667 501.358333,988.341667 501.641667,988.525 C501.925,988.708333 502.1,988.833333 502.166667,988.9 L502.166667,988.9 L503.766667,983.8 C503.666667,983.733333 503.383333,983.583333 502.916667,983.35 C502.45,983.116667 501.808333,982.891667 500.991667,982.675 C500.175,982.458333 499.233333,982.35 498.166667,982.35 C496.1,982.35 494.408333,982.725 493.091667,983.475 C491.775,984.225 490.841667,985.175 490.291667,986.325 C489.741667,987.475 489.516667,988.616667 489.616667,989.75 C489.75,991.25 490.183333,992.466667 490.916667,993.4 C491.65,994.333333 492.483333,995.033333 493.416667,995.5 C494.35,995.966667 495.533333,996.433333 496.966667,996.9 C498.633333,997.5 499.841667,998.05 500.591667,998.55 C501.341667,999.05 501.716667,999.816667 501.716667,1000.85 C501.716667,1001.58333 501.416667,1002.225 500.816667,1002.775 C500.216667,1003.325 499.366667,1003.6 498.266667,1003.6 C497,1003.6 496.058333,1003.33333 495.441667,1002.8 C494.825,1002.26667 494.516667,1001.7 494.516667,1001.1 L494.516667,1001.1 L489.016667,1001.65 C489.083333,1002.95 489.475,1004.13333 490.191667,1005.2 C490.908333,1006.26667 491.958333,1007.125 493.341667,1007.775 C494.725,1008.425 496.366667,1008.75 498.266667,1008.75 Z M522.733333,1008.65 L524.383333,1004.25 C523.216667,1004.25 522.316667,1004.05833 521.683333,1003.675 C521.05,1003.29167 520.733333,1002.53333 520.733333,1001.4 L520.733333,1001.4 L520.733333,988.1 L524.283333,988.1 L525.483333,982.95 L520.733333,982.95 L520.733333,973 L515.133333,973 L515.133333,1001.4 C515.133333,1006.13333 517.666667,1008.55 522.733333,1008.65 L522.733333,1008.65 Z M544.1,1008.55 C545.7,1008.55 548.3,1008.36667 551.9,1008 L551.9,1008 L551.9,993.1 C551.9,990.9 551.725,989.1 551.375,987.7 C551.025,986.3 550.091667,985.091667 548.575,984.075 C547.058333,983.058333 544.7,982.55 541.5,982.55 L541.5,982.55 L541.05,986.35 C542.616667,986.35 543.9,986.575 544.9,987.025 C545.9,987.475 546.4,988.316667 546.4,989.55 C545.666667,989.15 544.7,988.783333 543.5,988.45 C542.3,988.116667 541.083333,987.95 539.85,987.95 C538.45,987.95 537.2,988.216667 536.1,988.75 C533.8,989.883333 532.65,992.1 532.65,995.4 L532.65,995.4 L532.65,999.55 C532.65,1002.95 533.683333,1005.3 535.75,1006.6 C537.816667,1007.9 540.6,1008.55 544.1,1008.55 Z M543.55,1003.4 C539.983333,1003.4 538.2,1001.88333 538.2,998.85 L538.2,998.85 L538.2,996.1 C538.2,995.233333 538.45,994.6 538.95,994.2 C539.45,993.8 540.1,993.6 540.9,993.6 C541.8,993.6 542.791667,993.791667 543.875,994.175 C544.958333,994.558333 545.8,994.966667 546.4,995.4 L546.4,995.4 L546.4,1003.15 C545.533333,1003.31667 544.583333,1003.4 543.55,1003.4 Z M592.483333,981.1 L594.933333,977.95 C595.433333,977.316667 595.683333,976.683333 595.683333,976.05 C595.683333,975.216667 595.283333,974.6 594.483333,974.2 C594.283333,974.1 594.016667,974.05 593.683333,974.05 C593.183333,974.05 592.691667,974.183333 592.208333,974.45 C591.725,974.716667 591.366667,975.133333 591.133333,975.7 L591.133333,975.7 L588.833333,981.1 L592.483333,981.1 Z M591.283333,1008.55 C592.883333,1008.55 595.483333,1008.36667 599.083333,1008 L599.083333,1008 L599.083333,993.1 C599.083333,990.9 598.908333,989.1 598.558333,987.7 C598.208333,986.3 597.275,985.091667 595.758333,984.075 C594.241667,983.058333 591.883333,982.55 588.683333,982.55 L588.683333,982.55 L588.233333,986.35 C589.8,986.35 591.083333,986.575 592.083333,987.025 C593.083333,987.475 593.583333,988.316667 593.583333,989.55 C592.85,989.15 591.883333,988.783333 590.683333,988.45 C589.483333,988.116667 588.266667,987.95 587.033333,987.95 C585.633333,987.95 584.383333,988.216667 583.283333,988.75 C580.983333,989.883333 579.833333,992.1 579.833333,995.4 L579.833333,995.4 L579.833333,999.55 C579.833333,1002.95 580.866667,1005.3 582.933333,1006.6 C585,1007.9 587.783333,1008.55 591.283333,1008.55 Z M590.733333,1003.4 C587.166667,1003.4 585.383333,1001.88333 585.383333,998.85 L585.383333,998.85 L585.383333,996.1 C585.383333,995.233333 585.633333,994.6 586.133333,994.2 C586.633333,993.8 587.283333,993.6 588.083333,993.6 C588.983333,993.6 589.975,993.791667 591.058333,994.175 C592.141667,994.558333 592.983333,994.966667 593.583333,995.4 L593.583333,995.4 L593.583333,1003.15 C592.716667,1003.31667 591.766667,1003.4 590.733333,1003.4 Z M613.75,1008 L613.75,991.9 C613.75,990.666667 614.183333,989.675 615.05,988.925 C615.916667,988.175 616.966667,987.8 618.2,987.8 C619.1,987.8 620.016667,988.033333 620.95,988.5 L620.95,988.5 L622.25,983.15 L621.25,982.95 C619.65,982.616667 618.433333,982.45 617.6,982.45 C616.4,982.45 615.116667,982.683333 613.75,983.15 L613.75,983.15 L613.35,982.95 L608.25,982.95 L608.25,1008 L613.75,1008 Z M635.766667,1008.6 C637.3,1008.6 638.833333,1008.4 640.366667,1008 C641.9,1007.6 643.266667,1007.01667 644.466667,1006.25 L644.466667,1006.25 L642.466667,1001.5 C639.9,1002.83333 637.85,1003.5 636.316667,1003.5 C635.316667,1003.5 634.558333,1003.24167 634.041667,1002.725 C633.525,1002.20833 633.266667,1001.48333 633.266667,1000.55 L633.266667,1000.55 L633.266667,999.15 L645.716667,998.5 L645.716667,990.9 C645.716667,988.266667 644.941667,986.208333 643.391667,984.725 C641.841667,983.241667 639.683333,982.5 636.916667,982.5 C634.15,982.5 631.925,983.25 630.241667,984.75 C628.558333,986.25 627.716667,988.35 627.716667,991.05 L627.716667,991.05 L627.716667,1001.3 C627.716667,1003.73333 628.441667,1005.55833 629.891667,1006.775 C631.341667,1007.99167 633.3,1008.6 635.766667,1008.6 Z M633.266667,994.1 L633.266667,991.1 C633.266667,990.3 633.55,989.566667 634.116667,988.9 C634.683333,988.233333 635.6,987.9 636.866667,987.9 C637.8,987.9 638.583333,988.166667 639.216667,988.7 C639.85,989.233333 640.166667,990 640.166667,991 L640.166667,991 L640.166667,993.65 L633.266667,994.1 Z M665.133333,1008.55 C666.733333,1008.55 669.333333,1008.36667 672.933333,1008 L672.933333,1008 L672.933333,993.1 C672.933333,990.9 672.758333,989.1 672.408333,987.7 C672.058333,986.3 671.125,985.091667 669.608333,984.075 C668.091667,983.058333 665.733333,982.55 662.533333,982.55 L662.533333,982.55 L662.083333,986.35 C663.65,986.35 664.933333,986.575 665.933333,987.025 C666.933333,987.475 667.433333,988.316667 667.433333,989.55 C666.7,989.15 665.733333,988.783333 664.533333,988.45 C663.333333,988.116667 662.116667,987.95 660.883333,987.95 C659.483333,987.95 658.233333,988.216667 657.133333,988.75 C654.833333,989.883333 653.683333,992.1 653.683333,995.4 L653.683333,995.4 L653.683333,999.55 C653.683333,1002.95 654.716667,1005.3 656.783333,1006.6 C658.85,1007.9 661.633333,1008.55 665.133333,1008.55 Z M664.583333,1003.4 C661.016667,1003.4 659.233333,1001.88333 659.233333,998.85 L659.233333,998.85 L659.233333,996.1 C659.233333,995.233333 659.483333,994.6 659.983333,994.2 C660.483333,993.8 661.133333,993.6 661.933333,993.6 C662.833333,993.6 663.825,993.791667 664.908333,994.175 C665.991667,994.558333 666.833333,994.966667 667.433333,995.4 L667.433333,995.4 L667.433333,1003.15 C666.566667,1003.31667 665.616667,1003.4 664.583333,1003.4 Z" id="Arrastraskillsaéstaárea"></path>
        </g>
    </g>
</svg>