<?xml version="1.0" encoding="UTF-8"?>
<svg width="608px" height="36px" viewBox="0 0 608 36" version="1.1" xmlns="http://www.w3.org/2000/svg" xmlns:xlink="http://www.w3.org/1999/xlink">
    <title>Arrastraredesaéstaárea</title>
    <g id="Page-1" stroke="none" stroke-width="1" fill="none" fill-rule="evenodd">
        <g id="Artboard" transform="translate(-61.000000, -1070.000000)" fill="#FCCCD2" fill-rule="nonzero">
            <path d="M67.7083333,1105 L69.6583333,1095.85 L77.7083333,1095.85 L79.7583333,1105 L86.3083333,1105 L77.4583333,1070 L69.7083333,1070 L61.5083333,1105 L67.7083333,1105 Z M76.4083333,1090 L70.9583333,1090 L73.5583333,1079.2 L76.4083333,1090 Z M99.525,1105 L99.525,1088.9 C99.525,1087.66667 99.9583333,1086.675 100.825,1085.925 C101.691667,1085.175 102.741667,1084.8 103.975,1084.8 C104.875,1084.8 105.791667,1085.03333 106.725,1085.5 L106.725,1085.5 L108.025,1080.15 L107.025,1079.95 C105.425,1079.61667 104.208333,1079.45 103.375,1079.45 C102.175,1079.45 100.891667,1079.68333 99.525,1080.15 L99.525,1080.15 L99.125,1079.95 L94.025,1079.95 L94.025,1105 L99.525,1105 Z M120.391667,1105 L120.391667,1088.9 C120.391667,1087.66667 120.825,1086.675 121.691667,1085.925 C122.558333,1085.175 123.608333,1084.8 124.841667,1084.8 C125.741667,1084.8 126.658333,1085.03333 127.591667,1085.5 L127.591667,1085.5 L128.891667,1080.15 L127.891667,1079.95 C126.291667,1079.61667 125.075,1079.45 124.241667,1079.45 C123.041667,1079.45 121.758333,1079.68333 120.391667,1080.15 L120.391667,1080.15 L119.991667,1079.95 L114.891667,1079.95 L114.891667,1105 L120.391667,1105 Z M143.308333,1105.55 C144.908333,1105.55 147.508333,1105.36667 151.108333,1105 L151.108333,1105 L151.108333,1090.1 C151.108333,1087.9 150.933333,1086.1 150.583333,1084.7 C150.233333,1083.3 149.3,1082.09167 147.783333,1081.075 C146.266667,1080.05833 143.908333,1079.55 140.708333,1079.55 L140.708333,1079.55 L140.258333,1083.35 C141.825,1083.35 143.108333,1083.575 144.108333,1084.025 C145.108333,1084.475 145.608333,1085.31667 145.608333,1086.55 C144.875,1086.15 143.908333,1085.78333 142.708333,1085.45 C141.508333,1085.11667 140.291667,1084.95 139.058333,1084.95 C137.658333,1084.95 136.408333,1085.21667 135.308333,1085.75 C133.008333,1086.88333 131.858333,1089.1 131.858333,1092.4 L131.858333,1092.4 L131.858333,1096.55 C131.858333,1099.95 132.891667,1102.3 134.958333,1103.6 C137.025,1104.9 139.808333,1105.55 143.308333,1105.55 Z M142.758333,1100.4 C139.191667,1100.4 137.408333,1098.88333 137.408333,1095.85 L137.408333,1095.85 L137.408333,1093.1 C137.408333,1092.23333 137.658333,1091.6 138.158333,1091.2 C138.658333,1090.8 139.308333,1090.6 140.108333,1090.6 C141.008333,1090.6 142,1090.79167 143.083333,1091.175 C144.166667,1091.55833 145.008333,1091.96667 145.608333,1092.4 L145.608333,1092.4 L145.608333,1100.15 C144.741667,1100.31667 143.791667,1100.4 142.758333,1100.4 Z M168.125,1105.75 C170.191667,1105.75 171.916667,1105.38333 173.3,1104.65 C174.683333,1103.91667 175.708333,1102.95833 176.375,1101.775 C177.041667,1100.59167 177.375,1099.31667 177.375,1097.95 C177.375,1096.15 176.966667,1094.675 176.15,1093.525 C175.333333,1092.375 174.366667,1091.50833 173.25,1090.925 C172.133333,1090.34167 170.758333,1089.75 169.125,1089.15 C167.958333,1088.71667 167.075,1088.34167 166.475,1088.025 C165.875,1087.70833 165.525,1087.31667 165.425,1086.85 C165.358333,1086.65 165.325,1086.45 165.325,1086.25 C165.325,1085.25 166.225,1084.75 168.025,1084.75 C168.858333,1084.75 169.575,1084.83333 170.175,1085 C170.775,1085.16667 171.216667,1085.34167 171.5,1085.525 C171.783333,1085.70833 171.958333,1085.83333 172.025,1085.9 L172.025,1085.9 L173.625,1080.8 C173.525,1080.73333 173.241667,1080.58333 172.775,1080.35 C172.308333,1080.11667 171.666667,1079.89167 170.85,1079.675 C170.033333,1079.45833 169.091667,1079.35 168.025,1079.35 C165.958333,1079.35 164.266667,1079.725 162.95,1080.475 C161.633333,1081.225 160.7,1082.175 160.15,1083.325 C159.6,1084.475 159.375,1085.61667 159.475,1086.75 C159.608333,1088.25 160.041667,1089.46667 160.775,1090.4 C161.508333,1091.33333 162.341667,1092.03333 163.275,1092.5 C164.208333,1092.96667 165.391667,1093.43333 166.825,1093.9 C168.491667,1094.5 169.7,1095.05 170.45,1095.55 C171.2,1096.05 171.575,1096.81667 171.575,1097.85 C171.575,1098.58333 171.275,1099.225 170.675,1099.775 C170.075,1100.325 169.225,1100.6 168.125,1100.6 C166.858333,1100.6 165.916667,1100.33333 165.3,1099.8 C164.683333,1099.26667 164.375,1098.7 164.375,1098.1 L164.375,1098.1 L158.875,1098.65 C158.941667,1099.95 159.333333,1101.13333 160.05,1102.2 C160.766667,1103.26667 161.816667,1104.125 163.2,1104.775 C164.583333,1105.425 166.225,1105.75 168.125,1105.75 Z M192.591667,1105.65 L194.241667,1101.25 C193.075,1101.25 192.175,1101.05833 191.541667,1100.675 C190.908333,1100.29167 190.591667,1099.53333 190.591667,1098.4 L190.591667,1098.4 L190.591667,1085.1 L194.141667,1085.1 L195.341667,1079.95 L190.591667,1079.95 L190.591667,1070 L184.991667,1070 L184.991667,1098.4 C184.991667,1103.13333 187.525,1105.55 192.591667,1105.65 L192.591667,1105.65 Z M209.208333,1105 L209.208333,1088.9 C209.208333,1087.66667 209.641667,1086.675 210.508333,1085.925 C211.375,1085.175 212.425,1084.8 213.658333,1084.8 C214.558333,1084.8 215.475,1085.03333 216.408333,1085.5 L216.408333,1085.5 L217.708333,1080.15 L216.708333,1079.95 C215.108333,1079.61667 213.891667,1079.45 213.058333,1079.45 C211.858333,1079.45 210.575,1079.68333 209.208333,1080.15 L209.208333,1080.15 L208.808333,1079.95 L203.708333,1079.95 L203.708333,1105 L209.208333,1105 Z M232.125,1105.55 C233.725,1105.55 236.325,1105.36667 239.925,1105 L239.925,1105 L239.925,1090.1 C239.925,1087.9 239.75,1086.1 239.4,1084.7 C239.05,1083.3 238.116667,1082.09167 236.6,1081.075 C235.083333,1080.05833 232.725,1079.55 229.525,1079.55 L229.525,1079.55 L229.075,1083.35 C230.641667,1083.35 231.925,1083.575 232.925,1084.025 C233.925,1084.475 234.425,1085.31667 234.425,1086.55 C233.691667,1086.15 232.725,1085.78333 231.525,1085.45 C230.325,1085.11667 229.108333,1084.95 227.875,1084.95 C226.475,1084.95 225.225,1085.21667 224.125,1085.75 C221.825,1086.88333 220.675,1089.1 220.675,1092.4 L220.675,1092.4 L220.675,1096.55 C220.675,1099.95 221.708333,1102.3 223.775,1103.6 C225.841667,1104.9 228.625,1105.55 232.125,1105.55 Z M231.575,1100.4 C228.008333,1100.4 226.225,1098.88333 226.225,1095.85 L226.225,1095.85 L226.225,1093.1 C226.225,1092.23333 226.475,1091.6 226.975,1091.2 C227.475,1090.8 228.125,1090.6 228.925,1090.6 C229.825,1090.6 230.816667,1090.79167 231.9,1091.175 C232.983333,1091.55833 233.825,1091.96667 234.425,1092.4 L234.425,1092.4 L234.425,1100.15 C233.558333,1100.31667 232.608333,1100.4 231.575,1100.4 Z M272.508333,1105 L272.508333,1088.9 C272.508333,1087.66667 272.941667,1086.675 273.808333,1085.925 C274.675,1085.175 275.725,1084.8 276.958333,1084.8 C277.858333,1084.8 278.775,1085.03333 279.708333,1085.5 L279.708333,1085.5 L281.008333,1080.15 L280.008333,1079.95 C278.408333,1079.61667 277.191667,1079.45 276.358333,1079.45 C275.158333,1079.45 273.875,1079.68333 272.508333,1080.15 L272.508333,1080.15 L272.108333,1079.95 L267.008333,1079.95 L267.008333,1105 L272.508333,1105 Z M294.525,1105.6 C296.058333,1105.6 297.591667,1105.4 299.125,1105 C300.658333,1104.6 302.025,1104.01667 303.225,1103.25 L303.225,1103.25 L301.225,1098.5 C298.658333,1099.83333 296.608333,1100.5 295.075,1100.5 C294.075,1100.5 293.316667,1100.24167 292.8,1099.725 C292.283333,1099.20833 292.025,1098.48333 292.025,1097.55 L292.025,1097.55 L292.025,1096.15 L304.475,1095.5 L304.475,1087.9 C304.475,1085.26667 303.7,1083.20833 302.15,1081.725 C300.6,1080.24167 298.441667,1079.5 295.675,1079.5 C292.908333,1079.5 290.683333,1080.25 289,1081.75 C287.316667,1083.25 286.475,1085.35 286.475,1088.05 L286.475,1088.05 L286.475,1098.3 C286.475,1100.73333 287.2,1102.55833 288.65,1103.775 C290.1,1104.99167 292.058333,1105.6 294.525,1105.6 Z M292.025,1091.1 L292.025,1088.1 C292.025,1087.3 292.308333,1086.56667 292.875,1085.9 C293.441667,1085.23333 294.358333,1084.9 295.625,1084.9 C296.558333,1084.9 297.341667,1085.16667 297.975,1085.7 C298.608333,1086.23333 298.925,1087 298.925,1088 L298.925,1088 L298.925,1090.65 L292.025,1091.1 Z M325.091667,1105.6 C326.325,1105.6 328.025,1105.48333 330.191667,1105.25 L330.191667,1105.25 L332.941667,1105 L332.941667,1070 L327.491667,1070 L327.491667,1080.1 C326.425,1079.7 325.108333,1079.5 323.541667,1079.5 C321.708333,1079.5 320.108333,1079.83333 318.741667,1080.5 C315.908333,1081.8 314.491667,1084.2 314.491667,1087.7 L314.491667,1087.7 L314.491667,1097.15 C314.491667,1098.85 314.841667,1100.28333 315.541667,1101.45 C316.241667,1102.61667 317.191667,1103.5 318.391667,1104.1 C319.458333,1104.63333 320.533333,1105.01667 321.616667,1105.25 C322.7,1105.48333 323.858333,1105.6 325.091667,1105.6 Z M324.891667,1100.5 C323.458333,1100.5 322.275,1100.21667 321.341667,1099.65 C320.408333,1099.08333 319.941667,1098.36667 319.941667,1097.5 L319.941667,1097.5 L319.941667,1089.7 C319.941667,1088.13333 320.341667,1086.96667 321.141667,1086.2 C321.941667,1085.43333 322.941667,1085.05 324.141667,1085.05 C325.175,1085.05 326.291667,1085.33333 327.491667,1085.9 L327.491667,1085.9 L327.491667,1100.15 C326.658333,1100.38333 325.791667,1100.5 324.891667,1100.5 Z M349.858333,1105.6 C351.391667,1105.6 352.925,1105.4 354.458333,1105 C355.991667,1104.6 357.358333,1104.01667 358.558333,1103.25 L358.558333,1103.25 L356.558333,1098.5 C353.991667,1099.83333 351.941667,1100.5 350.408333,1100.5 C349.408333,1100.5 348.65,1100.24167 348.133333,1099.725 C347.616667,1099.20833 347.358333,1098.48333 347.358333,1097.55 L347.358333,1097.55 L347.358333,1096.15 L359.808333,1095.5 L359.808333,1087.9 C359.808333,1085.26667 359.033333,1083.20833 357.483333,1081.725 C355.933333,1080.24167 353.775,1079.5 351.008333,1079.5 C348.241667,1079.5 346.016667,1080.25 344.333333,1081.75 C342.65,1083.25 341.808333,1085.35 341.808333,1088.05 L341.808333,1088.05 L341.808333,1098.3 C341.808333,1100.73333 342.533333,1102.55833 343.983333,1103.775 C345.433333,1104.99167 347.391667,1105.6 349.858333,1105.6 Z M347.358333,1091.1 L347.358333,1088.1 C347.358333,1087.3 347.641667,1086.56667 348.208333,1085.9 C348.775,1085.23333 349.691667,1084.9 350.958333,1084.9 C351.891667,1084.9 352.675,1085.16667 353.308333,1085.7 C353.941667,1086.23333 354.258333,1087 354.258333,1088 L354.258333,1088 L354.258333,1090.65 L347.358333,1091.1 Z M376.975,1105.75 C379.041667,1105.75 380.766667,1105.38333 382.15,1104.65 C383.533333,1103.91667 384.558333,1102.95833 385.225,1101.775 C385.891667,1100.59167 386.225,1099.31667 386.225,1097.95 C386.225,1096.15 385.816667,1094.675 385,1093.525 C384.183333,1092.375 383.216667,1091.50833 382.1,1090.925 C380.983333,1090.34167 379.608333,1089.75 377.975,1089.15 C376.808333,1088.71667 375.925,1088.34167 375.325,1088.025 C374.725,1087.70833 374.375,1087.31667 374.275,1086.85 C374.208333,1086.65 374.175,1086.45 374.175,1086.25 C374.175,1085.25 375.075,1084.75 376.875,1084.75 C377.708333,1084.75 378.425,1084.83333 379.025,1085 C379.625,1085.16667 380.066667,1085.34167 380.35,1085.525 C380.633333,1085.70833 380.808333,1085.83333 380.875,1085.9 L380.875,1085.9 L382.475,1080.8 C382.375,1080.73333 382.091667,1080.58333 381.625,1080.35 C381.158333,1080.11667 380.516667,1079.89167 379.7,1079.675 C378.883333,1079.45833 377.941667,1079.35 376.875,1079.35 C374.808333,1079.35 373.116667,1079.725 371.8,1080.475 C370.483333,1081.225 369.55,1082.175 369,1083.325 C368.45,1084.475 368.225,1085.61667 368.325,1086.75 C368.458333,1088.25 368.891667,1089.46667 369.625,1090.4 C370.358333,1091.33333 371.191667,1092.03333 372.125,1092.5 C373.058333,1092.96667 374.241667,1093.43333 375.675,1093.9 C377.341667,1094.5 378.55,1095.05 379.3,1095.55 C380.05,1096.05 380.425,1096.81667 380.425,1097.85 C380.425,1098.58333 380.125,1099.225 379.525,1099.775 C378.925,1100.325 378.075,1100.6 376.975,1100.6 C375.708333,1100.6 374.766667,1100.33333 374.15,1099.8 C373.533333,1099.26667 373.225,1098.7 373.225,1098.1 L373.225,1098.1 L367.725,1098.65 C367.791667,1099.95 368.183333,1101.13333 368.9,1102.2 C369.616667,1103.26667 370.666667,1104.125 372.05,1104.775 C373.433333,1105.425 375.075,1105.75 376.975,1105.75 Z M423.008333,1105.55 C424.608333,1105.55 427.208333,1105.36667 430.808333,1105 L430.808333,1105 L430.808333,1090.1 C430.808333,1087.9 430.633333,1086.1 430.283333,1084.7 C429.933333,1083.3 429,1082.09167 427.483333,1081.075 C425.966667,1080.05833 423.608333,1079.55 420.408333,1079.55 L420.408333,1079.55 L419.958333,1083.35 C421.525,1083.35 422.808333,1083.575 423.808333,1084.025 C424.808333,1084.475 425.308333,1085.31667 425.308333,1086.55 C424.575,1086.15 423.608333,1085.78333 422.408333,1085.45 C421.208333,1085.11667 419.991667,1084.95 418.758333,1084.95 C417.358333,1084.95 416.108333,1085.21667 415.008333,1085.75 C412.708333,1086.88333 411.558333,1089.1 411.558333,1092.4 L411.558333,1092.4 L411.558333,1096.55 C411.558333,1099.95 412.591667,1102.3 414.658333,1103.6 C416.725,1104.9 419.508333,1105.55 423.008333,1105.55 Z M422.458333,1100.4 C418.891667,1100.4 417.108333,1098.88333 417.108333,1095.85 L417.108333,1095.85 L417.108333,1093.1 C417.108333,1092.23333 417.358333,1091.6 417.858333,1091.2 C418.358333,1090.8 419.008333,1090.6 419.808333,1090.6 C420.708333,1090.6 421.7,1090.79167 422.783333,1091.175 C423.866667,1091.55833 424.708333,1091.96667 425.308333,1092.4 L425.308333,1092.4 L425.308333,1100.15 C424.441667,1100.31667 423.491667,1100.4 422.458333,1100.4 Z M470.491667,1078.1 L472.941667,1074.95 C473.441667,1074.31667 473.691667,1073.68333 473.691667,1073.05 C473.691667,1072.21667 473.291667,1071.6 472.491667,1071.2 C472.291667,1071.1 472.025,1071.05 471.691667,1071.05 C471.191667,1071.05 470.7,1071.18333 470.216667,1071.45 C469.733333,1071.71667 469.375,1072.13333 469.141667,1072.7 L469.141667,1072.7 L466.841667,1078.1 L470.491667,1078.1 Z M466.791667,1105.6 C468.325,1105.6 469.858333,1105.4 471.391667,1105 C472.925,1104.6 474.291667,1104.01667 475.491667,1103.25 L475.491667,1103.25 L473.491667,1098.5 C470.925,1099.83333 468.875,1100.5 467.341667,1100.5 C466.341667,1100.5 465.583333,1100.24167 465.066667,1099.725 C464.55,1099.20833 464.291667,1098.48333 464.291667,1097.55 L464.291667,1097.55 L464.291667,1096.15 L476.741667,1095.5 L476.741667,1087.9 C476.741667,1085.26667 475.966667,1083.20833 474.416667,1081.725 C472.866667,1080.24167 470.708333,1079.5 467.941667,1079.5 C465.175,1079.5 462.95,1080.25 461.266667,1081.75 C459.583333,1083.25 458.741667,1085.35 458.741667,1088.05 L458.741667,1088.05 L458.741667,1098.3 C458.741667,1100.73333 459.466667,1102.55833 460.916667,1103.775 C462.366667,1104.99167 464.325,1105.6 466.791667,1105.6 Z M464.291667,1091.1 L464.291667,1088.1 C464.291667,1087.3 464.575,1086.56667 465.141667,1085.9 C465.708333,1085.23333 466.625,1084.9 467.891667,1084.9 C468.825,1084.9 469.608333,1085.16667 470.241667,1085.7 C470.875,1086.23333 471.191667,1087 471.191667,1088 L471.191667,1088 L471.191667,1090.65 L464.291667,1091.1 Z M493.908333,1105.75 C495.975,1105.75 497.7,1105.38333 499.083333,1104.65 C500.466667,1103.91667 501.491667,1102.95833 502.158333,1101.775 C502.825,1100.59167 503.158333,1099.31667 503.158333,1097.95 C503.158333,1096.15 502.75,1094.675 501.933333,1093.525 C501.116667,1092.375 500.15,1091.50833 499.033333,1090.925 C497.916667,1090.34167 496.541667,1089.75 494.908333,1089.15 C493.741667,1088.71667 492.858333,1088.34167 492.258333,1088.025 C491.658333,1087.70833 491.308333,1087.31667 491.208333,1086.85 C491.141667,1086.65 491.108333,1086.45 491.108333,1086.25 C491.108333,1085.25 492.008333,1084.75 493.808333,1084.75 C494.641667,1084.75 495.358333,1084.83333 495.958333,1085 C496.558333,1085.16667 497,1085.34167 497.283333,1085.525 C497.566667,1085.70833 497.741667,1085.83333 497.808333,1085.9 L497.808333,1085.9 L499.408333,1080.8 C499.308333,1080.73333 499.025,1080.58333 498.558333,1080.35 C498.091667,1080.11667 497.45,1079.89167 496.633333,1079.675 C495.816667,1079.45833 494.875,1079.35 493.808333,1079.35 C491.741667,1079.35 490.05,1079.725 488.733333,1080.475 C487.416667,1081.225 486.483333,1082.175 485.933333,1083.325 C485.383333,1084.475 485.158333,1085.61667 485.258333,1086.75 C485.391667,1088.25 485.825,1089.46667 486.558333,1090.4 C487.291667,1091.33333 488.125,1092.03333 489.058333,1092.5 C489.991667,1092.96667 491.175,1093.43333 492.608333,1093.9 C494.275,1094.5 495.483333,1095.05 496.233333,1095.55 C496.983333,1096.05 497.358333,1096.81667 497.358333,1097.85 C497.358333,1098.58333 497.058333,1099.225 496.458333,1099.775 C495.858333,1100.325 495.008333,1100.6 493.908333,1100.6 C492.641667,1100.6 491.7,1100.33333 491.083333,1099.8 C490.466667,1099.26667 490.158333,1098.7 490.158333,1098.1 L490.158333,1098.1 L484.658333,1098.65 C484.725,1099.95 485.116667,1101.13333 485.833333,1102.2 C486.55,1103.26667 487.6,1104.125 488.983333,1104.775 C490.366667,1105.425 492.008333,1105.75 493.908333,1105.75 Z M518.375,1105.65 L520.025,1101.25 C518.858333,1101.25 517.958333,1101.05833 517.325,1100.675 C516.691667,1100.29167 516.375,1099.53333 516.375,1098.4 L516.375,1098.4 L516.375,1085.1 L519.925,1085.1 L521.125,1079.95 L516.375,1079.95 L516.375,1070 L510.775,1070 L510.775,1098.4 C510.775,1103.13333 513.308333,1105.55 518.375,1105.65 L518.375,1105.65 Z M539.741667,1105.55 C541.341667,1105.55 543.941667,1105.36667 547.541667,1105 L547.541667,1105 L547.541667,1090.1 C547.541667,1087.9 547.366667,1086.1 547.016667,1084.7 C546.666667,1083.3 545.733333,1082.09167 544.216667,1081.075 C542.7,1080.05833 540.341667,1079.55 537.141667,1079.55 L537.141667,1079.55 L536.691667,1083.35 C538.258333,1083.35 539.541667,1083.575 540.541667,1084.025 C541.541667,1084.475 542.041667,1085.31667 542.041667,1086.55 C541.308333,1086.15 540.341667,1085.78333 539.141667,1085.45 C537.941667,1085.11667 536.725,1084.95 535.491667,1084.95 C534.091667,1084.95 532.841667,1085.21667 531.741667,1085.75 C529.441667,1086.88333 528.291667,1089.1 528.291667,1092.4 L528.291667,1092.4 L528.291667,1096.55 C528.291667,1099.95 529.325,1102.3 531.391667,1103.6 C533.458333,1104.9 536.241667,1105.55 539.741667,1105.55 Z M539.191667,1100.4 C535.625,1100.4 533.841667,1098.88333 533.841667,1095.85 L533.841667,1095.85 L533.841667,1093.1 C533.841667,1092.23333 534.091667,1091.6 534.591667,1091.2 C535.091667,1090.8 535.741667,1090.6 536.541667,1090.6 C537.441667,1090.6 538.433333,1090.79167 539.516667,1091.175 C540.6,1091.55833 541.441667,1091.96667 542.041667,1092.4 L542.041667,1092.4 L542.041667,1100.15 C541.175,1100.31667 540.225,1100.4 539.191667,1100.4 Z M588.125,1078.1 L590.575,1074.95 C591.075,1074.31667 591.325,1073.68333 591.325,1073.05 C591.325,1072.21667 590.925,1071.6 590.125,1071.2 C589.925,1071.1 589.658333,1071.05 589.325,1071.05 C588.825,1071.05 588.333333,1071.18333 587.85,1071.45 C587.366667,1071.71667 587.008333,1072.13333 586.775,1072.7 L586.775,1072.7 L584.475,1078.1 L588.125,1078.1 Z M586.925,1105.55 C588.525,1105.55 591.125,1105.36667 594.725,1105 L594.725,1105 L594.725,1090.1 C594.725,1087.9 594.55,1086.1 594.2,1084.7 C593.85,1083.3 592.916667,1082.09167 591.4,1081.075 C589.883333,1080.05833 587.525,1079.55 584.325,1079.55 L584.325,1079.55 L583.875,1083.35 C585.441667,1083.35 586.725,1083.575 587.725,1084.025 C588.725,1084.475 589.225,1085.31667 589.225,1086.55 C588.491667,1086.15 587.525,1085.78333 586.325,1085.45 C585.125,1085.11667 583.908333,1084.95 582.675,1084.95 C581.275,1084.95 580.025,1085.21667 578.925,1085.75 C576.625,1086.88333 575.475,1089.1 575.475,1092.4 L575.475,1092.4 L575.475,1096.55 C575.475,1099.95 576.508333,1102.3 578.575,1103.6 C580.641667,1104.9 583.425,1105.55 586.925,1105.55 Z M586.375,1100.4 C582.808333,1100.4 581.025,1098.88333 581.025,1095.85 L581.025,1095.85 L581.025,1093.1 C581.025,1092.23333 581.275,1091.6 581.775,1091.2 C582.275,1090.8 582.925,1090.6 583.725,1090.6 C584.625,1090.6 585.616667,1090.79167 586.7,1091.175 C587.783333,1091.55833 588.625,1091.96667 589.225,1092.4 L589.225,1092.4 L589.225,1100.15 C588.358333,1100.31667 587.408333,1100.4 586.375,1100.4 Z M609.391667,1105 L609.391667,1088.9 C609.391667,1087.66667 609.825,1086.675 610.691667,1085.925 C611.558333,1085.175 612.608333,1084.8 613.841667,1084.8 C614.741667,1084.8 615.658333,1085.03333 616.591667,1085.5 L616.591667,1085.5 L617.891667,1080.15 L616.891667,1079.95 C615.291667,1079.61667 614.075,1079.45 613.241667,1079.45 C612.041667,1079.45 610.758333,1079.68333 609.391667,1080.15 L609.391667,1080.15 L608.991667,1079.95 L603.891667,1079.95 L603.891667,1105 L609.391667,1105 Z M631.408333,1105.6 C632.941667,1105.6 634.475,1105.4 636.008333,1105 C637.541667,1104.6 638.908333,1104.01667 640.108333,1103.25 L640.108333,1103.25 L638.108333,1098.5 C635.541667,1099.83333 633.491667,1100.5 631.958333,1100.5 C630.958333,1100.5 630.2,1100.24167 629.683333,1099.725 C629.166667,1099.20833 628.908333,1098.48333 628.908333,1097.55 L628.908333,1097.55 L628.908333,1096.15 L641.358333,1095.5 L641.358333,1087.9 C641.358333,1085.26667 640.583333,1083.20833 639.033333,1081.725 C637.483333,1080.24167 635.325,1079.5 632.558333,1079.5 C629.791667,1079.5 627.566667,1080.25 625.883333,1081.75 C624.2,1083.25 623.358333,1085.35 623.358333,1088.05 L623.358333,1088.05 L623.358333,1098.3 C623.358333,1100.73333 624.083333,1102.55833 625.533333,1103.775 C626.983333,1104.99167 628.941667,1105.6 631.408333,1105.6 Z M628.908333,1091.1 L628.908333,1088.1 C628.908333,1087.3 629.191667,1086.56667 629.758333,1085.9 C630.325,1085.23333 631.241667,1084.9 632.508333,1084.9 C633.441667,1084.9 634.225,1085.16667 634.858333,1085.7 C635.491667,1086.23333 635.808333,1087 635.808333,1088 L635.808333,1088 L635.808333,1090.65 L628.908333,1091.1 Z M660.775,1105.55 C662.375,1105.55 664.975,1105.36667 668.575,1105 L668.575,1105 L668.575,1090.1 C668.575,1087.9 668.4,1086.1 668.05,1084.7 C667.7,1083.3 666.766667,1082.09167 665.25,1081.075 C663.733333,1080.05833 661.375,1079.55 658.175,1079.55 L658.175,1079.55 L657.725,1083.35 C659.291667,1083.35 660.575,1083.575 661.575,1084.025 C662.575,1084.475 663.075,1085.31667 663.075,1086.55 C662.341667,1086.15 661.375,1085.78333 660.175,1085.45 C658.975,1085.11667 657.758333,1084.95 656.525,1084.95 C655.125,1084.95 653.875,1085.21667 652.775,1085.75 C650.475,1086.88333 649.325,1089.1 649.325,1092.4 L649.325,1092.4 L649.325,1096.55 C649.325,1099.95 650.358333,1102.3 652.425,1103.6 C654.491667,1104.9 657.275,1105.55 660.775,1105.55 Z M660.225,1100.4 C656.658333,1100.4 654.875,1098.88333 654.875,1095.85 L654.875,1095.85 L654.875,1093.1 C654.875,1092.23333 655.125,1091.6 655.625,1091.2 C656.125,1090.8 656.775,1090.6 657.575,1090.6 C658.475,1090.6 659.466667,1090.79167 660.55,1091.175 C661.633333,1091.55833 662.475,1091.96667 663.075,1092.4 L663.075,1092.4 L663.075,1100.15 C662.208333,1100.31667 661.258333,1100.4 660.225,1100.4 Z" id="Arrastraredesaéstaárea"></path>
        </g>
    </g>
</svg>