<?xml version="1.0" encoding="UTF-8"?>
<svg width="30px" height="24px" viewBox="0 0 30 24" version="1.1" xmlns="http://www.w3.org/2000/svg" xmlns:xlink="http://www.w3.org/1999/xlink">
    <title>ic-addnew</title>
    <g id="Page-1" stroke="none" stroke-width="1" fill="none" fill-rule="evenodd">
        <g id="Dashboard" transform="translate(-1057.000000, -486.000000)" fill="#F0D1D2" fill-rule="nonzero">
            <g id="pre-portfolios" transform="translate(448.000000, 395.000000)">
                <g id="port-card-copy-4" transform="translate(570.000000, 58.000000)">
                    <g id="ic-addnew" transform="translate(26.000000, 18.000000)">
                        <g id="folder-plus-solid" fill="none" transform="translate(13.500000, 15.750000)">
                            <path style="fill:#FCCCD2" d="M26.5078125,3.75 L15.5390625,3.75 L11.8828125,0 L2.7421875,0 C1.22771916,0 0,1.25919914 0,2.8125 L0,19.6875 C0,21.2408009 1.22771916,22.5 2.7421875,22.5 L26.5078125,22.5 C28.0222808,22.5 29.25,21.2408009 29.25,19.6875 L29.25,6.5625 C29.25,5.00919914 28.0222808,3.75 26.5078125,3.75 Z M20.5378418,13.59375 C20.5378418,14.111517 20.1286021,14.53125 19.6237793,14.53125 L15.9675293,14.53125 L15.9675293,18.28125 C15.9675293,18.799017 15.5582896,19.21875 15.0534668,19.21875 L14.1394043,19.21875 C13.6345815,19.21875 13.2253418,18.799017 13.2253418,18.28125 L13.2253418,14.53125 L9.5690918,14.53125 C9.06426902,14.53125 8.6550293,14.111517 8.6550293,13.59375 L8.6550293,12.65625 C8.6550293,12.138483 9.06426902,11.71875 9.5690918,11.71875 L13.2253418,11.71875 L13.2253418,7.96875 C13.2253418,7.45098305 13.6345815,7.03125 14.1394043,7.03125 L15.0534668,7.03125 C15.5582896,7.03125 15.9675293,7.45098305 15.9675293,7.96875 L15.9675293,11.71875 L19.6237793,11.71875 C20.1286021,11.71875 20.5378418,12.138483 20.5378418,12.65625 L20.5378418,13.59375 Z" id="Shape" fill="#000000"></path>
                        </g>
                    </g>
                </g>
            </g>
        </g>
    </g>
</svg>