<?xml version="1.0" encoding="UTF-8"?>
<svg width="13px" height="10px" viewBox="0 0 13 10" version="1.1" xmlns="http://www.w3.org/2000/svg" xmlns:xlink="http://www.w3.org/1999/xlink">
    <title>ic-addnew</title>
    <g id="Page-1" stroke="none" stroke-width="1" fill="none" fill-rule="evenodd">
        <g id="Artboard" transform="translate(-18.000000, -19.000000)" fill="#B39898" fill-rule="nonzero">
            <g id="ic-addnew" transform="translate(12.000000, 12.000000)">
                <g id="folder-plus-solid" fill="none" transform="translate(6.000000, 7.000000)">
                    <path style="fill:#B39898" d="M11.78125,1.66666667 L6.90625,1.66666667 L5.28125,0 L1.21875,0 C0.545652961,0 0,0.559644063 0,1.25 L0,8.75 C0,9.44035594 0.545652961,10 1.21875,10 L11.78125,10 C12.454347,10 13,9.44035594 13,8.75 L13,2.91666667 C13,2.22631073 12.454347,1.66666667 11.78125,1.66666667 Z M9.12792969,6.04166667 C9.12792969,6.27178531 8.94604537,6.45833333 8.72167969,6.45833333 L7.09667969,6.45833333 L7.09667969,8.125 C7.09667969,8.35511865 6.91479537,8.54166667 6.69042969,8.54166667 L6.28417969,8.54166667 C6.05981401,8.54166667 5.87792969,8.35511865 5.87792969,8.125 L5.87792969,6.45833333 L4.25292969,6.45833333 C4.02856401,6.45833333 3.84667969,6.27178531 3.84667969,6.04166667 L3.84667969,5.625 C3.84667969,5.39488135 4.02856401,5.20833333 4.25292969,5.20833333 L5.87792969,5.20833333 L5.87792969,3.54166667 C5.87792969,3.31154802 6.05981401,3.125 6.28417969,3.125 L6.69042969,3.125 C6.91479537,3.125 7.09667969,3.31154802 7.09667969,3.54166667 L7.09667969,5.20833333 L8.72167969,5.20833333 C8.94604537,5.20833333 9.12792969,5.39488135 9.12792969,5.625 L9.12792969,6.04166667 Z" id="Shape" fill="#000000"></path>
                </g>
            </g>
        </g>
    </g>
</svg>