<?xml version="1.0" encoding="UTF-8"?>
<svg width="14px" height="18px" viewBox="0 0 14 18" version="1.1" xmlns="http://www.w3.org/2000/svg" xmlns:xlink="http://www.w3.org/1999/xlink">
    <title>ic-addnew copy</title>
    <g id="Page-1" stroke="none" stroke-width="1" fill="none" fill-rule="evenodd">
        <g id="Artboard" transform="translate(-17.000000, -53.000000)" fill="#B39898" fill-rule="nonzero">
            <g id="ic-cv" transform="translate(12.000000, 50.000000)">
                <path style="fill:#B39898" d="M16.6024999,3 L6.65749999,3 C5.74242187,3 5,3.75170214 5,4.67821874 L5,19.2227811 C5,20.1492977 5.74242187,20.9009998 6.65749999,20.9009998 L16.6024999,20.9009998 C17.517578,20.9009998 18.2599999,20.1492977 18.2599999,19.2227811 L18.2599999,4.67821874 C18.2599999,3.75170214 17.517578,3 16.6024999,3 Z M16.6024999,19.2227811 L6.65749999,19.2227811 L6.65749999,4.67821874 L16.6024999,4.67821874 L16.6024999,19.2227811 Z M9.97249996,6.91584372 L13.2874999,6.91584372 C13.5913749,6.91584372 13.8399999,6.66411091 13.8399999,6.35643747 C13.8399999,6.04876404 13.5913749,5.79703123 13.2874999,5.79703123 L9.97249996,5.79703123 C9.66862496,5.79703123 9.41999996,6.04876404 9.41999996,6.35643747 C9.41999996,6.66411091 9.66862496,6.91584372 9.97249996,6.91584372 Z M11.6299999,13.0693124 C12.8489531,13.0693124 13.8399999,12.0658775 13.8399999,10.8316874 C13.8399999,9.5974974 12.8489531,8.59406245 11.6299999,8.59406245 C10.4110468,8.59406245 9.41999996,9.5974974 9.41999996,10.8316874 C9.41999996,12.0658775 10.4110468,13.0693124 11.6299999,13.0693124 Z M8.53599997,17.5445624 L14.7239999,17.5445624 C15.1521874,17.5445624 15.4974999,17.2438815 15.4974999,16.8732749 L15.4974999,16.2019874 C15.4974999,15.0901675 14.4581093,14.1881249 13.1769999,14.1881249 C12.8040624,14.1881249 12.5312656,14.467828 11.6299999,14.467828 C10.7011093,14.467828 10.4766562,14.1881249 10.083,14.1881249 C8.80189059,14.1881249 7.76249998,15.0901675 7.76249998,16.2019874 L7.76249998,16.8732749 C7.76249998,17.2438815 8.10781247,17.5445624 8.53599997,17.5445624 Z" id="Shape" fill="#000000"></path>
            </g>
        </g>
    </g>
</svg>