<?xml version="1.0" encoding="UTF-8"?>
<svg width="16px" height="14px" viewBox="0 0 16 14" version="1.1" xmlns="http://www.w3.org/2000/svg" xmlns:xlink="http://www.w3.org/1999/xlink">
    <title>ic-addnew copy 3</title>
    <g id="Page-1" stroke="none" stroke-width="1" fill="none" fill-rule="evenodd">
        <g id="Artboard" transform="translate(-16.000000, -131.000000)" fill="#B39898" fill-rule="nonzero">
            <g id="ic-dashboard" transform="translate(12.000000, 126.000000)">
                <path style="fill:#B39898" d="M18.5,5 L5.5,5 C4.6715625,5 4,5.6715625 4,6.5 L4,17.5 C4,18.3284375 4.6715625,19 5.5,19 L18.5,19 C19.3284375,19 20,18.3284375 20,17.5 L20,6.5 C20,5.6715625 19.3284375,5 18.5,5 Z M11,17 L6,17 L6,9 L11,9 L11,17 Z M18,17 L13,17 L13,9 L18,9 L18,17 Z" id="Shape" fill="#000000"></path>
            </g>
        </g>
    </g>
</svg>