<?xml version="1.0" encoding="UTF-8"?>
<svg width="17px" height="19px" viewBox="0 0 17 19" version="1.1" xmlns="http://www.w3.org/2000/svg" xmlns:xlink="http://www.w3.org/1999/xlink">
    <title>ic-addnew copy 2</title>
    <g id="Page-1" stroke="none" stroke-width="1" fill="none" fill-rule="evenodd">
        <g id="Artboard" transform="translate(-16.000000, -91.000000)" fill="#B39898" fill-rule="nonzero">
            <g id="ic-link" transform="translate(12.000000, 88.000000)">
                <path style="fill:#B39898" d="M5.56766745,19.897647 C3.44958002,17.7121708 3.48905626,14.1878734 5.61790995,12.010336 L13.2217097,4.23249996 C14.8281647,2.58921501 17.4394334,2.58907001 19.0460333,4.23249996 C20.6370458,5.85990742 20.638967,8.48567609 19.0460333,10.1150048 L12.4177573,16.8883896 C11.3355135,17.9953558 9.56731109,17.9799133 8.50340987,16.8522121 C7.47844115,15.7657996 7.5113199,14.0438159 8.55604487,12.975166 L13.7667285,7.65239737 C13.990826,7.42351487 14.3580385,7.41959987 14.5869209,7.64366112 L15.4156322,8.45489984 C15.6445509,8.67899734 15.6484297,9.04620983 15.4243684,9.27509232 L10.2142286,14.5973534 C10.0354436,14.7802347 10.0244236,15.0841184 10.1907386,15.2604384 C10.3492236,15.4284209 10.5983698,15.4312121 10.7594286,15.2664196 L17.3877046,8.49307109 C18.0986758,7.76582361 18.0986758,6.5817899 17.3873059,5.85414367 C16.6917046,5.14266494 15.5763647,5.14230244 14.8804734,5.85414367 L7.27663741,13.6319434 C6.01647869,14.9209934 5.99704869,17.0075433 7.23346366,18.2832896 C8.46632612,19.5554108 10.4591698,19.5570058 11.694316,18.2936571 L17.9314908,11.9136935 C18.1554071,11.6846298 18.5226196,11.6804973 18.7516833,11.9044135 L19.5809746,12.7151085 C19.8100383,12.9390247 19.814207,13.3062372 19.5902546,13.5353009 L13.3530797,19.9152283 C11.1934498,22.1242307 7.70014614,22.0980582 5.56766745,19.897647 Z" id="Path" fill="#000000"></path>
            </g>
        </g>
    </g>
</svg>