<?xml version="1.0" encoding="UTF-8"?>
<svg width="190px" height="372px" viewBox="0 0 190 372" version="1.1" xmlns="http://www.w3.org/2000/svg" xmlns:xlink="http://www.w3.org/1999/xlink">
    <title>Group</title>
    <g id="Page-1" stroke="none" stroke-width="1" fill="none" fill-rule="evenodd">
        <g id="Dashboard" transform="translate(-197.000000, -625.000000)">
            <g id="lat-navbar" transform="translate(163.000000, 23.000000)">
                <g id="Group" transform="translate(129.000000, 788.000000) scale(-1, 1) translate(-129.000000, -788.000000) translate(34.000000, 602.000000)">
                    <ellipse id="Oval-Copy-53" stroke="#FCCCD2" stroke-width="27" transform="translate(127.500000, 219.843854) scale(-1, 1) translate(-127.500000, -219.843854) " cx="127.5" cy="219.843854" rx="39" ry="39.1677741"></ellipse>
                    <ellipse id="Oval-Copy-49" stroke="#6EA8B5" stroke-width="9" transform="translate(58.500000, 54.671096) scale(-1, 1) translate(-58.500000, -54.671096) " cx="58.5" cy="54.6710963" rx="40" ry="40.1710963"></ellipse>
                    <ellipse id="Oval-Copy-50" fill="#A1E2F5" transform="translate(91.500000, 159.455150) scale(-1, 1) translate(-91.500000, -159.455150) " cx="91.5" cy="159.45515" rx="25.5" ry="25.3687708"></ellipse>
                    <ellipse id="Oval-Copy-52" fill="#A1E2F5" transform="translate(138.500000, 49.983389) scale(-1, 1) translate(-138.500000, -49.983389) " cx="138.5" cy="49.9833887" rx="7.5" ry="7.44518272"></ellipse>
                    <ellipse id="Oval-Copy-51" fill="#B39898" transform="translate(130.500000, 114.508306) scale(-1, 1) translate(-130.500000, -114.508306) " cx="130.5" cy="114.508306" rx="7.5" ry="7.44518272"></ellipse>
                </g>
            </g>
        </g>
    </g>
</svg>