<?xml version="1.0" encoding="UTF-8"?>
<svg width="1440px" height="1998px" viewBox="0 0 1440 1998" version="1.1" xmlns="http://www.w3.org/2000/svg" xmlns:xlink="http://www.w3.org/1999/xlink">
    <title>A788B531-5B0C-4E00-A337-D73EC2ECC029</title>
    <g id="Page-1" stroke="none" stroke-width="1" fill="none" fill-rule="evenodd">
        <g id="LandingPage" transform="translate(0.000000, -55.000000)">
            <g id="bkg" transform="translate(-54.000000, 55.000000)">
                <circle id="Oval-Copy-6" fill="#FCCCD2" cx="1493" cy="429" r="33"></circle>
                <circle id="Oval-Copy-2" stroke="#D9A5A6" stroke-width="10" cx="1484" cy="82" r="52"></circle>
                <circle id="Oval-Copy-3" stroke="#A1E2F5" stroke-width="11" cx="923.5" cy="272.5" r="32"></circle>
                <circle id="Oval-Copy-40" stroke="#B39898" stroke-width="11" cx="1311.5" cy="124.5" r="32"></circle>
                <circle id="Oval-Copy-25" stroke="#D9A5A6" stroke-width="11" cx="848.5" cy="103.5" r="32"></circle>
                <circle id="Oval-Copy-26" stroke="#A1E2F5" stroke-width="11" cx="1242" cy="233" r="38.5"></circle>
                <circle id="Oval-Copy-5" stroke="#FCCCD2" stroke-width="8" cx="1330.5" cy="448.5" r="100.5"></circle>
                <circle id="Oval-Copy-22" stroke="#6EA8B5" stroke-width="9" cx="961.5" cy="448.5" r="91"></circle>
                <circle id="Oval-Copy-24" stroke="#6EA8B5" stroke-width="9" cx="1449.5" cy="235" r="52.5"></circle>
                <circle id="Oval-Copy-28" fill="#FCCCD2" cx="1047" cy="221" r="46"></circle>
                <circle id="Oval-Copy-21" fill="#D9A5A6" cx="1473.5" cy="745.5" r="54.5"></circle>
                <circle id="Oval-Copy" fill="#FCCCD2" cx="1212" cy="700" r="46"></circle>
                <circle id="Oval-Copy-12" fill="#6EA8B5" cx="923.5" cy="164.5" r="13.5"></circle>
                <circle id="Oval-Copy-41" fill="#6EA8B5" cx="1352.5" cy="691.5" r="13.5"></circle>
                <circle id="Oval-Copy-15" fill="#6EA8B5" cx="1106.5" cy="62.5" r="13.5"></circle>
                <circle id="Oval-Copy-27" stroke="#6EA8B5" stroke-width="3" cx="773.5" cy="35.5" r="12"></circle>
                <circle id="Oval-Copy-33" stroke="#FCCCD2" stroke-width="3" cx="1183" cy="168" r="15.5"></circle>
                <circle id="Oval-Copy-34" stroke="#FCCCD2" stroke-width="3" cx="1366" cy="292" r="15.5"></circle>
                <circle id="Oval-Copy-35" stroke="#A1E2F5" stroke-width="3" cx="1141.5" cy="338.5" r="23"></circle>
                <circle id="Oval-Copy-42" stroke="#A1E2F5" stroke-width="3" cx="1225.5" cy="73.5" r="23"></circle>
                <circle id="Oval-Copy-17" fill="#6EA8B5" cx="1393" cy="175.5" r="13.5"></circle>
                <circle id="Oval-Copy-38" fill="#FCCCD2" cx="1014.5" cy="103.5" r="13.5"></circle>
                <circle id="Oval-Copy-29" stroke="#FCCCD2" stroke-width="27" transform="translate(95.500000, 1288.500000) scale(-1, 1) translate(-95.500000, -1288.500000) " cx="95.5" cy="1288.5" r="82"></circle>
                <circle id="Oval-Copy-53" stroke="#FCCCD2" stroke-width="27" transform="translate(1426.500000, 1716.500000) scale(-1, 1) translate(-1426.500000, -1716.500000) " cx="1426.5" cy="1716.5" r="82"></circle>
                <circle id="Oval-Copy-45" stroke="#A1E2F5" stroke-width="14" transform="translate(158.500000, 954.500000) scale(-1, 1) translate(-158.500000, -954.500000) " cx="158.5" cy="954.5" r="88.5"></circle>
                <circle id="Oval-Copy-48" stroke="#A1E2F5" stroke-width="14" transform="translate(633.500000, 863.500000) scale(-1, 1) translate(-633.500000, -863.500000) " cx="633.5" cy="863.5" r="88.5"></circle>
                <circle id="Oval-Copy-8" stroke="#6EA8B5" stroke-width="9" transform="translate(538.000000, 1176.000000) scale(-1, 1) translate(-538.000000, -1176.000000) " cx="538" cy="1176" r="76.5"></circle>
                <circle id="Oval-Copy-49" stroke="#6EA8B5" stroke-width="9" transform="translate(1302.000000, 1417.000000) scale(-1, 1) translate(-1302.000000, -1417.000000) " cx="1302" cy="1417" r="76.5"></circle>
                <circle id="Oval-Copy-30" stroke="#6EA8B5" stroke-width="9" transform="translate(177.500000, 1408.500000) scale(-1, 1) translate(-177.500000, -1408.500000) " cx="177.5" cy="1408.5" r="85"></circle>
                <circle id="Oval" fill="#A1E2F5" transform="translate(299.500000, 1274.000000) scale(-1, 1) translate(-299.500000, -1274.000000) " cx="299.5" cy="1274" r="46"></circle>
                <circle id="Oval-Copy-50" fill="#A1E2F5" transform="translate(1362.000000, 1607.000000) scale(-1, 1) translate(-1362.000000, -1607.000000) " cx="1362" cy="1607" r="46"></circle>
                <circle id="Oval-Copy-44" fill="#A1E2F5" transform="translate(402.000000, 1030.000000) scale(-1, 1) translate(-402.000000, -1030.000000) " cx="402" cy="1030" r="46"></circle>
                <circle id="Oval" fill="#6EA8B5" transform="translate(369.500000, 1397.500000) scale(-1, 1) translate(-369.500000, -1397.500000) " cx="369.5" cy="1397.5" r="13.5"></circle>
                <circle id="Oval-Copy-37" fill="#A1E2F5" transform="translate(121.500000, 1089.500000) scale(-1, 1) translate(-121.500000, -1089.500000) " cx="121.5" cy="1089.5" r="13.5"></circle>
                <circle id="Oval-Copy-52" fill="#A1E2F5" transform="translate(1446.500000, 1408.500000) scale(-1, 1) translate(-1446.500000, -1408.500000) " cx="1446.5" cy="1408.5" r="13.5"></circle>
                <circle id="Oval-Copy-9" fill="#6EA8B5" transform="translate(458.000000, 1291.500000) scale(-1, 1) translate(-458.000000, -1291.500000) " cx="458" cy="1291.5" r="13.5"></circle>
                <circle id="Oval-Copy-10" fill="#B39898" transform="translate(359.000000, 1157.500000) scale(-1, 1) translate(-359.000000, -1157.500000) " cx="359" cy="1157.5" r="13.5"></circle>
                <circle id="Oval-Copy-46" fill="#D9A5A6" transform="translate(313.500000, 863.500000) scale(-1, 1) translate(-313.500000, -863.500000) " cx="313.5" cy="863.5" r="13.5"></circle>
                <circle id="Oval-Copy-36" fill="#B39898" transform="translate(221.500000, 1094.500000) scale(-1, 1) translate(-221.500000, -1094.500000) " cx="221.5" cy="1094.5" r="13.5"></circle>
                <circle id="Oval-Copy-51" fill="#B39898" transform="translate(1432.500000, 1525.500000) scale(-1, 1) translate(-1432.500000, -1525.500000) " cx="1432.5" cy="1525.5" r="13.5"></circle>
                <circle id="Oval-Copy-11" fill="#6EA8B5" transform="translate(411.500000, 863.500000) scale(-1, 1) translate(-411.500000, -863.500000) " cx="411.5" cy="863.5" r="13.5"></circle>
                <circle id="Oval-Copy-19" fill="#6EA8B5" transform="translate(117.000000, 1274.500000) scale(-1, 1) translate(-117.000000, -1274.500000) " cx="117" cy="1274.5" r="13.5"></circle>
            </g>
        </g>
    </g>
</svg>