<?xml version="1.0" encoding="UTF-8"?>
<svg width="265px" height="137px" viewBox="0 0 265 137" version="1.1" xmlns="http://www.w3.org/2000/svg" xmlns:xlink="http://www.w3.org/1999/xlink">
    <title>Logo</title>
    <g id="Page-1" stroke="none" stroke-width="1" fill="none" fill-rule="evenodd">
        <g id="LandingPage" transform="translate(-161.000000, -141.000000)">
            <g id="header">
                <g id="txt-group" transform="translate(149.000000, 123.000000)">
                    <g id="Logo">
                        <g id="Wheel" stroke-width="1" fill-rule="evenodd" transform="translate(62.285405, 75.537911) rotate(21.000000) translate(-62.285405, -75.537911) translate(12.394780, 13.752597)" fill="#FCCCD2">
                            <path d="M53.5401069,2.24314123 C58.8605721,-0.628796744 64.6106648,-0.628796744 69.9311299,2.24314123 C72.8061763,3.79506471 69.9311299,11.0908641 69.9311299,11.0908641 C73.3896358,11.6455097 76.7293067,12.5501346 79.9194096,13.761759 C79.9194096,13.761759 81.080031,6.01055824 84.3449858,6.1031471 C90.390132,6.27457772 95.3702945,9.14505945 98.5396118,14.289798 C100.25277,17.0707608 94.1099378,21.9545498 94.1099378,21.9545498 C90.1524959,26.212738 86.6047035,27.816056 83.4665606,26.764504 C83.3701204,26.7321881 83.2735077,26.7131447 83.1767116,26.7068916 C76.93937,22.8737047 69.5960143,20.6631056 61.7356184,20.6631056 C39.1037134,20.6631056 20.7580609,38.9889236 20.7580609,61.5963599 C20.7580609,84.2037962 39.1037134,102.529614 61.7356184,102.529614 C70.0165854,102.529614 77.7237034,100.07613 84.1682462,95.8571434 L84.7205092,95.861758 C86.7016293,95.861758 89.8314388,97.6294377 94.1099378,101.164797 C94.1441687,101.160462 94.1783598,101.156132 94.2125111,101.151807 L94.1078889,101.23817 C94.1078889,101.23817 100.250722,106.121959 98.5375629,108.902922 C95.3682456,114.04766 90.3880832,116.918142 84.3429369,117.089573 C81.0779821,117.182162 79.9173607,109.430961 79.9173607,109.430961 C76.7272579,110.642585 73.3875869,111.545163 69.9290811,112.101856 C69.9290811,112.101856 72.8041274,119.397655 69.9290811,120.949579 C64.6086159,123.821517 58.8585232,123.821517 53.538058,120.949579 C50.6630117,119.397655 53.538058,112.101856 53.538058,112.101856 C50.0795522,111.545163 46.7398812,110.642585 43.5497784,109.430961 C43.5497784,109.430961 42.389157,117.182162 39.1242022,117.089573 C33.0790559,116.918142 28.0988935,114.04766 24.9295762,108.902922 C23.2787142,106.223085 28.9228868,101.590574 29.3355551,101.257208 L29.3592502,101.23817 C26.6834157,99.0543808 24.2350066,96.6086189 22.0488539,93.9356774 C22.0488539,93.9356774 17.159779,100.071869 14.3758063,98.3605622 C9.22549946,95.1946714 6.35191093,90.2198934 6.18029476,84.1812829 C6.08760568,80.919858 13.8471958,79.7604915 13.8471958,79.7604915 C12.636309,76.5738376 11.7307049,73.2377774 11.175459,69.7830107 C11.175459,69.7830107 3.87176313,72.6549487 2.31815996,69.7830107 C-0.556886399,64.4682979 -0.556886399,58.7244219 2.31815996,53.409709 C3.87176313,50.5377711 11.175459,53.409709 11.175459,53.409709 C11.7307049,49.9549424 12.636309,46.6188822 13.8492447,43.4322283 C13.8492447,43.4322283 6.08965456,42.2728618 6.18234364,39.0114369 C6.3539598,32.9728264 9.22754834,27.9980483 14.3778552,24.8321576 C17.1618279,23.1208511 22.0509028,29.2570424 22.0509028,29.2570424 C24.2370555,26.5841009 26.6854646,24.1383389 29.3612991,21.9545498 C29.3612991,21.9545498 23.2184664,17.0707608 24.9316251,14.289798 C28.1009424,9.14505945 33.0811048,6.27457772 39.126251,6.1031471 C42.3912059,6.01055824 43.5518273,13.761759 43.5518273,13.761759 C46.7419301,12.5501346 50.0816011,11.6475564 53.5401069,11.0908641 C53.5401069,11.0908641 50.6650606,3.79506471 53.5401069,2.24314123 Z" id="Combined-Shape" fill-rule="nonzero"></path>
                        </g>
                        <path d="M65.0871966,105.271545 C66.6401546,105.271545 68.1154647,104.941963 69.5131269,104.2828 C70.9107892,103.623636 72.2016855,102.760907 73.385816,101.694613 C74.5699465,100.628319 75.6376051,99.4360079 76.5887919,98.1176805 C77.5399787,96.7993532 78.3455757,95.4810258 79.0055828,94.1626985 C79.2385265,93.6586321 79.3161744,93.2224209 79.2385265,92.8540647 C79.1608786,92.4857085 79.0055828,92.2142882 78.7726391,92.0398037 C78.5396954,91.8653192 78.2679278,91.8362384 77.9573362,91.9525614 C77.6467446,92.0688844 77.3555649,92.3790791 77.0837973,92.8831454 C76.6955578,93.5810834 76.1423165,94.3856509 75.4240734,95.2968477 C74.7058303,96.2080446 73.8517034,97.0901607 72.8616927,97.943196 C71.8716819,98.7962314 70.7749053,99.5135565 69.5713629,100.095172 C68.3678204,100.676787 67.08663,100.967594 65.7277918,100.967594 C64.8736649,100.967594 64.019538,100.754335 63.1654111,100.327818 C62.3112842,99.9012999 61.5445111,99.2033619 60.865092,98.2340035 C60.1856729,97.2646452 59.6615495,96.0238665 59.292722,94.5116675 C58.9238945,92.9994684 58.7783047,91.1576876 58.8559526,88.9863249 C59.0500723,84.1783074 59.7391974,79.6223232 60.9233279,75.3183721 C62.1074584,71.014421 63.5633566,67.2436171 65.2910223,64.0059602 C67.0186881,60.7683033 68.8919437,58.1995037 70.9107892,56.2995613 C72.9296346,54.3996189 74.8514201,53.4496477 76.6761458,53.4496477 C77.6079206,53.4496477 78.4426355,53.8180039 79.1802906,54.5547163 C79.9179456,55.2914286 80.2479492,56.4546586 80.1703013,58.0444063 C80.0538295,59.6729283 79.8208858,61.146353 79.4714702,62.4646804 C79.1608786,63.6279104 78.7046972,64.7426725 78.102926,65.8089667 C77.5011547,66.8752609 76.6761458,67.6216668 75.6278991,68.0481845 C75.9773147,68.9399942 76.3558482,69.618545 76.7634997,70.083837 C77.1711512,70.549129 77.5690967,70.898098 77.9573362,71.130744 C78.3843996,71.4021644 78.830875,71.5572617 79.2967624,71.5960361 C80.2673612,71.5960361 81.1311941,71.3149221 81.8882611,70.7526943 C82.6453282,70.1904664 83.2859233,69.4343669 83.8100467,68.4843958 C84.33417,67.5344246 84.7418215,66.4584368 85.0330011,65.2564324 C85.3241807,64.0544281 85.5085945,62.8136494 85.5862424,61.5340964 C85.6250664,60.1769947 85.5085945,58.8392802 85.2368269,57.5209528 C84.9650592,56.2026255 84.4894658,55.0200083 83.8100467,53.9731012 C83.1306275,52.9261942 82.2376767,52.0828525 81.1311941,51.443076 C80.0247115,50.8032994 78.6755792,50.4834112 77.0837973,50.4834112 C74.4825926,50.4834112 72.0949196,51.0747198 69.9207784,52.257337 C67.7466372,53.4399542 65.7666157,55.0006211 63.980714,56.9393378 C62.1948123,58.8780545 60.6127363,61.1172723 59.2344861,63.6569912 C57.8562358,66.19671 56.6818113,68.8333648 55.7112126,71.5669553 C54.7406138,74.3005459 53.9932528,77.0244428 53.4691295,79.7386462 C52.9450061,82.4528496 52.6441205,84.9731813 52.5664726,87.2996413 C52.4888247,89.7811987 52.7314744,92.1173523 53.2944217,94.3081022 C53.857369,96.4988521 54.6920839,98.408488 55.7985665,100.03701 C56.9050491,101.665532 58.2444753,102.945085 59.8168453,103.875669 C61.3892153,104.806253 63.1459991,105.271545 65.0871966,105.271545 Z M92.5163175,95.38409 C93.9916277,95.38409 95.331054,95.0060402 96.5345964,94.2499407 C97.7381389,93.4938412 98.7863855,92.4178534 99.6793364,91.0219774 C100.1064,92.3790791 100.620817,93.4162925 101.222588,94.1336177 C101.82436,94.8509429 102.649369,95.2096055 103.697615,95.2096055 C104.862334,95.2096055 106.1047,94.7443135 107.424714,93.8137294 C108.744729,92.8831454 110.055037,91.7199154 111.355639,90.3240394 C112.656242,88.9281634 113.879196,87.4062708 115.024503,85.7583616 C116.169809,84.1104524 117.130702,82.5497854 117.907181,81.0763607 C118.101301,80.7273917 118.188655,80.4075035 118.169243,80.116696 C118.149831,79.8258885 118.062477,79.6126296 117.907181,79.4769194 C117.751885,79.3412093 117.54806,79.3121285 117.295704,79.3896772 C117.043348,79.4672259 116.781287,79.6804847 116.509519,80.0294537 C116.393047,80.184551 116.101867,80.581988 115.63598,81.2217645 C115.170093,81.861541 114.607145,82.6079469 113.947138,83.4609823 C113.287131,84.3140176 112.559182,85.2155209 111.763291,86.1654921 C110.9674,87.1154632 110.171509,87.9878858 109.375618,88.7827596 C108.579727,89.5776335 107.812954,90.2367971 107.075299,90.7602506 C106.337644,91.2837042 105.697049,91.5454309 105.153513,91.5454309 C104.842922,91.5454309 104.561448,91.4775758 104.309092,91.3418657 C104.056737,91.2061555 103.843205,90.9541223 103.668497,90.5857661 C103.49379,90.21741 103.3482,89.6842629 103.231728,88.9863249 C103.115256,88.2883869 103.018196,87.3578028 102.940548,86.1945728 C103.134668,85.9231525 103.3482,85.6226514 103.581143,85.2930695 C103.814087,84.9634877 104.047031,84.53697 104.279975,84.0135165 C104.512918,83.490063 104.755568,82.8502865 105.007924,82.094187 C105.260279,81.3380875 105.522341,80.417197 105.794109,79.3315157 C106.182348,78.0131883 106.415292,76.7336353 106.49294,75.4928566 C106.570588,74.2520779 106.609412,73.3214939 106.609412,72.7011046 C106.609412,72.3521356 106.376468,72.1194896 105.91058,72.0031666 C105.755285,71.9643922 105.570871,71.9353115 105.357339,71.9159243 C105.143807,71.8965371 104.881746,71.9062307 104.571154,71.9450051 C103.794675,71.9837794 103.231728,72.109796 102.882312,72.3230548 C102.532897,72.5363137 102.144657,73.1082351 101.717594,74.0388191 C101.48465,74.5041111 101.203176,75.1438876 100.873173,75.9581486 C100.543169,76.7724096 100.232578,77.6933001 99.9413981,78.7208199 C99.6502184,79.7483398 99.3978628,80.8534083 99.184331,82.0360255 C98.9707993,83.2186427 98.8640334,84.4303406 98.8640334,85.6711193 C98.8640334,86.330283 98.9222694,86.9700595 99.0387412,87.5904488 C98.2622622,88.7924532 97.4081353,89.7715051 96.4763605,90.5276046 C95.5445857,91.2837042 94.5739869,91.6617539 93.5645642,91.6617539 C92.0116062,91.6617539 90.9827715,91.2158491 90.4780602,90.3240394 C89.9733488,89.4322297 89.818053,88.1139023 90.0121727,86.3690573 C90.0898206,85.5935706 90.3033524,84.5660508 90.6527679,83.2864978 C90.9633595,82.1620421 91.419541,80.7080046 92.0213122,78.9243852 C92.6230834,77.1407658 93.4480924,74.9112416 94.496339,72.2358126 C94.1857474,72.1194896 93.8460378,72.0613281 93.4772103,72.0613281 C93.1083828,72.0613281 92.7492613,72.0807152 92.3998457,72.1194896 C91.9727822,72.1970382 91.5651308,72.2745869 91.1768913,72.3521356 C90.1674686,72.6623302 89.3812836,73.2342517 88.8183363,74.0678999 C88.255389,74.901548 87.7992076,75.8806 87.449792,77.0050557 C87.3721441,77.1989273 87.2265543,77.6836065 87.0130226,78.4590932 C86.7994909,79.2345799 86.5568412,80.1748575 86.2850735,81.279926 C86.0133059,82.3849945 85.7803622,83.5869989 85.5862424,84.885939 C85.3921227,86.1848792 85.2950628,87.4159643 85.2950628,88.5791944 C85.2950628,89.238358 85.4018286,89.9653768 85.6153604,90.7602506 C85.8288921,91.5551245 86.1977196,92.2918368 86.721843,92.9703877 C87.2459663,93.6489385 87.9739154,94.22086 88.9056902,94.686152 C89.837465,95.151444 91.0410074,95.38409 92.5163175,95.38409 Z M122.274876,66.2742587 C122.507819,66.4099689 122.837823,66.4584368 123.264886,66.4196625 C123.653126,66.3808881 124.216073,66.2160972 124.953728,65.9252897 C125.691383,65.6344822 126.438744,65.3049004 127.195811,64.9365442 C127.952878,64.568188 128.651709,64.2095254 129.292305,63.8605564 C129.9329,63.5115874 130.369669,63.2401671 130.602613,63.0462954 C131.0685,62.7361007 131.417916,62.3774381 131.65086,61.9703076 C131.883803,61.5631771 131.864391,60.9524814 131.592624,60.1382204 C131.398504,59.517831 131.087912,59.052539 130.660849,58.7423443 C130.233785,58.4321497 129.845546,58.4127625 129.49613,58.6841828 C129.030243,59.0331518 128.447884,59.4596695 127.749053,59.9637359 C126.54551,60.8555455 124.429605,62.3483574 121.401337,64.4421714 C121.401337,64.6360431 121.420749,64.8589955 121.459573,65.1110287 C121.498397,65.3630619 121.58575,65.5860143 121.721634,65.779886 C121.857518,65.9737576 122.041932,66.1385485 122.274876,66.2742587 Z M120.877213,95.849382 C122.507819,95.849382 124.186955,95.4616386 125.914621,94.686152 C127.642287,93.9106653 129.331128,92.892839 130.981146,91.6326732 C132.631164,90.3725073 134.193828,88.9378569 135.669138,87.3287221 C137.144449,85.7195872 138.464463,84.0619844 139.629181,82.3559137 C139.900949,81.9293961 140.036833,81.5513463 140.036833,81.2217645 C140.036833,80.8921826 139.949479,80.6595366 139.774771,80.5238265 C139.600063,80.3881163 139.36712,80.349342 139.07594,80.4075035 C138.78476,80.465665 138.503287,80.6498431 138.231519,80.9600377 C137.45504,81.8906217 136.474735,82.9956903 135.290605,84.2752433 C134.106474,85.5547963 132.825284,86.7858814 131.447034,87.9684986 C130.068784,89.1511158 128.661415,90.1592485 127.224929,90.9928966 C125.788443,91.8265448 124.410193,92.2433689 123.090178,92.2433689 C122.468995,92.2433689 121.857518,92.1561267 121.255747,91.9816422 C120.653976,91.8071577 120.120146,91.5163502 119.654259,91.1092197 C119.188371,90.7020891 118.800132,90.1689421 118.48954,89.5097784 C118.178949,88.8506147 118.004241,88.0363537 117.965417,87.0669953 C118.547776,86.6404777 119.227195,86.1654921 120.003674,85.6420386 C120.780153,85.118585 121.595456,84.5660508 122.449583,83.9844358 C123.226062,83.4415951 124.051071,82.8405929 124.92461,82.1814292 C125.798149,81.5222656 126.623158,80.7855532 127.399637,79.9712922 C128.176116,79.1570312 128.845829,78.2458343 129.408776,77.2377017 C129.971724,76.229569 130.311433,75.1245005 130.427905,73.9224961 C130.505553,72.8368147 130.214373,71.9256179 129.554366,71.1889056 C128.894359,70.4521932 127.8267,70.083837 126.35139,70.083837 C124.798432,70.083837 123.25518,70.5685162 121.721634,71.5378746 C120.188088,72.5072329 118.809838,73.7286244 117.586884,75.2020491 C116.363929,76.6754738 115.335094,78.2943023 114.500379,80.0585345 C113.665665,81.8227667 113.170659,83.4997566 113.015363,85.0895043 C112.821244,87.028221 112.966833,88.6761302 113.452133,90.0332319 C113.937432,91.3903336 114.587733,92.4954021 115.403036,93.3484374 C116.218339,94.2014728 117.120996,94.8315557 118.111007,95.2386862 C119.101018,95.6458167 120.023086,95.849382 120.877213,95.849382 Z M118.198361,83.6354668 C118.470128,82.0069447 118.87778,80.5626008 119.421315,79.3024349 C119.96485,78.0422691 120.54721,76.9759749 121.168393,76.1035524 C121.789576,75.2311299 122.420465,74.5622726 123.061061,74.0969806 C123.701656,73.6316886 124.254897,73.3990426 124.720784,73.3990426 C125.147848,73.3990426 125.477851,73.5638335 125.710795,73.8934153 C125.943739,74.2229972 126.021387,74.7561443 125.943739,75.4928566 C125.866091,76.1907946 125.497263,77.0244428 124.837256,77.9938012 C124.177249,78.9631595 123.012531,80.0876152 121.343101,81.3671682 C120.799565,81.7936859 120.25603,82.1911228 119.712495,82.559479 C119.168959,82.9278352 118.664248,83.2864978 118.198361,83.6354668 Z M152.732265,95.9075435 C153.586391,95.9075435 154.489048,95.6458167 155.440235,95.1223632 C156.391422,94.5989097 157.352315,93.9203589 158.322913,93.0867107 C159.293512,92.2530625 160.225287,91.3224785 161.118238,90.2949586 C162.011189,89.2674388 162.845904,88.2496125 163.622383,87.2414798 C164.398862,86.2333471 165.068575,85.283376 165.631522,84.3915663 C166.194469,83.4997566 166.611827,82.7824314 166.883595,82.2395907 C167.194186,81.6192014 167.349482,81.1054415 167.349482,80.698311 C167.349482,80.2911805 167.262128,80.0294537 167.08742,79.9131307 C166.912712,79.7968077 166.670063,79.8161949 166.359471,79.9712922 C166.04888,80.1263895 165.718876,80.4559714 165.36946,80.9600377 C164.864749,81.7355244 164.127094,82.7533507 163.156495,84.0135165 C162.185897,85.2736824 161.157062,86.5047675 160.069991,87.7067718 C158.982921,88.9087762 157.905556,89.936296 156.837897,90.7893314 C155.770239,91.6423667 154.886994,92.0688844 154.188163,92.0688844 C153.489332,92.0688844 153.110798,91.7586897 153.052562,91.1383004 C152.994326,90.5179111 153.08168,89.7811987 153.314624,88.9281634 C153.741687,87.609836 154.100809,86.3981381 154.391988,85.2930695 C154.683168,84.188001 154.925818,83.2283363 155.119938,82.4140752 L155.119938,82.4140752 L155.760533,79.8549692 C156.109948,78.6141905 156.255538,77.4703477 156.197302,76.4234406 C156.139066,75.3765336 155.944946,74.4750304 155.614943,73.7189308 C155.284939,72.9628313 154.828758,72.3715227 154.246399,71.9450051 C153.664039,71.5184874 153.004032,71.3052286 152.266377,71.3052286 C151.373426,71.3052286 150.499887,71.4894066 149.645761,71.8577628 C148.791634,72.226119 147.986037,72.7011046 147.22897,73.2827196 C146.471903,73.8643346 145.773071,74.5138047 145.132476,75.2311299 C144.491881,75.9484551 143.919228,76.6560866 143.414516,77.3540247 C143.64746,76.694861 143.84158,76.0550845 143.996876,75.4346951 C144.152172,74.8918544 144.307467,74.3780945 144.462763,73.8934153 C144.618059,73.4087362 144.753943,73.0306864 144.870415,72.7592661 C144.637471,72.5653944 144.375409,72.4199907 144.08423,72.3230548 C143.79305,72.226119 143.511576,72.1582639 143.239809,72.1194896 C142.929217,72.0807152 142.618626,72.0613281 142.308034,72.0613281 C141.958618,72.1001024 141.628615,72.1776511 141.318023,72.2939741 C141.007432,72.3715227 140.706546,72.4781522 140.415366,72.6138623 C140.124187,72.7495725 139.842713,72.9337506 139.570945,73.1663966 C139.182706,74.6398213 138.842996,75.996923 138.551817,77.2377017 C138.260637,78.4784803 138.017987,79.5641617 137.823868,80.4947457 C137.590924,81.5804271 137.377392,82.5691726 137.183272,83.4609823 C136.911505,84.585438 136.620325,85.7680551 136.309734,87.0088338 L136.193717,87.4709451 C135.924072,88.5417832 135.661859,89.5606697 135.407077,90.5276046 C135.115897,91.6326732 134.863541,92.5923379 134.65001,93.4065989 C134.436478,94.22086 134.3103,94.7443135 134.271476,94.9769595 C134.193828,95.3259285 134.397654,95.500413 134.882953,95.500413 C135.368253,95.500413 135.940906,95.38409 136.600913,95.151444 C137.26092,94.918798 137.882104,94.6182969 138.464463,94.2499407 C139.046822,93.8815845 139.396238,93.5035348 139.512709,93.1157914 C139.629181,92.5729508 139.765065,92.0010293 139.920361,91.4000272 C140.075657,90.799025 140.240659,90.101087 140.415366,89.3062131 C140.590074,88.5113393 140.7939,87.6195296 141.026844,86.6307841 C141.259787,85.6420386 141.550967,84.4885021 141.900382,83.1701748 C142.56039,82.2008164 143.230103,81.2605388 143.909522,80.349342 C144.588941,79.4381451 145.26836,78.6335777 145.947779,77.9356397 C146.627198,77.2377017 147.296912,76.6851674 147.956919,76.2780369 C148.616926,75.8709064 149.257521,75.6673411 149.878704,75.6673411 C150.383416,75.6673411 150.713419,75.9484551 150.868715,76.5106829 C151.024011,77.0729107 151.062835,77.7902359 150.985187,78.6626584 C150.907539,79.5350809 150.742537,80.5044393 150.490181,81.5707335 C150.237826,82.6370277 149.966058,83.7033219 149.674878,84.769616 C149.383699,85.8359102 149.102225,86.8246557 148.830458,87.7358526 C148.55869,88.6470494 148.36457,89.3740682 148.248098,89.9169089 C148.053979,90.7311699 148.015155,91.496963 148.131626,92.2142882 C148.248098,92.9316134 148.500454,93.5616963 148.888694,94.104537 C149.276933,94.6473776 149.79135,95.0835889 150.431946,95.4131707 C151.072541,95.7427526 151.839314,95.9075435 152.732265,95.9075435 Z M171.193053,95.7912205 C172.086004,95.7912205 173.192486,95.3065413 174.512501,94.337183 C175.832515,93.3678246 177.191353,92.1367395 178.589016,90.6439276 C179.986678,89.1511158 181.316398,87.5516745 182.578176,85.8456038 C183.839955,84.1395331 184.859084,82.5497854 185.635563,81.0763607 C185.868506,80.6110687 185.975272,80.2427125 185.95586,79.9712922 C185.936448,79.6998719 185.849094,79.5060002 185.693798,79.3896772 C185.538503,79.2733542 185.334677,79.2442734 185.082321,79.3024349 C184.829966,79.3605964 184.62614,79.5060002 184.470844,79.7386462 C184.2379,80.0488409 183.830249,80.581988 183.24789,81.3380875 C182.66553,82.094187 181.986111,82.9375288 181.209632,83.8681128 C180.433153,84.7986968 179.588732,85.748668 178.676369,86.7180263 C177.764007,87.6873847 176.86135,88.5791944 175.968399,89.3934554 C175.075448,90.2077164 174.211615,90.8571865 173.3769,91.3418657 C172.542185,91.8265448 171.833648,92.0301101 171.251289,91.9525614 C170.513634,91.9137871 169.892451,91.6811411 169.387739,91.2546234 C168.960676,90.8668801 168.601554,90.2367971 168.310375,89.3643746 C168.019195,88.4919521 167.990077,87.2220927 168.223021,85.5547963 C169.232444,83.2283363 170.144806,81.0375864 170.960109,78.9825467 C171.775412,76.927507 172.474243,75.1051133 173.056603,73.5153656 C173.71661,71.6929719 174.298969,70.0062884 174.80368,68.455315 C175.036624,67.7961513 175.221038,67.1660684 175.356922,66.5650662 C175.492806,65.964064 175.638395,65.3533683 175.793691,64.7329789 C176.104283,64.7329789 176.405168,64.7232854 176.696348,64.7038982 C176.987528,64.684511 177.249589,64.6748174 177.482533,64.6748174 C178.724899,64.6748174 179.81197,64.7135918 180.743745,64.7911404 C181.67552,64.8686891 182.481117,64.9462378 183.160536,65.0237864 C183.839955,65.1013351 184.422314,65.1982709 184.907613,65.3145939 C185.392913,65.4309169 185.829682,65.5084656 186.217922,65.54724 C186.606161,65.6247886 186.955577,65.54724 187.266168,65.3145939 C187.57676,65.0819479 187.799998,64.800834 187.935882,64.4712522 C188.071765,64.1416703 188.130001,63.8217821 188.110589,63.5115874 C188.091177,63.2013927 187.945588,63.0075211 187.67382,62.9299724 C187.402052,62.8524237 186.994401,62.70702 186.450865,62.4937611 C185.90733,62.2805023 185.189087,62.0672435 184.296136,61.8539846 C183.403185,61.6407258 182.325821,61.4468541 181.064042,61.2723696 C179.802264,61.0978851 178.356072,61.0106429 176.725466,61.0106429 C177.113705,59.0331518 177.327237,57.4046298 177.366061,56.1250768 C177.404885,54.8455238 177.327237,54.0506499 177.133117,53.7404552 C176.938998,53.5078092 176.628406,53.3624055 176.201343,53.304244 C175.774279,53.2460825 175.327804,53.2460825 174.861916,53.304244 C174.396029,53.3624055 173.959259,53.4593413 173.551608,53.5950515 C173.143957,53.7307617 172.881895,53.8955526 172.765423,54.0894242 C172.377183,54.6322649 171.940414,55.5919297 171.455115,56.9684186 C170.969815,58.3449074 170.47481,59.9637359 169.970099,61.8249039 C169.310091,61.9412269 168.640378,62.0381627 167.960959,62.1157114 C167.28154,62.1932601 166.573003,62.2514216 165.835348,62.2901959 C164.825925,62.3289702 163.89415,62.3192766 163.040023,62.2611151 C162.185897,62.2029536 161.390006,62.1350986 160.65235,62.0575499 C160.419407,62.0575499 160.157345,62.1641793 159.866165,62.3774381 C159.574986,62.590697 159.332336,62.8427302 159.138216,63.1335377 C158.944097,63.4243452 158.827625,63.7151527 158.788801,64.0059602 C158.749977,64.2967677 158.885861,64.5197201 159.196452,64.6748174 C159.739988,64.9462378 160.564997,65.2273517 161.671479,65.5181592 C162.777962,65.8089667 163.952386,65.9543705 165.194753,65.9543705 C165.738288,65.9543705 166.340059,65.9155961 167.000066,65.8380475 C167.660074,65.7604988 168.320081,65.6829501 168.980088,65.6054015 C168.436553,67.8543128 167.922135,70.1904664 167.436836,72.6138623 C166.951536,75.0372582 166.514767,77.3055567 166.126527,79.4187579 C165.738288,81.5319591 165.427696,83.3931272 165.194753,85.002262 C164.961809,86.6113969 164.825925,87.726159 164.787101,88.3465484 C164.709453,89.0832607 164.767689,89.8878281 164.961809,90.7602506 C165.155929,91.6326732 165.495638,92.4372406 165.980938,93.1739529 C166.466237,93.9106653 167.13595,94.5310546 167.990077,95.035121 C168.844204,95.5391873 169.911863,95.7912205 171.193053,95.7912205 Z M184.2379,95.3259285 C185.402619,95.2483798 186.567337,94.9963466 187.732056,94.569829 C188.741479,94.1820856 189.809137,93.5713899 190.935032,92.7377417 C192.060926,91.9040935 193.089761,90.7117827 194.021536,89.1608094 C193.982712,90.2077164 194.050654,91.0801389 194.225362,91.7780769 C194.400069,92.4760149 194.584483,93.0382428 194.778603,93.4647604 C195.011547,93.9688268 195.302726,94.3565701 195.652142,94.6279905 C196.001557,94.8606365 196.409209,95.0254274 196.875096,95.1223632 C197.340984,95.2192991 197.835989,95.2483798 198.360112,95.2096055 C198.884236,95.1708311 199.398653,95.0738953 199.903364,94.918798 C200.408076,94.7637006 200.854551,94.569829 201.242791,94.337183 C201.82515,93.9494396 202.553099,93.2805824 203.426638,92.3306112 C204.300177,91.38064 205.193128,90.333733 206.10549,89.1898901 C207.017853,88.0460473 207.901098,86.9022044 208.755225,85.7583616 C209.609352,84.6145187 210.308183,83.6548539 210.851718,82.8793673 C211.317606,82.2589779 211.599079,81.7161372 211.696139,81.2508452 C211.793199,80.7855532 211.764081,80.4365842 211.608785,80.2039382 C211.45349,79.9712922 211.220546,79.88405 210.909954,79.9422115 C210.599363,80.000373 210.288771,80.2039382 209.978179,80.5529072 C209.745236,80.8631019 209.366702,81.3477811 208.842579,82.0069447 C208.318456,82.6661084 207.72639,83.4222079 207.066383,84.2752433 C206.406376,85.1282786 205.697839,86.0103947 204.940772,86.9215916 C204.183705,87.8327884 203.455756,88.6664366 202.756925,89.4225361 C202.058094,90.1786356 201.398086,90.799025 200.776903,91.2837042 C200.15572,91.7683833 199.651009,92.0107229 199.262769,92.0107229 C198.796882,92.0107229 198.43776,91.9040935 198.185404,91.6908347 C197.933049,91.4775758 197.748635,91.1964619 197.632163,90.8474929 C197.515691,90.4985239 197.447749,90.1204741 197.428337,89.7133436 C197.408925,89.3062131 197.418631,88.9281634 197.457455,88.5791944 C197.573927,87.9975793 197.670987,87.5129002 197.748635,87.1251568 C197.826283,86.7374135 197.894225,86.3981381 197.952461,86.1073306 C198.010697,85.8165231 198.068933,85.5257156 198.127169,85.234908 C198.185404,84.9441005 198.253346,84.6242123 198.330994,84.2752433 C198.719234,82.4916239 199.029825,81.0375864 199.262769,79.9131307 C199.495713,78.788675 199.670421,77.8968653 199.786892,77.2377017 C199.903364,76.578538 199.9616,76.1229396 199.9616,75.8709064 C199.9616,75.6188732 199.942188,75.4540823 199.903364,75.3765336 C199.825716,75.3377593 199.670421,75.3183721 199.437477,75.3183721 C199.243357,75.3183721 198.961884,75.3377593 198.593056,75.3765336 C198.224228,75.415308 197.768047,75.4928566 197.224512,75.6091796 C198.039815,74.3684009 198.360112,73.3699618 198.185404,72.6138623 C198.010697,71.8577628 197.651575,71.2858414 197.10804,70.898098 C196.448033,70.4715804 195.593906,70.1613857 194.545659,69.967514 C193.652708,69.8899654 192.526814,70.20016 191.167975,70.898098 C189.809137,71.5960361 188.430887,72.6332495 187.033225,74.0097384 C185.635563,75.3862272 184.344666,77.04383 183.160536,78.9825467 C181.976405,80.9212634 181.112572,83.0732389 180.569037,85.4384733 C180.141974,87.1833183 179.986678,88.6858238 180.10315,89.9459896 C180.219621,91.2061555 180.491389,92.2336753 180.918453,93.0285492 C181.345516,93.823423 181.869639,94.405038 182.490823,94.7733942 C183.112006,95.1417504 183.694365,95.3259285 184.2379,95.3259285 Z M187.324404,90.8184121 C186.780869,90.8377993 186.29557,90.6342341 185.868506,90.2077164 C185.635563,89.9750704 185.480267,89.4806976 185.402619,88.7245981 C185.324971,87.9684986 185.354089,87.0863825 185.489973,86.0782498 C185.625857,85.0701171 185.868506,83.9941294 186.217922,82.8502865 C186.567337,81.7064437 187.033225,80.6304559 187.615584,79.6223232 C189.013246,77.1795402 190.245907,75.5025502 191.313565,74.5913534 C192.381224,73.6801565 193.128585,73.3990426 193.555648,73.7480116 C193.67212,73.9031089 193.749768,74.1163678 193.788592,74.3877881 C193.827416,74.6204341 193.81771,74.9403224 193.759474,75.3474529 C193.701238,75.7545834 193.516824,76.2683433 193.206233,76.8887327 C193.516824,76.811184 193.827416,76.7530225 194.138008,76.7142481 C194.448599,76.6754738 194.700955,76.6173123 194.895075,76.5397636 C195.128018,76.462215 195.34155,76.4040535 195.53567,76.3652791 C195.690966,76.3265048 195.720084,76.6270059 195.623024,77.2667824 C195.525964,77.9065589 195.380374,78.7111263 195.186254,79.6804847 C194.992135,80.6498431 194.759191,81.6579757 194.487423,82.7048828 C194.215656,83.7517898 193.982712,84.6629866 193.788592,85.4384733 C193.749768,85.632345 193.584766,85.9425396 193.293587,86.3690573 C193.002407,86.795575 192.63358,87.260867 192.187104,87.7649333 C191.740629,88.2689997 191.235917,88.7536789 190.67297,89.2189709 C190.110023,89.6842629 189.547076,90.0623126 188.984128,90.3531201 C188.421181,90.6439276 187.86794,90.799025 187.324404,90.8184121 Z M238.630255,95.849382 C240.260861,95.849382 241.833231,95.3647028 243.347365,94.3953445 C244.861499,93.4259861 246.288279,92.2239818 247.627705,90.7893314 C248.967132,89.354681 250.199792,87.8134013 251.325687,86.1654921 C252.451581,84.5175829 253.402768,83.0150774 254.179247,81.6579757 C254.412191,81.1926837 254.518957,80.8049404 254.499545,80.4947457 C254.480133,80.184551 254.383073,79.9615986 254.208365,79.8258885 C254.033657,79.6901783 253.820125,79.6417104 253.56777,79.6804847 C253.315414,79.719259 253.072764,79.8743564 252.839821,80.1457767 C252.179813,80.9600377 251.364511,82.0457191 250.393912,83.4028208 C249.423313,84.7599225 248.384772,86.0782498 247.27829,87.3578028 C246.171807,88.6373559 245.036207,89.7424244 243.871488,90.6730084 C242.70677,91.6035924 241.639111,92.0688844 240.668512,92.0688844 C239.426146,92.0688844 239.018494,91.0995261 239.445558,89.1608094 L239.445558,89.1608094 L241.425579,81.3090067 C241.658523,80.2620997 241.823525,79.1764184 241.920585,78.0519627 C242.017644,76.927507 241.959409,75.8806 241.745877,74.9112416 C241.532345,73.9418833 241.144106,73.1470094 240.581158,72.5266201 C240.018211,71.9062307 239.212614,71.5960361 238.164367,71.5960361 C237.271417,71.5960361 236.378466,71.8092949 235.485515,72.2358126 C234.592564,72.6623302 233.728731,73.2051709 232.894016,73.8643346 C232.059301,74.5234983 231.26341,75.2699042 230.506343,76.1035524 C229.749276,76.9372006 229.060151,77.7611552 228.438968,78.5754162 C228.55544,77.6448322 228.594264,76.7433289 228.55544,75.8709064 C228.516616,74.9984839 228.371026,74.2423844 228.11867,73.6026078 C227.866315,72.9628313 227.516899,72.4490714 227.070424,72.0613281 C226.623948,71.6735847 226.070707,71.4797131 225.4107,71.4797131 C224.556573,71.4797131 223.69274,71.6735847 222.819201,72.0613281 C221.945662,72.4490714 221.081829,72.9725249 220.227702,73.6316886 C219.373575,74.2908523 218.529154,75.0372582 217.69444,75.8709064 C216.859725,76.7045546 216.07354,77.5866707 215.335885,78.5172547 C215.646476,77.3152503 215.87942,76.4040535 216.034716,75.7836641 C216.461779,73.6510758 216.054128,72.5847816 214.811761,72.5847816 C214.539994,72.5847816 214.20999,72.6429431 213.821751,72.7592661 C213.511159,72.8368147 213.103507,72.9531377 212.598796,73.1082351 C212.094085,73.2633324 211.511725,73.4959784 210.851718,73.8061731 C210.929366,74.0775934 210.958484,74.4168689 210.939072,74.8239994 C210.91966,75.2311299 210.87113,75.647954 210.793482,76.0744716 C210.715834,76.5397636 210.618775,77.0244428 210.502303,77.5285092 L210.502303,77.5285092 L206.833439,92.7086609 C206.63932,93.5616963 206.600496,94.2014728 206.716968,94.6279905 C206.833439,95.0545081 207.017853,95.3356221 207.270209,95.4713322 C207.522565,95.6070424 207.794332,95.6555103 208.085512,95.616736 C208.376691,95.5779616 208.619341,95.5198001 208.813461,95.4422515 L208.813461,95.4422515 L211.725257,94.1626985 C211.802905,93.8912781 211.861141,93.6004706 211.899965,93.2902759 C211.938789,92.9800813 211.997025,92.6892738 212.074673,92.4178534 C212.152321,92.1076588 212.229969,91.7974641 212.307616,91.4872694 L212.307616,91.4872694 L212.307616,91.6035924 C213.006448,88.424097 213.850868,85.8359102 214.840879,83.839032 C215.83089,81.8421538 216.830607,80.2814869 217.840029,79.1570312 C218.849452,78.0325755 219.761815,77.276476 220.577118,76.8887327 C221.392421,76.5009893 221.97478,76.3071176 222.324196,76.3071176 C222.790083,76.3071176 223.149205,76.4428278 223.40156,76.7142481 C223.653916,76.9856685 223.780094,77.4897348 223.780094,78.2264472 C223.780094,79.2733542 223.634504,80.5044393 223.343324,81.9197025 C223.052145,83.3349657 222.712435,84.7502289 222.324196,86.1654921 C221.935956,87.5807553 221.538011,88.889389 221.130359,90.0913934 C220.722708,91.2933977 220.441234,92.1658203 220.285938,92.7086609 C219.975347,93.8331166 219.936523,94.5407482 220.169466,94.8315557 C220.40241,95.1223632 220.907121,95.2483798 221.6836,95.2096055 C221.955368,95.1708311 222.26596,95.1126696 222.615375,95.035121 C223.275382,94.918798 223.974214,94.6667648 224.711869,94.2790215 C225.294228,90.7893314 226.099825,87.9103371 227.12866,85.6420386 C228.157494,83.37374 229.205741,81.5707335 230.273399,80.233019 C231.341058,78.8953044 232.331069,77.9550268 233.243432,77.4121862 C234.155795,76.8693455 234.767272,76.5979251 235.077863,76.5979251 C235.737871,76.5979251 236.203758,76.8693455 236.475526,77.4121862 C236.747293,77.9550268 236.766705,78.7305135 236.533761,79.7386462 C236.339642,80.5529072 236.106698,81.4834912 235.83493,82.5303983 C235.563163,83.5773053 235.291395,84.653293 235.019627,85.7583616 C234.74786,86.8634301 234.524622,87.9394178 234.349914,88.9863249 C234.175207,90.0332319 234.087853,90.9638159 234.087853,91.7780769 C234.087853,92.5923379 234.223736,93.2611952 234.495504,93.7846487 C234.767272,94.3081022 235.126393,94.7249263 235.572869,95.035121 C236.019344,95.3453156 236.504644,95.5585745 237.028767,95.6748975 C237.55289,95.7912205 238.08672,95.849382 238.630255,95.849382 Z M257.382223,95.849382 C259.012829,95.849382 260.691965,95.4616386 262.41963,94.686152 C264.147296,93.9106653 265.836138,92.892839 267.486156,91.6326732 C269.136174,90.3725073 270.698838,88.9378569 272.174148,87.3287221 C273.649458,85.7195872 274.969472,84.0619844 276.134191,82.3559137 C276.405959,81.9293961 276.541842,81.5513463 276.541842,81.2217645 C276.541842,80.8921826 276.454488,80.6595366 276.279781,80.5238265 C276.105073,80.3881163 275.872129,80.349342 275.58095,80.4075035 C275.28977,80.465665 275.008296,80.6498431 274.736529,80.9600377 C273.96005,81.8906217 272.979745,82.9956903 271.795614,84.2752433 C270.611484,85.5547963 269.330294,86.7858814 267.952043,87.9684986 C266.573793,89.1511158 265.166425,90.1592485 263.729939,90.9928966 C262.293453,91.8265448 260.915202,92.2433689 259.595188,92.2433689 C258.974005,92.2433689 258.362528,92.1561267 257.760756,91.9816422 C257.158985,91.8071577 256.625156,91.5163502 256.159268,91.1092197 C255.693381,90.7020891 255.305141,90.1689421 254.99455,89.5097784 C254.683958,88.8506147 254.509251,88.0363537 254.470427,87.0669953 C255.052786,86.6404777 255.732205,86.1654921 256.508684,85.6420386 C257.285163,85.118585 258.100466,84.5660508 258.954593,83.9844358 C259.731072,83.4415951 260.556081,82.8405929 261.42962,82.1814292 C262.303159,81.5222656 263.128168,80.7855532 263.904647,79.9712922 C264.681126,79.1570312 265.350839,78.2458343 265.913786,77.2377017 C266.476733,76.229569 266.816443,75.1245005 266.932915,73.9224961 C267.010563,72.8368147 266.719383,71.9256179 266.059376,71.1889056 C265.399369,70.4521932 264.33171,70.083837 262.8564,70.083837 C261.303442,70.083837 259.76019,70.5685162 258.226644,71.5378746 C256.693098,72.5072329 255.314847,73.7286244 254.091893,75.2020491 C252.868939,76.6754738 251.840104,78.2943023 251.005389,80.0585345 C250.170674,81.8227667 249.675669,83.4997566 249.520373,85.0895043 C249.326253,87.028221 249.471843,88.6761302 249.957142,90.0332319 C250.442442,91.3903336 251.092743,92.4954021 251.908046,93.3484374 C252.723349,94.2014728 253.626006,94.8315557 254.616016,95.2386862 C255.606027,95.6458167 256.528096,95.849382 257.382223,95.849382 Z M254.70337,83.6354668 C254.975138,82.0069447 255.382789,80.5626008 255.926325,79.3024349 C256.46986,78.0422691 257.052219,76.9759749 257.673402,76.1035524 C258.294586,75.2311299 258.925475,74.5622726 259.56607,74.0969806 C260.206665,73.6316886 260.759907,73.3990426 261.225794,73.3990426 C261.652857,73.3990426 261.982861,73.5638335 262.215805,73.8934153 C262.448748,74.2229972 262.526396,74.7561443 262.448748,75.4928566 C262.3711,76.1907946 262.002273,77.0244428 261.342266,77.9938012 C260.682259,78.9631595 259.51754,80.0876152 257.84811,81.3671682 C257.304575,81.7936859 256.76104,82.1911228 256.217504,82.559479 C255.673969,82.9278352 255.169258,83.2864978 254.70337,83.6354668 Z" id="Cuéntame" fill="#B39898" fill-rule="nonzero"></path>
                        <path d="M134.285342,154.170135 C135.022997,154.499717 135.877124,154.64512 136.847723,154.606346 C137.740673,154.606346 138.653036,154.451249 139.584811,154.141054 C140.516586,153.830859 141.467773,153.34618 142.438371,152.687016 C141.700716,152.764565 141.060121,152.706404 140.516586,152.512532 C139.973051,152.31866 139.507163,152.018159 139.118924,151.611029 C138.730684,151.203898 138.420093,150.728913 138.187149,150.186072 C137.954205,149.643231 137.779497,149.081003 137.663026,148.499388 C137.352434,147.142287 137.235962,145.571926 137.31361,143.788307 C137.430082,142.198559 137.692144,140.240455 138.099795,137.913995 C138.507446,135.587535 138.98304,133.096284 139.526575,130.440242 C140.07011,127.7842 140.642764,125.079691 141.244535,122.326713 C141.846306,119.573735 142.409253,116.985548 142.933377,114.562153 C143.4575,112.138757 143.903976,109.977088 144.272803,108.077145 C144.641631,106.177203 144.864868,104.76194 144.942516,103.831356 C145.020164,103.055869 145.039576,102.483947 145.000752,102.115591 C144.961928,101.747235 144.903692,101.485508 144.826044,101.330411 C144.78722,101.252862 144.661043,101.117152 144.447511,100.923281 C144.233979,100.729409 143.874858,100.574312 143.370146,100.457989 C143.176027,100.38044 142.797493,100.390133 142.234546,100.487069 C141.671598,100.584005 141.069827,100.748796 140.429232,100.981442 C139.788637,101.214088 139.186866,101.485508 138.623918,101.795703 C138.060971,102.105898 137.663026,102.454867 137.430082,102.84261 C137.11949,103.385451 136.624485,104.354809 135.945066,105.750685 C135.265647,107.146561 134.527992,108.678147 133.732101,110.345444 C132.93621,112.01274 132.150025,113.680036 131.373546,115.347333 C130.597067,117.014629 129.975883,118.391118 129.509996,119.476799 C129.199404,120.29106 128.772341,121.308887 128.228806,122.530278 C127.68527,123.75167 127.102911,125.069997 126.481728,126.48526 C125.860545,127.900523 125.239361,129.373948 124.618178,130.905534 C123.996995,132.437121 123.434048,133.900852 122.929336,135.296728 C122.851688,134.753887 122.783747,134.201353 122.725511,133.639125 C122.667275,133.076897 122.638157,132.466201 122.638157,131.807038 C122.560509,130.566259 122.589627,129.005592 122.725511,127.125037 C122.861394,125.244482 123.01669,123.315458 123.191398,121.337967 C123.366106,119.360476 123.531108,117.470228 123.686403,115.667221 C123.841699,113.864215 123.899935,112.419871 123.861111,111.334189 C123.861111,110.519928 123.841699,109.608731 123.802875,108.600599 C123.764051,107.747563 123.734933,106.758818 123.715521,105.634362 C123.696109,104.509906 123.647579,103.307902 123.569932,102.028349 C123.569932,101.718154 123.531108,101.43704 123.45346,101.185007 C123.375812,100.932974 123.220516,100.729409 122.987572,100.574312 C122.754629,100.419214 122.414919,100.361053 121.968444,100.399827 C121.521968,100.438601 120.910491,100.593699 120.134012,100.865119 C119.551653,101.058991 119.027529,101.252862 118.561642,101.446734 C118.134579,101.640606 117.756045,101.824784 117.426041,101.999268 C117.096038,102.173753 116.931036,102.357931 116.931036,102.551803 C115.999261,104.839488 115.174252,106.962383 114.456009,108.920487 C113.737766,110.878591 113.145701,112.594355 112.679813,114.06778 C112.097454,115.77385 111.612155,117.344211 111.223915,118.778861 C110.020373,122.191003 109.10801,125.45774 108.486827,128.579074 C107.865644,131.700408 107.283284,134.501854 106.739749,136.983411 C106.467981,138.22419 106.167096,139.455275 105.837092,140.676667 C105.507089,141.898058 105.167379,143.032207 104.817964,144.079114 C104.468548,145.126021 104.138544,146.046912 103.827953,146.841786 C103.517361,147.636659 103.245594,148.227968 103.01265,148.615711 C102.81853,149.003455 102.614704,149.333037 102.401173,149.604457 C102.187641,149.875877 101.983815,150.011587 101.789695,150.011587 C101.595576,150.011587 101.382044,149.827409 101.1491,149.459053 C100.916157,149.090697 100.702625,148.567243 100.508505,147.888693 C100.314385,147.210142 100.168795,146.395881 100.071736,145.44591 C99.9746757,144.495938 99.9649697,143.439338 100.042618,142.276108 C100.159089,140.919006 100.430857,139.445581 100.857921,137.855834 C101.284984,136.266086 101.925579,134.579402 102.779706,132.795783 C103.090298,132.175394 103.400889,131.593779 103.711481,131.050938 C104.022073,130.508097 104.138544,130.023418 104.060897,129.596901 C104.022073,129.480578 103.944425,129.344867 103.827953,129.18977 C103.711481,129.073447 103.556185,128.966818 103.362065,128.869882 C103.167946,128.772946 102.91559,128.685704 102.604998,128.608155 C101.129688,130.120354 99.9552638,131.671327 99.0817249,133.261075 C98.208186,134.850823 97.5578848,136.30486 97.1308214,137.623188 C96.62611,139.174161 96.2766945,140.666973 96.0825747,142.101623 C95.9272789,143.962791 95.9272789,145.678556 96.0825747,147.248916 C96.2378705,148.819277 96.596992,150.156991 97.1599393,151.26206 C97.7228866,152.367128 98.4993656,153.21047 99.4893764,153.792085 C100.479387,154.3737 101.731459,154.64512 103.245594,154.606346 C104.720904,154.567572 105.924446,153.937489 106.856221,152.716097 C107.787996,151.494706 108.545063,150.001894 109.127422,148.237662 C109.709781,146.473429 110.195081,144.602568 110.58332,142.625077 C110.97156,140.647586 111.359799,138.883354 111.748039,137.33238 C111.980982,136.363022 112.291574,135.073775 112.679813,133.46464 C113.068053,131.855506 113.48541,130.100967 113.931886,128.201025 C114.378361,126.301082 114.844249,124.323591 115.329548,122.268551 C115.814847,120.213512 116.290441,118.255408 116.756328,116.39424 C117.222216,114.533072 117.668691,112.836695 118.095755,111.305108 C118.522818,109.773522 118.911058,108.561824 119.260473,107.670015 C119.338121,108.212855 119.415769,108.804164 119.493417,109.44394 C119.571065,110.083717 119.590477,110.791349 119.551653,111.566835 C119.551653,112.613742 119.474005,113.864215 119.318709,115.318252 C119.163413,116.77229 118.998411,118.332957 118.823704,120.000253 C118.648996,121.667549 118.474288,123.412394 118.29958,125.234788 C118.124873,127.057182 117.998695,128.860188 117.921047,130.643808 C117.765751,134.249821 117.882223,137.293606 118.270462,139.775163 C118.658702,142.256721 119.085765,143.924017 119.551653,144.777052 C120.01754,145.707636 120.696959,146.172928 121.58991,146.172928 C121.822854,146.172928 122.065503,146.134154 122.317859,146.056605 C122.570215,145.979057 122.8711,145.882121 123.220516,145.765798 L123.220516,145.765798 L125.549953,143.962791 C125.472305,143.691371 125.423775,143.400563 125.404363,143.090369 C125.384951,142.780174 125.375245,142.508754 125.375245,142.276108 L125.375245,142.276108 L125.375245,141.461847 C125.452893,140.647586 125.734367,139.484356 126.219666,137.972157 C126.704966,136.459958 127.316443,134.753887 128.054098,132.853945 C128.791753,130.954002 129.626468,128.94743 130.558243,126.834229 C131.490017,124.721028 132.441204,122.656295 133.411803,120.640029 C133.994162,119.399251 134.605639,118.110004 135.246235,116.77229 C135.88683,115.434575 136.517719,114.145328 137.138902,112.90455 C137.760085,111.663771 138.352151,110.500541 138.915098,109.41486 C139.478045,108.329178 139.953639,107.398594 140.341878,106.623108 C140.26423,106.933302 140.196288,107.291965 140.138052,107.699095 C140.079816,108.106226 140.011875,108.542437 139.934227,109.007729 C139.817755,109.589344 139.526575,110.810736 139.060688,112.671904 C138.5948,114.533072 138.041559,116.752902 137.400964,119.331396 C136.760369,121.909889 136.08095,124.662867 135.362707,127.590329 C134.644463,130.517791 133.984456,133.32893 133.382685,136.023746 C132.780914,138.718563 132.266496,141.132265 131.839433,143.264853 C131.41237,145.397442 131.160014,146.929028 131.082366,147.859612 C131.004718,148.867745 131.082366,149.788635 131.31531,150.622283 C131.548253,151.455931 131.917081,152.173257 132.421792,152.774259 C132.926504,153.375261 133.547687,153.840553 134.285342,154.170135 Z M155.250275,115.550898 C155.483219,115.686608 155.813222,115.735076 156.240286,115.696302 C156.628525,115.657527 157.191473,115.492737 157.929128,115.201929 C158.666783,114.911122 159.414144,114.58154 160.171211,114.213184 C160.928278,113.844827 161.627109,113.486165 162.267704,113.137196 C162.908299,112.788227 163.345069,112.516806 163.578012,112.322935 C164.0439,112.01274 164.393315,111.654077 164.626259,111.246947 C164.859203,110.839816 164.839791,110.229121 164.568023,109.41486 C164.373903,108.79447 164.063312,108.329178 163.636248,108.018984 C163.209185,107.708789 162.820945,107.689402 162.47153,107.960822 C162.005642,108.309791 161.423283,108.736309 160.724452,109.240375 C159.52091,110.132185 157.405004,111.624997 154.376736,113.718811 C154.376736,113.912682 154.396148,114.135635 154.434972,114.387668 C154.473796,114.639701 154.56115,114.862654 154.697034,115.056525 C154.832918,115.250397 155.017331,115.415188 155.250275,115.550898 Z M148.902559,144.602568 C150.067278,144.525019 151.231996,144.272986 152.396715,143.846468 C153.406137,143.458725 154.473796,142.848029 155.599691,142.014381 C156.725585,141.180733 157.75442,139.988422 158.686195,138.437449 C158.647371,139.484356 158.715313,140.356778 158.89002,141.054716 C159.064728,141.752654 159.249142,142.314882 159.443262,142.7414 C159.676205,143.245466 159.967385,143.633209 160.316801,143.90463 C160.666216,144.137276 161.073868,144.302067 161.539755,144.399003 C162.005642,144.495938 162.500648,144.525019 163.024771,144.486245 C163.548894,144.44747 164.063312,144.350535 164.568023,144.195437 C165.072735,144.04034 165.51921,143.846468 165.907449,143.613822 C166.489809,143.226079 167.217758,142.557222 168.091297,141.607251 C168.964836,140.657279 169.857786,139.610372 170.770149,138.466529 C171.682512,137.322687 172.565757,136.178844 173.419884,135.035001 C174.274011,133.891158 174.972842,132.931493 175.516377,132.156007 C175.982265,131.535617 176.263738,130.992777 176.360798,130.527485 C176.457858,130.062193 176.42874,129.713224 176.273444,129.480578 C176.118148,129.247932 175.885205,129.160689 175.574613,129.218851 C175.264022,129.277012 174.95343,129.480578 174.642838,129.829547 C174.409895,130.139741 174.031361,130.62442 173.507238,131.283584 C172.983114,131.942748 172.391049,132.698847 171.731042,133.551883 C171.071035,134.404918 170.362498,135.287034 169.605431,136.198231 C168.848364,137.109428 168.120415,137.943076 167.421584,138.699175 C166.722752,139.455275 166.062745,140.075664 165.441562,140.560343 C164.820379,141.045023 164.315668,141.287362 163.927428,141.287362 C163.461541,141.287362 163.102419,141.180733 162.850063,140.967474 C162.597708,140.754215 162.413294,140.473101 162.296822,140.124132 C162.18035,139.775163 162.112408,139.397113 162.092996,138.989983 C162.073584,138.582852 162.08329,138.204803 162.122114,137.855834 C162.238586,137.274219 162.335646,136.78954 162.413294,136.401796 C162.490942,136.014053 162.558884,135.674777 162.61712,135.38397 C162.675356,135.093162 162.733592,134.802355 162.791827,134.511547 C162.850063,134.22074 162.918005,133.900852 162.995653,133.551883 C163.383893,131.768263 163.694484,130.314226 163.927428,129.18977 C164.160372,128.065314 164.335079,127.173505 164.451551,126.514341 C164.568023,125.855177 164.626259,125.399579 164.626259,125.147546 C164.626259,124.895513 164.606847,124.730722 164.568023,124.653173 C164.490375,124.614399 164.335079,124.595011 164.102136,124.595011 C163.908016,124.595011 163.626542,124.614399 163.257715,124.653173 C162.888887,124.691947 162.432706,124.769496 161.889171,124.885819 C162.704474,123.64504 163.024771,122.646601 162.850063,121.890502 C162.675356,121.134402 162.316234,120.562481 161.772699,120.174737 C161.112692,119.74822 160.258565,119.438025 159.210318,119.244153 C158.317367,119.166605 157.191473,119.476799 155.832634,120.174737 C154.473796,120.872675 153.095546,121.909889 151.697884,123.286378 C150.300221,124.662867 149.009325,126.320469 147.825195,128.259186 C146.641064,130.197903 145.777231,132.349878 145.233696,134.715113 C144.806632,136.459958 144.651337,137.962463 144.767808,139.222629 C144.88428,140.482795 145.156048,141.510315 145.583111,142.305189 C146.010175,143.100062 146.534298,143.681677 147.155481,144.050034 C147.776665,144.41839 148.359024,144.602568 148.902559,144.602568 Z M151.989063,140.095051 C151.445528,140.114439 150.960229,139.910873 150.533165,139.484356 C150.300221,139.25171 150.144926,138.757337 150.067278,138.001237 C149.98963,137.245138 150.018748,136.363022 150.154632,135.354889 C150.290515,134.346756 150.533165,133.270769 150.882581,132.126926 C151.231996,130.983083 151.697884,129.907095 152.280243,128.898963 C153.677905,126.45618 154.910566,124.77919 155.978224,123.867993 C157.045883,122.956796 157.793244,122.675682 158.220307,123.024651 C158.336779,123.179748 158.414427,123.393007 158.453251,123.664427 C158.492075,123.897073 158.482369,124.216962 158.424133,124.624092 C158.365897,125.031223 158.181483,125.544983 157.870892,126.165372 C158.181483,126.087823 158.492075,126.029662 158.802667,125.990887 C159.113258,125.952113 159.365614,125.893952 159.559734,125.816403 C159.792677,125.738854 160.006209,125.680693 160.200329,125.641918 C160.355625,125.603144 160.384743,125.903645 160.287683,126.543422 C160.190623,127.183198 160.045033,127.987766 159.850913,128.957124 C159.656793,129.926482 159.42385,130.934615 159.152082,131.981522 C158.880314,133.028429 158.647371,133.939626 158.453251,134.715113 C158.414427,134.908984 158.249425,135.219179 157.958246,135.645697 C157.667066,136.072214 157.298238,136.537506 156.851763,137.041573 C156.405288,137.545639 155.900576,138.030318 155.337629,138.49561 C154.774682,138.960902 154.211734,139.338952 153.648787,139.629759 C153.08584,139.920567 152.532599,140.075664 151.989063,140.095051 Z M178.777589,145.707636 C179.942308,145.707636 181.058496,145.397442 182.126155,144.777052 C183.193813,144.156663 184.145,143.410257 184.979715,142.537835 C185.81443,141.665412 186.513261,140.763909 187.076208,139.833325 C187.639156,138.902741 187.978865,138.107867 188.095337,137.448703 C188.172985,137.022186 188.114749,136.498732 187.920629,135.878343 C187.72651,135.257953 187.474154,134.589096 187.163562,133.871771 C186.852971,133.154446 186.503555,132.427427 186.115316,131.690715 C185.727076,130.954002 185.358249,130.236677 185.008833,129.538739 C184.737065,128.995898 184.48471,128.394896 184.251766,127.735733 C184.057646,127.192892 183.853821,126.553115 183.640289,125.816403 C183.426757,125.079691 183.261755,124.26543 183.145283,123.37362 C183.727643,122.675682 184.174118,122.103761 184.48471,121.657856 C184.795301,121.211951 185.028245,120.833901 185.183541,120.523706 C185.338837,120.213512 185.455308,119.961479 185.532956,119.767607 C185.610604,119.379864 185.494132,119.001814 185.183541,118.633458 C184.872949,118.265101 184.465298,117.925826 183.960586,117.615631 C183.339403,117.305437 182.640572,117.295743 181.864093,117.586551 C181.087614,117.877358 180.330547,118.313569 179.592892,118.895184 C178.855237,119.476799 178.214642,120.126269 177.671106,120.843595 C177.127571,121.56092 176.778156,122.191003 176.62286,122.733843 C176.42874,123.393007 176.47727,123.974622 176.76845,124.478688 C177.059629,124.982755 177.166395,125.389885 177.088747,125.70008 C177.049923,125.816403 176.836391,126.155678 176.448152,126.717906 C176.059912,127.280134 175.632849,127.919911 175.166962,128.637236 C174.701074,129.354561 174.235187,130.052499 173.769299,130.73105 C173.303412,131.409601 172.953996,131.903973 172.721053,132.214168 C172.410461,132.67946 172.264871,133.076897 172.284283,133.406479 C172.303695,133.736061 172.410461,133.988094 172.604581,134.162578 C172.798701,134.337063 173.04135,134.395224 173.33253,134.337063 C173.62371,134.278901 173.924595,134.075336 174.235187,133.726367 C174.429307,133.493721 174.778722,133.05751 175.283433,132.417733 C175.788145,131.777957 176.321974,131.080019 176.884921,130.323919 C177.447869,129.56782 177.971992,128.840801 178.457291,128.142863 C178.942591,127.444925 179.2823,126.940859 179.47642,126.630664 C179.554068,126.785761 179.660834,127.066875 179.796718,127.474006 C179.932602,127.881136 180.078191,128.29796 180.233487,128.724478 C180.388783,129.228544 180.582903,129.771385 180.815846,130.353 C181.087614,131.128487 181.417618,131.981522 181.805857,132.912106 C182.194097,133.84269 182.553218,134.763581 182.883222,135.674777 C183.213225,136.585974 183.455875,137.43901 183.611171,138.233883 C183.766467,139.028757 183.766467,139.639453 183.611171,140.065971 C183.455875,140.492488 183.213225,140.841457 182.883222,141.112878 C182.553218,141.384298 182.203803,141.597557 181.834975,141.752654 C181.466148,141.907752 181.09732,141.9853 180.728493,141.9853 C180.359665,141.9853 180.058779,141.907752 179.825836,141.752654 C179.631716,141.597557 179.418184,141.306749 179.18524,140.880232 C178.991121,140.492488 178.738765,139.959341 178.428173,139.28079 C178.117582,138.60224 177.768166,137.661962 177.379927,136.459958 C176.914039,136.615055 176.506388,136.750765 176.156972,136.867088 C175.807557,136.983411 175.535789,137.099734 175.341669,137.216057 C175.108726,137.371155 174.914606,137.506865 174.75931,137.623188 C174.371071,137.972157 174.079891,138.282351 173.885771,138.553772 C173.691652,138.825192 173.47812,139.193548 173.245176,139.65884 C173.051056,140.007809 173.080174,140.511876 173.33253,141.171039 C173.584886,141.830203 173.973125,142.49906 174.497248,143.177611 C175.021372,143.856162 175.661967,144.44747 176.419034,144.951537 C177.176101,145.455603 177.962286,145.707636 178.777589,145.707636 Z" id="Más" fill="#FCCCD2" fill-rule="nonzero"></path>
                    </g>
                </g>
            </g>
        </g>
    </g>
</svg>