<?xml version="1.0" encoding="UTF-8"?>
<svg width="286px" height="174px" viewBox="0 0 286 174" version="1.1" xmlns="http://www.w3.org/2000/svg" xmlns:xlink="http://www.w3.org/1999/xlink">
    <title>C11A9732-BD4E-4DDD-AAAF-CA299C080D1D</title>
    <g id="Page-1" stroke="none" stroke-width="1" fill="none" fill-rule="evenodd">
        <g id="LandingPage" transform="translate(-142.000000, -122.000000)">
            <g id="header">
                <g id="txt-group" transform="translate(142.000000, 122.000000)">
                    <g id="Logo">
                        <g id="Wheel" transform="translate(69.285405, 76.537911) rotate(21.000000) translate(-69.285405, -76.537911) translate(19.394780, 14.752597)" fill="#FCCCD2" fill-rule="nonzero">
                            <path d="M53.5401069,2.24314123 C58.8605721,-0.628796744 64.6106648,-0.628796744 69.9311299,2.24314123 C72.8061763,3.79506471 69.9311299,11.0908641 69.9311299,11.0908641 C73.3896358,11.6455097 76.7293067,12.5501346 79.9194096,13.761759 C79.9194096,13.761759 81.080031,6.01055824 84.3449858,6.1031471 C90.390132,6.27457772 95.3702945,9.14505945 98.5396118,14.289798 C100.25277,17.0707608 94.1099378,21.9545498 94.1099378,21.9545498 C90.1524959,26.212738 86.6047035,27.816056 83.4665606,26.764504 C83.3701204,26.7321881 83.2735077,26.7131447 83.1767116,26.7068916 C76.93937,22.8737047 69.5960143,20.6631056 61.7356184,20.6631056 C39.1037134,20.6631056 20.7580609,38.9889236 20.7580609,61.5963599 C20.7580609,84.2037962 39.1037134,102.529614 61.7356184,102.529614 C70.0165854,102.529614 77.7237034,100.07613 84.1682462,95.8571434 L84.7205092,95.861758 C86.7016293,95.861758 89.8314388,97.6294377 94.1099378,101.164797 C94.1441687,101.160462 94.1783598,101.156132 94.2125111,101.151807 L94.1078889,101.23817 C94.1078889,101.23817 100.250722,106.121959 98.5375629,108.902922 C95.3682456,114.04766 90.3880832,116.918142 84.3429369,117.089573 C81.0779821,117.182162 79.9173607,109.430961 79.9173607,109.430961 C76.7272579,110.642585 73.3875869,111.545163 69.9290811,112.101856 C69.9290811,112.101856 72.8041274,119.397655 69.9290811,120.949579 C64.6086159,123.821517 58.8585232,123.821517 53.538058,120.949579 C50.6630117,119.397655 53.538058,112.101856 53.538058,112.101856 C50.0795522,111.545163 46.7398812,110.642585 43.5497784,109.430961 C43.5497784,109.430961 42.389157,117.182162 39.1242022,117.089573 C33.0790559,116.918142 28.0988935,114.04766 24.9295762,108.902922 C23.2787142,106.223085 28.9228868,101.590574 29.3355551,101.257208 L29.3592502,101.23817 C26.6834157,99.0543808 24.2350066,96.6086189 22.0488539,93.9356774 C22.0488539,93.9356774 17.159779,100.071869 14.3758063,98.3605622 C9.22549946,95.1946714 6.35191093,90.2198934 6.18029476,84.1812829 C6.08760568,80.919858 13.8471958,79.7604915 13.8471958,79.7604915 C12.636309,76.5738376 11.7307049,73.2377774 11.175459,69.7830107 C11.175459,69.7830107 3.87176313,72.6549487 2.31815996,69.7830107 C-0.556886399,64.4682979 -0.556886399,58.7244219 2.31815996,53.409709 C3.87176313,50.5377711 11.175459,53.409709 11.175459,53.409709 C11.7307049,49.9549424 12.636309,46.6188822 13.8492447,43.4322283 C13.8492447,43.4322283 6.08965456,42.2728618 6.18234364,39.0114369 C6.3539598,32.9728264 9.22754834,27.9980483 14.3778552,24.8321576 C17.1618279,23.1208511 22.0509028,29.2570424 22.0509028,29.2570424 C24.2370555,26.5841009 26.6854646,24.1383389 29.3612991,21.9545498 C29.3612991,21.9545498 23.2184664,17.0707608 24.9316251,14.289798 C28.1009424,9.14505945 33.0811048,6.27457772 39.126251,6.1031471 C42.3912059,6.01055824 43.5518273,13.761759 43.5518273,13.761759 C46.7419301,12.5501346 50.0816011,11.6475564 53.5401069,11.0908641 C53.5401069,11.0908641 50.6650606,3.79506471 53.5401069,2.24314123 Z" id="Combined-Shape"></path>
                        </g>
                        <text id="Cuéntame" font-family="Satisfy-Regular, Satisfy" font-size="59.7643224" font-weight="normal" fill="#B39898">
                            <tspan x="59.5664726" y="95.6485547">Cuéntame</tspan>
                        </text>
                        <text id="Más" font-family="Satisfy-Regular, Satisfy" font-size="59.7643224" font-weight="normal" fill="#FCCCD2">
                            <tspan x="108.906167" y="144.925194">Más</tspan>
                        </text>
                    </g>
                </g>
            </g>
        </g>
    </g>
</svg>