<?xml version="1.0" encoding="UTF-8"?>
<svg width="364px" height="267px" viewBox="0 0 364 267" version="1.1" xmlns="http://www.w3.org/2000/svg" xmlns:xlink="http://www.w3.org/1999/xlink">
    <title>F85D7FBA-DFA0-41AD-B7A5-8D73C96B361A</title>
    <defs>
        <polygon id="path-1" points="11.781 195.163 351.867 195.163 351.867 10.334 11.781 10.334"></polygon>
    </defs>
    <g id="Page-1" stroke="none" stroke-width="1" fill="none" fill-rule="evenodd">
        <g id="LandingPage" transform="translate(-247.000000, -958.000000)">
            <g id="section-mas-info" transform="translate(247.000000, 958.000000)">
                <g id="mac">
                    <g id="Group">
                        <path d="M363.647,14.213 C363.647,3.331 358.927,1.42108547e-14 349.227,1.42108547e-14 L14.417,1.42108547e-14 C4.72,1.42108547e-14 -2.84217094e-14,4.115 -2.84217094e-14,14.998 L-2.84217094e-14,207.854 L363.647,207.854 L363.647,14.213" id="Fill-196" fill="#B39898"></path>
                        <path d="M-2.84217094e-14,207.854 L-2.84217094e-14,213.078 C-2.84217094e-14,223.96 4.72,228.077 14.417,228.077 L349.227,228.077 C358.927,228.077 363.647,223.176 363.647,212.293 L363.647,207.854 L-2.84217094e-14,207.854" id="Fill-197" fill="#ECECEC"></path>
                        <mask id="mask-2" fill="white">
                            <use xlink:href="#path-1"></use>
                        </mask>
                        <use id="Fill-199" fill="#F5F6F9" xlink:href="#path-1"></use>
                        <g id="page" mask="url(#mask-2)">
                            <g transform="translate(60.000000, 18.000000)">
                                <rect id="Rectangle-Copy-21" fill="#F0D1D2" x="0" y="64" width="242" height="138" rx="5"></rect>
                                <rect id="Rectangle-Copy-20" fill="#FFFFFF" x="13" y="129" width="45" height="26" rx="5"></rect>
                                <rect id="Rectangle-Copy-19" fill="#FFFFFF" x="13" y="166" width="45" height="26" rx="5"></rect>
                                <rect id="Rectangle-Copy-18" fill="#FFFFFF" x="70" y="129" width="45" height="26" rx="5"></rect>
                                <rect id="Rectangle-Copy-17" fill="#FFFFFF" x="70" y="166" width="102" height="26" rx="5"></rect>
                                <rect id="Rectangle-Copy-16" fill="#FFFFFF" x="127" y="129" width="102" height="26" rx="5"></rect>
                                <rect id="Rectangle-Copy-15" fill="#FFFFFF" x="184" y="166" width="45" height="26" rx="5"></rect>
                                <rect id="Rectangle-Copy-14" fill="#FFFFFF" x="159" y="78" width="70" height="39" rx="5"></rect>
                                <rect id="Rectangle-Copy-13" fill="#F0D1D2" x="0" y="0" width="242" height="43" rx="5"></rect>
                                <circle id="Oval-Copy" fill="#D9A5A6" cx="122" cy="34" r="25"></circle>
                                <rect id="Rectangle-Copy-12" fill="#FFFFFF" x="13" y="78" width="134" height="7" rx="3.5"></rect>
                                <rect id="Rectangle-Copy-10" fill="#FFFFFF" x="13" y="94" width="114" height="7" rx="3.5"></rect>
                                <rect id="Rectangle-Copy-6" fill="#FFFFFF" x="13" y="110" width="80" height="7" rx="3.5"></rect>
                            </g>
                        </g>
                        <polyline id="Fill-200" fill="#ECECEC" points="215.634 251.508 148.015 251.508 149.952 228.082 213.064 228.082 215.634 251.508"></polyline>
                        <polyline id="Fill-201" fill="#E2E2E2" points="213.976 236.536 213.048 228.082 149.937 228.082 149.239 236.536 213.976 236.536"></polyline>
                        <path d="M227.468,261.659 C229.406,264.355 227.94,266.561 224.218,266.561 L139.428,266.561 C135.707,266.561 134.244,264.355 136.182,261.659 L148.015,251.508 L215.634,251.508 L227.468,261.659" id="Fill-202" fill="#E2E2E2"></path>
                    </g>
                </g>
            </g>
        </g>
    </g>
</svg>