<?xml version="1.0" encoding="UTF-8"?>
<svg width="710px" height="37px" viewBox="0 0 710 37" version="1.1" xmlns="http://www.w3.org/2000/svg" xmlns:xlink="http://www.w3.org/1999/xlink">
    <title>Arrastraeducaciónaéstaárea</title>
    <g id="Page-1" stroke="none" stroke-width="1" fill="none" fill-rule="evenodd">
        <g id="Artboard" transform="translate(-61.000000, -868.000000)" fill="#FCCCD2" fill-rule="nonzero">
            <path d="M67.375,904 L69.325,894.85 L77.375,894.85 L79.425,904 L85.975,904 L77.125,869 L69.375,869 L61.175,904 L67.375,904 Z M76.075,889 L70.625,889 L73.225,878.2 L76.075,889 Z M99.1916667,904 L99.1916667,887.9 C99.1916667,886.666667 99.625,885.675 100.491667,884.925 C101.358333,884.175 102.408333,883.8 103.641667,883.8 C104.541667,883.8 105.458333,884.033333 106.391667,884.5 L106.391667,884.5 L107.691667,879.15 L106.691667,878.95 C105.091667,878.616667 103.875,878.45 103.041667,878.45 C101.841667,878.45 100.558333,878.683333 99.1916667,879.15 L99.1916667,879.15 L98.7916667,878.95 L93.6916667,878.95 L93.6916667,904 L99.1916667,904 Z M120.058333,904 L120.058333,887.9 C120.058333,886.666667 120.491667,885.675 121.358333,884.925 C122.225,884.175 123.275,883.8 124.508333,883.8 C125.408333,883.8 126.325,884.033333 127.258333,884.5 L127.258333,884.5 L128.558333,879.15 L127.558333,878.95 C125.958333,878.616667 124.741667,878.45 123.908333,878.45 C122.708333,878.45 121.425,878.683333 120.058333,879.15 L120.058333,879.15 L119.658333,878.95 L114.558333,878.95 L114.558333,904 L120.058333,904 Z M142.975,904.55 C144.575,904.55 147.175,904.366667 150.775,904 L150.775,904 L150.775,889.1 C150.775,886.9 150.6,885.1 150.25,883.7 C149.9,882.3 148.966667,881.091667 147.45,880.075 C145.933333,879.058333 143.575,878.55 140.375,878.55 L140.375,878.55 L139.925,882.35 C141.491667,882.35 142.775,882.575 143.775,883.025 C144.775,883.475 145.275,884.316667 145.275,885.55 C144.541667,885.15 143.575,884.783333 142.375,884.45 C141.175,884.116667 139.958333,883.95 138.725,883.95 C137.325,883.95 136.075,884.216667 134.975,884.75 C132.675,885.883333 131.525,888.1 131.525,891.4 L131.525,891.4 L131.525,895.55 C131.525,898.95 132.558333,901.3 134.625,902.6 C136.691667,903.9 139.475,904.55 142.975,904.55 Z M142.425,899.4 C138.858333,899.4 137.075,897.883333 137.075,894.85 L137.075,894.85 L137.075,892.1 C137.075,891.233333 137.325,890.6 137.825,890.2 C138.325,889.8 138.975,889.6 139.775,889.6 C140.675,889.6 141.666667,889.791667 142.75,890.175 C143.833333,890.558333 144.675,890.966667 145.275,891.4 L145.275,891.4 L145.275,899.15 C144.408333,899.316667 143.458333,899.4 142.425,899.4 Z M167.791667,904.75 C169.858333,904.75 171.583333,904.383333 172.966667,903.65 C174.35,902.916667 175.375,901.958333 176.041667,900.775 C176.708333,899.591667 177.041667,898.316667 177.041667,896.95 C177.041667,895.15 176.633333,893.675 175.816667,892.525 C175,891.375 174.033333,890.508333 172.916667,889.925 C171.8,889.341667 170.425,888.75 168.791667,888.15 C167.625,887.716667 166.741667,887.341667 166.141667,887.025 C165.541667,886.708333 165.191667,886.316667 165.091667,885.85 C165.025,885.65 164.991667,885.45 164.991667,885.25 C164.991667,884.25 165.891667,883.75 167.691667,883.75 C168.525,883.75 169.241667,883.833333 169.841667,884 C170.441667,884.166667 170.883333,884.341667 171.166667,884.525 C171.45,884.708333 171.625,884.833333 171.691667,884.9 L171.691667,884.9 L173.291667,879.8 C173.191667,879.733333 172.908333,879.583333 172.441667,879.35 C171.975,879.116667 171.333333,878.891667 170.516667,878.675 C169.7,878.458333 168.758333,878.35 167.691667,878.35 C165.625,878.35 163.933333,878.725 162.616667,879.475 C161.3,880.225 160.366667,881.175 159.816667,882.325 C159.266667,883.475 159.041667,884.616667 159.141667,885.75 C159.275,887.25 159.708333,888.466667 160.441667,889.4 C161.175,890.333333 162.008333,891.033333 162.941667,891.5 C163.875,891.966667 165.058333,892.433333 166.491667,892.9 C168.158333,893.5 169.366667,894.05 170.116667,894.55 C170.866667,895.05 171.241667,895.816667 171.241667,896.85 C171.241667,897.583333 170.941667,898.225 170.341667,898.775 C169.741667,899.325 168.891667,899.6 167.791667,899.6 C166.525,899.6 165.583333,899.333333 164.966667,898.8 C164.35,898.266667 164.041667,897.7 164.041667,897.1 L164.041667,897.1 L158.541667,897.65 C158.608333,898.95 159,900.133333 159.716667,901.2 C160.433333,902.266667 161.483333,903.125 162.866667,903.775 C164.25,904.425 165.891667,904.75 167.791667,904.75 Z M192.258333,904.65 L193.908333,900.25 C192.741667,900.25 191.841667,900.058333 191.208333,899.675 C190.575,899.291667 190.258333,898.533333 190.258333,897.4 L190.258333,897.4 L190.258333,884.1 L193.808333,884.1 L195.008333,878.95 L190.258333,878.95 L190.258333,869 L184.658333,869 L184.658333,897.4 C184.658333,902.133333 187.191667,904.55 192.258333,904.65 L192.258333,904.65 Z M208.875,904 L208.875,887.9 C208.875,886.666667 209.308333,885.675 210.175,884.925 C211.041667,884.175 212.091667,883.8 213.325,883.8 C214.225,883.8 215.141667,884.033333 216.075,884.5 L216.075,884.5 L217.375,879.15 L216.375,878.95 C214.775,878.616667 213.558333,878.45 212.725,878.45 C211.525,878.45 210.241667,878.683333 208.875,879.15 L208.875,879.15 L208.475,878.95 L203.375,878.95 L203.375,904 L208.875,904 Z M231.791667,904.55 C233.391667,904.55 235.991667,904.366667 239.591667,904 L239.591667,904 L239.591667,889.1 C239.591667,886.9 239.416667,885.1 239.066667,883.7 C238.716667,882.3 237.783333,881.091667 236.266667,880.075 C234.75,879.058333 232.391667,878.55 229.191667,878.55 L229.191667,878.55 L228.741667,882.35 C230.308333,882.35 231.591667,882.575 232.591667,883.025 C233.591667,883.475 234.091667,884.316667 234.091667,885.55 C233.358333,885.15 232.391667,884.783333 231.191667,884.45 C229.991667,884.116667 228.775,883.95 227.541667,883.95 C226.141667,883.95 224.891667,884.216667 223.791667,884.75 C221.491667,885.883333 220.341667,888.1 220.341667,891.4 L220.341667,891.4 L220.341667,895.55 C220.341667,898.95 221.375,901.3 223.441667,902.6 C225.508333,903.9 228.291667,904.55 231.791667,904.55 Z M231.241667,899.4 C227.675,899.4 225.891667,897.883333 225.891667,894.85 L225.891667,894.85 L225.891667,892.1 C225.891667,891.233333 226.141667,890.6 226.641667,890.2 C227.141667,889.8 227.791667,889.6 228.591667,889.6 C229.491667,889.6 230.483333,889.791667 231.566667,890.175 C232.65,890.558333 233.491667,890.966667 234.091667,891.4 L234.091667,891.4 L234.091667,899.15 C233.225,899.316667 232.275,899.4 231.241667,899.4 Z M273.425,904.6 C274.958333,904.6 276.491667,904.4 278.025,904 C279.558333,903.6 280.925,903.016667 282.125,902.25 L282.125,902.25 L280.125,897.5 C277.558333,898.833333 275.508333,899.5 273.975,899.5 C272.975,899.5 272.216667,899.241667 271.7,898.725 C271.183333,898.208333 270.925,897.483333 270.925,896.55 L270.925,896.55 L270.925,895.15 L283.375,894.5 L283.375,886.9 C283.375,884.266667 282.6,882.208333 281.05,880.725 C279.5,879.241667 277.341667,878.5 274.575,878.5 C271.808333,878.5 269.583333,879.25 267.9,880.75 C266.216667,882.25 265.375,884.35 265.375,887.05 L265.375,887.05 L265.375,897.3 C265.375,899.733333 266.1,901.558333 267.55,902.775 C269,903.991667 270.958333,904.6 273.425,904.6 Z M270.925,890.1 L270.925,887.1 C270.925,886.3 271.208333,885.566667 271.775,884.9 C272.341667,884.233333 273.258333,883.9 274.525,883.9 C275.458333,883.9 276.241667,884.166667 276.875,884.7 C277.508333,885.233333 277.825,886 277.825,887 L277.825,887 L277.825,889.65 L270.925,890.1 Z M303.991667,904.6 C305.225,904.6 306.925,904.483333 309.091667,904.25 L309.091667,904.25 L311.841667,904 L311.841667,869 L306.391667,869 L306.391667,879.1 C305.325,878.7 304.008333,878.5 302.441667,878.5 C300.608333,878.5 299.008333,878.833333 297.641667,879.5 C294.808333,880.8 293.391667,883.2 293.391667,886.7 L293.391667,886.7 L293.391667,896.15 C293.391667,897.85 293.741667,899.283333 294.441667,900.45 C295.141667,901.616667 296.091667,902.5 297.291667,903.1 C298.358333,903.633333 299.433333,904.016667 300.516667,904.25 C301.6,904.483333 302.758333,904.6 303.991667,904.6 Z M303.791667,899.5 C302.358333,899.5 301.175,899.216667 300.241667,898.65 C299.308333,898.083333 298.841667,897.366667 298.841667,896.5 L298.841667,896.5 L298.841667,888.7 C298.841667,887.133333 299.241667,885.966667 300.041667,885.2 C300.841667,884.433333 301.841667,884.05 303.041667,884.05 C304.075,884.05 305.191667,884.333333 306.391667,884.9 L306.391667,884.9 L306.391667,899.15 C305.558333,899.383333 304.691667,899.5 303.791667,899.5 Z M329.158333,904.55 C330.225,904.55 331.091667,904.416667 331.758333,904.15 C332.425,903.883333 332.808333,903.733333 332.908333,903.7 L332.908333,903.7 L333.258333,904 L338.408333,904 L338.408333,878.95 L332.908333,878.95 L332.908333,894.4 C332.908333,895.9 332.658333,897.058333 332.158333,897.875 C331.658333,898.691667 330.658333,899.1 329.158333,899.1 C327.658333,899.1 326.633333,898.733333 326.083333,898 C325.533333,897.266667 325.258333,896.133333 325.258333,894.6 L325.258333,894.6 L325.258333,878.95 L319.758333,878.95 L319.758333,895.4 C319.758333,901.5 322.891667,904.55 329.158333,904.55 Z M356.375,904.5 C358.308333,904.5 360.308333,904.233333 362.375,903.7 L362.375,903.7 L360.875,898.3 C360.408333,898.466667 359.775,898.633333 358.975,898.8 C358.175,898.966667 357.375,899.05 356.575,899.05 C355.175,899.05 354.025,898.783333 353.125,898.25 C352.225,897.716667 351.775,896.816667 351.775,895.55 L351.775,895.55 L351.775,888.3 C351.775,887.033333 352.183333,885.983333 353,885.15 C353.816667,884.316667 354.975,883.9 356.475,883.9 C357.741667,883.9 359.175,884.216667 360.775,884.85 L360.775,884.85 L362.275,880.1 C359.975,879.033333 357.741667,878.5 355.575,878.5 C352.841667,878.5 350.608333,879.358333 348.875,881.075 C347.141667,882.791667 346.275,885.3 346.275,888.6 L346.275,888.6 L346.275,895 C346.275,897.5 346.716667,899.441667 347.6,900.825 C348.483333,902.208333 349.908333,903.233333 351.875,903.9 C353.075,904.3 354.575,904.5 356.375,904.5 Z M381.091667,904.55 C382.691667,904.55 385.291667,904.366667 388.891667,904 L388.891667,904 L388.891667,889.1 C388.891667,886.9 388.716667,885.1 388.366667,883.7 C388.016667,882.3 387.083333,881.091667 385.566667,880.075 C384.05,879.058333 381.691667,878.55 378.491667,878.55 L378.491667,878.55 L378.041667,882.35 C379.608333,882.35 380.891667,882.575 381.891667,883.025 C382.891667,883.475 383.391667,884.316667 383.391667,885.55 C382.658333,885.15 381.691667,884.783333 380.491667,884.45 C379.291667,884.116667 378.075,883.95 376.841667,883.95 C375.441667,883.95 374.191667,884.216667 373.091667,884.75 C370.791667,885.883333 369.641667,888.1 369.641667,891.4 L369.641667,891.4 L369.641667,895.55 C369.641667,898.95 370.675,901.3 372.741667,902.6 C374.808333,903.9 377.591667,904.55 381.091667,904.55 Z M380.541667,899.4 C376.975,899.4 375.191667,897.883333 375.191667,894.85 L375.191667,894.85 L375.191667,892.1 C375.191667,891.233333 375.441667,890.6 375.941667,890.2 C376.441667,889.8 377.091667,889.6 377.891667,889.6 C378.791667,889.6 379.783333,889.791667 380.866667,890.175 C381.95,890.558333 382.791667,890.966667 383.391667,891.4 L383.391667,891.4 L383.391667,899.15 C382.525,899.316667 381.575,899.4 380.541667,899.4 Z M406.758333,904.5 C408.691667,904.5 410.691667,904.233333 412.758333,903.7 L412.758333,903.7 L411.258333,898.3 C410.791667,898.466667 410.158333,898.633333 409.358333,898.8 C408.558333,898.966667 407.758333,899.05 406.958333,899.05 C405.558333,899.05 404.408333,898.783333 403.508333,898.25 C402.608333,897.716667 402.158333,896.816667 402.158333,895.55 L402.158333,895.55 L402.158333,888.3 C402.158333,887.033333 402.566667,885.983333 403.383333,885.15 C404.2,884.316667 405.358333,883.9 406.858333,883.9 C408.125,883.9 409.558333,884.216667 411.158333,884.85 L411.158333,884.85 L412.658333,880.1 C410.358333,879.033333 408.125,878.5 405.958333,878.5 C403.225,878.5 400.991667,879.358333 399.258333,881.075 C397.525,882.791667 396.658333,885.3 396.658333,888.6 L396.658333,888.6 L396.658333,895 C396.658333,897.5 397.1,899.441667 397.983333,900.825 C398.866667,902.208333 400.291667,903.233333 402.258333,903.9 C403.458333,904.3 404.958333,904.5 406.758333,904.5 Z M425.075,874.4 C425.841667,874.4 426.516667,874.1 427.1,873.5 C427.683333,872.9 427.975,872.2 427.975,871.4 C427.975,870.633333 427.683333,869.958333 427.1,869.375 C426.516667,868.791667 425.841667,868.5 425.075,868.5 C424.275,868.5 423.575,868.791667 422.975,869.375 C422.375,869.958333 422.075,870.633333 422.075,871.4 C422.075,872.2 422.375,872.9 422.975,873.5 C423.575,874.1 424.275,874.4 425.075,874.4 Z M427.675,904 L427.675,878.95 L422.175,878.95 L422.175,904 L427.675,904 Z M451.741667,877.1 L454.191667,873.95 C454.691667,873.316667 454.941667,872.683333 454.941667,872.05 C454.941667,871.216667 454.541667,870.6 453.741667,870.2 C453.541667,870.1 453.275,870.05 452.941667,870.05 C452.441667,870.05 451.95,870.183333 451.466667,870.45 C450.983333,870.716667 450.625,871.133333 450.391667,871.7 L450.391667,871.7 L448.091667,877.1 L451.741667,877.1 Z M449.441667,904.5 C452.541667,904.5 454.858333,903.583333 456.391667,901.75 C457.925,899.916667 458.691667,897.6 458.691667,894.8 L458.691667,894.8 L458.691667,888.2 C458.691667,885.166667 457.875,882.775 456.241667,881.025 C454.608333,879.275 452.341667,878.4 449.441667,878.4 C446.408333,878.4 444.083333,879.241667 442.466667,880.925 C440.85,882.608333 440.041667,885.033333 440.041667,888.2 L440.041667,888.2 L440.041667,894.8 C440.041667,897.566667 440.833333,899.875 442.416667,901.725 C444,903.575 446.341667,904.5 449.441667,904.5 Z M449.441667,899.1 C448.308333,899.1 447.375,898.8 446.641667,898.2 C445.908333,897.6 445.541667,896.633333 445.541667,895.3 L445.541667,895.3 L445.541667,888.2 C445.541667,885.366667 446.841667,883.95 449.441667,883.95 C450.508333,883.95 451.408333,884.216667 452.141667,884.75 C452.875,885.283333 453.241667,886.433333 453.241667,888.2 L453.241667,888.2 L453.241667,895.3 C453.241667,896.566667 452.883333,897.516667 452.166667,898.15 C451.45,898.783333 450.541667,899.1 449.441667,899.1 Z M473.458333,904 L473.458333,884.7 C474.658333,884.1 475.775,883.8 476.808333,883.8 C478.075,883.8 479.083333,884.208333 479.833333,885.025 C480.583333,885.841667 480.958333,886.916667 480.958333,888.25 L480.958333,888.25 L480.958333,904 L486.458333,904 L486.458333,886.7 C486.458333,884.866667 486.083333,883.35 485.333333,882.15 C484.583333,880.95 483.541667,880.05 482.208333,879.45 C480.975,878.85 479.525,878.55 477.858333,878.55 C476.358333,878.55 474.908333,878.783333 473.508333,879.25 L473.508333,879.25 L472.858333,878.95 L468.008333,878.95 L468.008333,904 L473.458333,904 Z M525.341667,904.55 C526.941667,904.55 529.541667,904.366667 533.141667,904 L533.141667,904 L533.141667,889.1 C533.141667,886.9 532.966667,885.1 532.616667,883.7 C532.266667,882.3 531.333333,881.091667 529.816667,880.075 C528.3,879.058333 525.941667,878.55 522.741667,878.55 L522.741667,878.55 L522.291667,882.35 C523.858333,882.35 525.141667,882.575 526.141667,883.025 C527.141667,883.475 527.641667,884.316667 527.641667,885.55 C526.908333,885.15 525.941667,884.783333 524.741667,884.45 C523.541667,884.116667 522.325,883.95 521.091667,883.95 C519.691667,883.95 518.441667,884.216667 517.341667,884.75 C515.041667,885.883333 513.891667,888.1 513.891667,891.4 L513.891667,891.4 L513.891667,895.55 C513.891667,898.95 514.925,901.3 516.991667,902.6 C519.058333,903.9 521.841667,904.55 525.341667,904.55 Z M524.791667,899.4 C521.225,899.4 519.441667,897.883333 519.441667,894.85 L519.441667,894.85 L519.441667,892.1 C519.441667,891.233333 519.691667,890.6 520.191667,890.2 C520.691667,889.8 521.341667,889.6 522.141667,889.6 C523.041667,889.6 524.033333,889.791667 525.116667,890.175 C526.2,890.558333 527.041667,890.966667 527.641667,891.4 L527.641667,891.4 L527.641667,899.15 C526.775,899.316667 525.825,899.4 524.791667,899.4 Z M572.825,877.1 L575.275,873.95 C575.775,873.316667 576.025,872.683333 576.025,872.05 C576.025,871.216667 575.625,870.6 574.825,870.2 C574.625,870.1 574.358333,870.05 574.025,870.05 C573.525,870.05 573.033333,870.183333 572.55,870.45 C572.066667,870.716667 571.708333,871.133333 571.475,871.7 L571.475,871.7 L569.175,877.1 L572.825,877.1 Z M569.125,904.6 C570.658333,904.6 572.191667,904.4 573.725,904 C575.258333,903.6 576.625,903.016667 577.825,902.25 L577.825,902.25 L575.825,897.5 C573.258333,898.833333 571.208333,899.5 569.675,899.5 C568.675,899.5 567.916667,899.241667 567.4,898.725 C566.883333,898.208333 566.625,897.483333 566.625,896.55 L566.625,896.55 L566.625,895.15 L579.075,894.5 L579.075,886.9 C579.075,884.266667 578.3,882.208333 576.75,880.725 C575.2,879.241667 573.041667,878.5 570.275,878.5 C567.508333,878.5 565.283333,879.25 563.6,880.75 C561.916667,882.25 561.075,884.35 561.075,887.05 L561.075,887.05 L561.075,897.3 C561.075,899.733333 561.8,901.558333 563.25,902.775 C564.7,903.991667 566.658333,904.6 569.125,904.6 Z M566.625,890.1 L566.625,887.1 C566.625,886.3 566.908333,885.566667 567.475,884.9 C568.041667,884.233333 568.958333,883.9 570.225,883.9 C571.158333,883.9 571.941667,884.166667 572.575,884.7 C573.208333,885.233333 573.525,886 573.525,887 L573.525,887 L573.525,889.65 L566.625,890.1 Z M596.241667,904.75 C598.308333,904.75 600.033333,904.383333 601.416667,903.65 C602.8,902.916667 603.825,901.958333 604.491667,900.775 C605.158333,899.591667 605.491667,898.316667 605.491667,896.95 C605.491667,895.15 605.083333,893.675 604.266667,892.525 C603.45,891.375 602.483333,890.508333 601.366667,889.925 C600.25,889.341667 598.875,888.75 597.241667,888.15 C596.075,887.716667 595.191667,887.341667 594.591667,887.025 C593.991667,886.708333 593.641667,886.316667 593.541667,885.85 C593.475,885.65 593.441667,885.45 593.441667,885.25 C593.441667,884.25 594.341667,883.75 596.141667,883.75 C596.975,883.75 597.691667,883.833333 598.291667,884 C598.891667,884.166667 599.333333,884.341667 599.616667,884.525 C599.9,884.708333 600.075,884.833333 600.141667,884.9 L600.141667,884.9 L601.741667,879.8 C601.641667,879.733333 601.358333,879.583333 600.891667,879.35 C600.425,879.116667 599.783333,878.891667 598.966667,878.675 C598.15,878.458333 597.208333,878.35 596.141667,878.35 C594.075,878.35 592.383333,878.725 591.066667,879.475 C589.75,880.225 588.816667,881.175 588.266667,882.325 C587.716667,883.475 587.491667,884.616667 587.591667,885.75 C587.725,887.25 588.158333,888.466667 588.891667,889.4 C589.625,890.333333 590.458333,891.033333 591.391667,891.5 C592.325,891.966667 593.508333,892.433333 594.941667,892.9 C596.608333,893.5 597.816667,894.05 598.566667,894.55 C599.316667,895.05 599.691667,895.816667 599.691667,896.85 C599.691667,897.583333 599.391667,898.225 598.791667,898.775 C598.191667,899.325 597.341667,899.6 596.241667,899.6 C594.975,899.6 594.033333,899.333333 593.416667,898.8 C592.8,898.266667 592.491667,897.7 592.491667,897.1 L592.491667,897.1 L586.991667,897.65 C587.058333,898.95 587.45,900.133333 588.166667,901.2 C588.883333,902.266667 589.933333,903.125 591.316667,903.775 C592.7,904.425 594.341667,904.75 596.241667,904.75 Z M620.708333,904.65 L622.358333,900.25 C621.191667,900.25 620.291667,900.058333 619.658333,899.675 C619.025,899.291667 618.708333,898.533333 618.708333,897.4 L618.708333,897.4 L618.708333,884.1 L622.258333,884.1 L623.458333,878.95 L618.708333,878.95 L618.708333,869 L613.108333,869 L613.108333,897.4 C613.108333,902.133333 615.641667,904.55 620.708333,904.65 L620.708333,904.65 Z M642.075,904.55 C643.675,904.55 646.275,904.366667 649.875,904 L649.875,904 L649.875,889.1 C649.875,886.9 649.7,885.1 649.35,883.7 C649,882.3 648.066667,881.091667 646.55,880.075 C645.033333,879.058333 642.675,878.55 639.475,878.55 L639.475,878.55 L639.025,882.35 C640.591667,882.35 641.875,882.575 642.875,883.025 C643.875,883.475 644.375,884.316667 644.375,885.55 C643.641667,885.15 642.675,884.783333 641.475,884.45 C640.275,884.116667 639.058333,883.95 637.825,883.95 C636.425,883.95 635.175,884.216667 634.075,884.75 C631.775,885.883333 630.625,888.1 630.625,891.4 L630.625,891.4 L630.625,895.55 C630.625,898.95 631.658333,901.3 633.725,902.6 C635.791667,903.9 638.575,904.55 642.075,904.55 Z M641.525,899.4 C637.958333,899.4 636.175,897.883333 636.175,894.85 L636.175,894.85 L636.175,892.1 C636.175,891.233333 636.425,890.6 636.925,890.2 C637.425,889.8 638.075,889.6 638.875,889.6 C639.775,889.6 640.766667,889.791667 641.85,890.175 C642.933333,890.558333 643.775,890.966667 644.375,891.4 L644.375,891.4 L644.375,899.15 C643.508333,899.316667 642.558333,899.4 641.525,899.4 Z M690.458333,877.1 L692.908333,873.95 C693.408333,873.316667 693.658333,872.683333 693.658333,872.05 C693.658333,871.216667 693.258333,870.6 692.458333,870.2 C692.258333,870.1 691.991667,870.05 691.658333,870.05 C691.158333,870.05 690.666667,870.183333 690.183333,870.45 C689.7,870.716667 689.341667,871.133333 689.108333,871.7 L689.108333,871.7 L686.808333,877.1 L690.458333,877.1 Z M689.258333,904.55 C690.858333,904.55 693.458333,904.366667 697.058333,904 L697.058333,904 L697.058333,889.1 C697.058333,886.9 696.883333,885.1 696.533333,883.7 C696.183333,882.3 695.25,881.091667 693.733333,880.075 C692.216667,879.058333 689.858333,878.55 686.658333,878.55 L686.658333,878.55 L686.208333,882.35 C687.775,882.35 689.058333,882.575 690.058333,883.025 C691.058333,883.475 691.558333,884.316667 691.558333,885.55 C690.825,885.15 689.858333,884.783333 688.658333,884.45 C687.458333,884.116667 686.241667,883.95 685.008333,883.95 C683.608333,883.95 682.358333,884.216667 681.258333,884.75 C678.958333,885.883333 677.808333,888.1 677.808333,891.4 L677.808333,891.4 L677.808333,895.55 C677.808333,898.95 678.841667,901.3 680.908333,902.6 C682.975,903.9 685.758333,904.55 689.258333,904.55 Z M688.708333,899.4 C685.141667,899.4 683.358333,897.883333 683.358333,894.85 L683.358333,894.85 L683.358333,892.1 C683.358333,891.233333 683.608333,890.6 684.108333,890.2 C684.608333,889.8 685.258333,889.6 686.058333,889.6 C686.958333,889.6 687.95,889.791667 689.033333,890.175 C690.116667,890.558333 690.958333,890.966667 691.558333,891.4 L691.558333,891.4 L691.558333,899.15 C690.691667,899.316667 689.741667,899.4 688.708333,899.4 Z M711.725,904 L711.725,887.9 C711.725,886.666667 712.158333,885.675 713.025,884.925 C713.891667,884.175 714.941667,883.8 716.175,883.8 C717.075,883.8 717.991667,884.033333 718.925,884.5 L718.925,884.5 L720.225,879.15 L719.225,878.95 C717.625,878.616667 716.408333,878.45 715.575,878.45 C714.375,878.45 713.091667,878.683333 711.725,879.15 L711.725,879.15 L711.325,878.95 L706.225,878.95 L706.225,904 L711.725,904 Z M733.741667,904.6 C735.275,904.6 736.808333,904.4 738.341667,904 C739.875,903.6 741.241667,903.016667 742.441667,902.25 L742.441667,902.25 L740.441667,897.5 C737.875,898.833333 735.825,899.5 734.291667,899.5 C733.291667,899.5 732.533333,899.241667 732.016667,898.725 C731.5,898.208333 731.241667,897.483333 731.241667,896.55 L731.241667,896.55 L731.241667,895.15 L743.691667,894.5 L743.691667,886.9 C743.691667,884.266667 742.916667,882.208333 741.366667,880.725 C739.816667,879.241667 737.658333,878.5 734.891667,878.5 C732.125,878.5 729.9,879.25 728.216667,880.75 C726.533333,882.25 725.691667,884.35 725.691667,887.05 L725.691667,887.05 L725.691667,897.3 C725.691667,899.733333 726.416667,901.558333 727.866667,902.775 C729.316667,903.991667 731.275,904.6 733.741667,904.6 Z M731.241667,890.1 L731.241667,887.1 C731.241667,886.3 731.525,885.566667 732.091667,884.9 C732.658333,884.233333 733.575,883.9 734.841667,883.9 C735.775,883.9 736.558333,884.166667 737.191667,884.7 C737.825,885.233333 738.141667,886 738.141667,887 L738.141667,887 L738.141667,889.65 L731.241667,890.1 Z M763.108333,904.55 C764.708333,904.55 767.308333,904.366667 770.908333,904 L770.908333,904 L770.908333,889.1 C770.908333,886.9 770.733333,885.1 770.383333,883.7 C770.033333,882.3 769.1,881.091667 767.583333,880.075 C766.066667,879.058333 763.708333,878.55 760.508333,878.55 L760.508333,878.55 L760.058333,882.35 C761.625,882.35 762.908333,882.575 763.908333,883.025 C764.908333,883.475 765.408333,884.316667 765.408333,885.55 C764.675,885.15 763.708333,884.783333 762.508333,884.45 C761.308333,884.116667 760.091667,883.95 758.858333,883.95 C757.458333,883.95 756.208333,884.216667 755.108333,884.75 C752.808333,885.883333 751.658333,888.1 751.658333,891.4 L751.658333,891.4 L751.658333,895.55 C751.658333,898.95 752.691667,901.3 754.758333,902.6 C756.825,903.9 759.608333,904.55 763.108333,904.55 Z M762.558333,899.4 C758.991667,899.4 757.208333,897.883333 757.208333,894.85 L757.208333,894.85 L757.208333,892.1 C757.208333,891.233333 757.458333,890.6 757.958333,890.2 C758.458333,889.8 759.108333,889.6 759.908333,889.6 C760.808333,889.6 761.8,889.791667 762.883333,890.175 C763.966667,890.558333 764.808333,890.966667 765.408333,891.4 L765.408333,891.4 L765.408333,899.15 C764.541667,899.316667 763.591667,899.4 762.558333,899.4 Z" id="Arrastraeducaciónaéstaárea"></path>
        </g>
    </g>
</svg>