<?xml version="1.0" encoding="UTF-8"?>
<svg width="18px" height="18px" viewBox="0 0 18 18" version="1.1" xmlns="http://www.w3.org/2000/svg" xmlns:xlink="http://www.w3.org/1999/xlink">
    <title>ic-git</title>
    <g id="Page-1" stroke="none" stroke-width="1" fill="none" fill-rule="evenodd">
        <g id="Template2-colors" transform="translate(-733.000000, -314.000000)" fill="#FCCCD2" fill-rule="nonzero">
            <g id="owner-info" transform="translate(163.000000, 131.000000)">
                <g id="ic-git" transform="translate(570.000000, 183.000000)">
                    <path d="M6.02056452,14.4818182 C6.02056452,14.5561983 5.93709677,14.6157025 5.83185484,14.6157025 C5.71209677,14.6268595 5.62862903,14.5673554 5.62862903,14.4818182 C5.62862903,14.407438 5.71209677,14.3479339 5.81733871,14.3479339 C5.92620968,14.3367769 6.02056452,14.396281 6.02056452,14.4818182 Z M4.89193548,14.3144628 C4.86653226,14.388843 4.9391129,14.4743802 5.04798387,14.4966942 C5.14233871,14.5338843 5.25120968,14.4966942 5.27298387,14.422314 C5.29475806,14.3479339 5.22580645,14.2623967 5.11693548,14.2289256 C5.02258065,14.2028926 4.91733871,14.2400826 4.89193548,14.3144628 Z M6.49596774,14.2512397 C6.39072581,14.2772727 6.31814516,14.3479339 6.32903226,14.4334711 C6.33991935,14.5078512 6.43427419,14.5561983 6.54314516,14.5301653 C6.6483871,14.5041322 6.72096774,14.4334711 6.71008065,14.3590909 C6.69919355,14.2884298 6.60120968,14.2400826 6.49596774,14.2512397 Z M8.88387097,-3.17101717e-15 C3.85040323,-3.17101717e-15 0,3.9161157 0,9.07438017 C0,13.1987603 2.53306452,16.7280992 6.15120968,17.9702479 C6.61572581,18.0557851 6.77903226,17.7619835 6.77903226,17.5202479 C6.77903226,17.2896694 6.76814516,16.0177686 6.76814516,15.2367769 C6.76814516,15.2367769 4.22782258,15.7946281 3.69435484,14.1285124 C3.69435484,14.1285124 3.28064516,13.046281 2.68548387,12.7673554 C2.68548387,12.7673554 1.85443548,12.1834711 2.74354839,12.1946281 C2.74354839,12.1946281 3.64717742,12.2690083 4.14435484,13.1541322 C4.9391129,14.5896694 6.27096774,14.1768595 6.78991935,13.931405 C6.8733871,13.3363636 7.10927419,12.9235537 7.37056452,12.6780992 C5.34193548,12.4475207 3.29516129,12.146281 3.29516129,8.56859504 C3.29516129,7.54586777 3.57096774,7.03264463 4.1516129,6.37809917 C4.05725806,6.13636364 3.74879032,5.13966942 4.24596774,3.85289256 C5.00443548,3.61115702 6.75,4.85702479 6.75,4.85702479 C7.47580645,4.64876033 8.25604839,4.54090909 9.02903226,4.54090909 C9.80201613,4.54090909 10.5822581,4.64876033 11.3080645,4.85702479 C11.3080645,4.85702479 13.053629,3.60743802 13.8120968,3.85289256 C14.3092742,5.14338843 14.0008065,6.13636364 13.9064516,6.37809917 C14.4870968,7.03636364 14.8427419,7.54958678 14.8427419,8.56859504 C14.8427419,12.157438 12.7052419,12.4438017 10.6766129,12.6780992 C11.0104839,12.9719008 11.2935484,13.5297521 11.2935484,14.403719 C11.2935484,15.6570248 11.2826613,17.2078512 11.2826613,17.5128099 C11.2826613,17.7545455 11.4495968,18.0483471 11.9104839,17.9628099 C15.5395161,16.7280992 18,13.1987603 18,9.07438017 C18,3.9161157 13.9173387,-3.17101717e-15 8.88387097,-3.17101717e-15 Z M3.52741935,12.8268595 C3.48024194,12.8640496 3.49112903,12.9495868 3.55282258,13.0202479 C3.6108871,13.0797521 3.69435484,13.1057851 3.74153226,13.057438 C3.78870968,13.0202479 3.77782258,12.9347107 3.71612903,12.8640496 C3.65806452,12.8045455 3.57459677,12.7785124 3.52741935,12.8268595 Z M3.13548387,12.5256198 C3.11008065,12.5739669 3.14637097,12.6334711 3.21895161,12.6706612 C3.27701613,12.7078512 3.34959677,12.6966942 3.375,12.6446281 C3.40040323,12.596281 3.3641129,12.5367769 3.29153226,12.4995868 C3.21895161,12.4772727 3.1608871,12.4884298 3.13548387,12.5256198 Z M4.31129032,13.8495868 C4.25322581,13.8979339 4.275,14.0095041 4.35846774,14.0801653 C4.44193548,14.1657025 4.54717742,14.1768595 4.59435484,14.1173554 C4.64153226,14.0690083 4.61975806,13.957438 4.54717742,13.8867769 C4.46733871,13.8012397 4.35846774,13.7900826 4.31129032,13.8495868 Z M3.89758065,13.3028926 C3.83951613,13.3400826 3.83951613,13.4367769 3.89758065,13.522314 C3.95564516,13.6078512 4.05362903,13.6450413 4.10080645,13.6078512 C4.15887097,13.5595041 4.15887097,13.4628099 4.10080645,13.3772727 C4.05,13.2917355 3.95564516,13.2545455 3.89758065,13.3028926 Z" id="Shape"></path>
                </g>
            </g>
        </g>
    </g>
</svg>