<?xml version="1.0" encoding="UTF-8"?>
<svg width="13px" height="21px" viewBox="0 0 13 21" version="1.1" xmlns="http://www.w3.org/2000/svg" xmlns:xlink="http://www.w3.org/1999/xlink">
    <title>ic-phone</title>
    <g id="Page-1" stroke="none" stroke-width="1" fill="none" fill-rule="evenodd">
        <g id="Template2-colors" transform="translate(-450.000000, -312.000000)" fill="#FCCCD2" fill-rule="nonzero">
            <g id="owner-info" transform="translate(163.000000, 131.000000)">
                <g id="ic-phone" transform="translate(287.000000, 181.000000)">
                    <path d="M11.05,0 L1.95,0 C0.8734375,0 0,0.881835938 0,1.96875 L0,19.03125 C0,20.1181641 0.8734375,21 1.95,21 L11.05,21 C12.1265625,21 13,20.1181641 13,19.03125 L13,1.96875 C13,0.881835938 12.1265625,0 11.05,0 Z M6.5,19.6875 C5.7809375,19.6875 5.2,19.1009766 5.2,18.375 C5.2,17.6490234 5.7809375,17.0625 6.5,17.0625 C7.2190625,17.0625 7.8,17.6490234 7.8,18.375 C7.8,19.1009766 7.2190625,19.6875 6.5,19.6875 Z M11.05,15.2578125 C11.05,15.5285156 10.830625,15.75 10.5625,15.75 L2.4375,15.75 C2.169375,15.75 1.95,15.5285156 1.95,15.2578125 L1.95,2.4609375 C1.95,2.19023437 2.169375,1.96875 2.4375,1.96875 L10.5625,1.96875 C10.830625,1.96875 11.05,2.19023437 11.05,2.4609375 L11.05,15.2578125 Z" id="Shape"></path>
                </g>
            </g>
        </g>
    </g>
</svg>