<?xml version="1.0" encoding="UTF-8"?>
<svg width="668px" height="47px" viewBox="0 0 668 47" version="1.1" xmlns="http://www.w3.org/2000/svg" xmlns:xlink="http://www.w3.org/1999/xlink">
    <title>Arrastratrabajosaéstaárea</title>
    <g id="Page-1" stroke="none" stroke-width="1" fill="none" fill-rule="evenodd">
        <g id="Artboard" transform="translate(-61.000000, -1166.000000)" fill="#FCCCD2" fill-rule="nonzero">
            <path d="M67.3333333,1202 L69.2833333,1192.85 L77.3333333,1192.85 L79.3833333,1202 L85.9333333,1202 L77.0833333,1167 L69.3333333,1167 L61.1333333,1202 L67.3333333,1202 Z M76.0333333,1187 L70.5833333,1187 L73.1833333,1176.2 L76.0333333,1187 Z M99.15,1202 L99.15,1185.9 C99.15,1184.66667 99.5833333,1183.675 100.45,1182.925 C101.316667,1182.175 102.366667,1181.8 103.6,1181.8 C104.5,1181.8 105.416667,1182.03333 106.35,1182.5 L106.35,1182.5 L107.65,1177.15 L106.65,1176.95 C105.05,1176.61667 103.833333,1176.45 103,1176.45 C101.8,1176.45 100.516667,1176.68333 99.15,1177.15 L99.15,1177.15 L98.75,1176.95 L93.65,1176.95 L93.65,1202 L99.15,1202 Z M120.016667,1202 L120.016667,1185.9 C120.016667,1184.66667 120.45,1183.675 121.316667,1182.925 C122.183333,1182.175 123.233333,1181.8 124.466667,1181.8 C125.366667,1181.8 126.283333,1182.03333 127.216667,1182.5 L127.216667,1182.5 L128.516667,1177.15 L127.516667,1176.95 C125.916667,1176.61667 124.7,1176.45 123.866667,1176.45 C122.666667,1176.45 121.383333,1176.68333 120.016667,1177.15 L120.016667,1177.15 L119.616667,1176.95 L114.516667,1176.95 L114.516667,1202 L120.016667,1202 Z M142.933333,1202.55 C144.533333,1202.55 147.133333,1202.36667 150.733333,1202 L150.733333,1202 L150.733333,1187.1 C150.733333,1184.9 150.558333,1183.1 150.208333,1181.7 C149.858333,1180.3 148.925,1179.09167 147.408333,1178.075 C145.891667,1177.05833 143.533333,1176.55 140.333333,1176.55 L140.333333,1176.55 L139.883333,1180.35 C141.45,1180.35 142.733333,1180.575 143.733333,1181.025 C144.733333,1181.475 145.233333,1182.31667 145.233333,1183.55 C144.5,1183.15 143.533333,1182.78333 142.333333,1182.45 C141.133333,1182.11667 139.916667,1181.95 138.683333,1181.95 C137.283333,1181.95 136.033333,1182.21667 134.933333,1182.75 C132.633333,1183.88333 131.483333,1186.1 131.483333,1189.4 L131.483333,1189.4 L131.483333,1193.55 C131.483333,1196.95 132.516667,1199.3 134.583333,1200.6 C136.65,1201.9 139.433333,1202.55 142.933333,1202.55 Z M142.383333,1197.4 C138.816667,1197.4 137.033333,1195.88333 137.033333,1192.85 L137.033333,1192.85 L137.033333,1190.1 C137.033333,1189.23333 137.283333,1188.6 137.783333,1188.2 C138.283333,1187.8 138.933333,1187.6 139.733333,1187.6 C140.633333,1187.6 141.625,1187.79167 142.708333,1188.175 C143.791667,1188.55833 144.633333,1188.96667 145.233333,1189.4 L145.233333,1189.4 L145.233333,1197.15 C144.366667,1197.31667 143.416667,1197.4 142.383333,1197.4 Z M167.75,1202.75 C169.816667,1202.75 171.541667,1202.38333 172.925,1201.65 C174.308333,1200.91667 175.333333,1199.95833 176,1198.775 C176.666667,1197.59167 177,1196.31667 177,1194.95 C177,1193.15 176.591667,1191.675 175.775,1190.525 C174.958333,1189.375 173.991667,1188.50833 172.875,1187.925 C171.758333,1187.34167 170.383333,1186.75 168.75,1186.15 C167.583333,1185.71667 166.7,1185.34167 166.1,1185.025 C165.5,1184.70833 165.15,1184.31667 165.05,1183.85 C164.983333,1183.65 164.95,1183.45 164.95,1183.25 C164.95,1182.25 165.85,1181.75 167.65,1181.75 C168.483333,1181.75 169.2,1181.83333 169.8,1182 C170.4,1182.16667 170.841667,1182.34167 171.125,1182.525 C171.408333,1182.70833 171.583333,1182.83333 171.65,1182.9 L171.65,1182.9 L173.25,1177.8 C173.15,1177.73333 172.866667,1177.58333 172.4,1177.35 C171.933333,1177.11667 171.291667,1176.89167 170.475,1176.675 C169.658333,1176.45833 168.716667,1176.35 167.65,1176.35 C165.583333,1176.35 163.891667,1176.725 162.575,1177.475 C161.258333,1178.225 160.325,1179.175 159.775,1180.325 C159.225,1181.475 159,1182.61667 159.1,1183.75 C159.233333,1185.25 159.666667,1186.46667 160.4,1187.4 C161.133333,1188.33333 161.966667,1189.03333 162.9,1189.5 C163.833333,1189.96667 165.016667,1190.43333 166.45,1190.9 C168.116667,1191.5 169.325,1192.05 170.075,1192.55 C170.825,1193.05 171.2,1193.81667 171.2,1194.85 C171.2,1195.58333 170.9,1196.225 170.3,1196.775 C169.7,1197.325 168.85,1197.6 167.75,1197.6 C166.483333,1197.6 165.541667,1197.33333 164.925,1196.8 C164.308333,1196.26667 164,1195.7 164,1195.1 L164,1195.1 L158.5,1195.65 C158.566667,1196.95 158.958333,1198.13333 159.675,1199.2 C160.391667,1200.26667 161.441667,1201.125 162.825,1201.775 C164.208333,1202.425 165.85,1202.75 167.75,1202.75 Z M192.216667,1202.65 L193.866667,1198.25 C192.7,1198.25 191.8,1198.05833 191.166667,1197.675 C190.533333,1197.29167 190.216667,1196.53333 190.216667,1195.4 L190.216667,1195.4 L190.216667,1182.1 L193.766667,1182.1 L194.966667,1176.95 L190.216667,1176.95 L190.216667,1167 L184.616667,1167 L184.616667,1195.4 C184.616667,1200.13333 187.15,1202.55 192.216667,1202.65 L192.216667,1202.65 Z M208.833333,1202 L208.833333,1185.9 C208.833333,1184.66667 209.266667,1183.675 210.133333,1182.925 C211,1182.175 212.05,1181.8 213.283333,1181.8 C214.183333,1181.8 215.1,1182.03333 216.033333,1182.5 L216.033333,1182.5 L217.333333,1177.15 L216.333333,1176.95 C214.733333,1176.61667 213.516667,1176.45 212.683333,1176.45 C211.483333,1176.45 210.2,1176.68333 208.833333,1177.15 L208.833333,1177.15 L208.433333,1176.95 L203.333333,1176.95 L203.333333,1202 L208.833333,1202 Z M231.75,1202.55 C233.35,1202.55 235.95,1202.36667 239.55,1202 L239.55,1202 L239.55,1187.1 C239.55,1184.9 239.375,1183.1 239.025,1181.7 C238.675,1180.3 237.741667,1179.09167 236.225,1178.075 C234.708333,1177.05833 232.35,1176.55 229.15,1176.55 L229.15,1176.55 L228.7,1180.35 C230.266667,1180.35 231.55,1180.575 232.55,1181.025 C233.55,1181.475 234.05,1182.31667 234.05,1183.55 C233.316667,1183.15 232.35,1182.78333 231.15,1182.45 C229.95,1182.11667 228.733333,1181.95 227.5,1181.95 C226.1,1181.95 224.85,1182.21667 223.75,1182.75 C221.45,1183.88333 220.3,1186.1 220.3,1189.4 L220.3,1189.4 L220.3,1193.55 C220.3,1196.95 221.333333,1199.3 223.4,1200.6 C225.466667,1201.9 228.25,1202.55 231.75,1202.55 Z M231.2,1197.4 C227.633333,1197.4 225.85,1195.88333 225.85,1192.85 L225.85,1192.85 L225.85,1190.1 C225.85,1189.23333 226.1,1188.6 226.6,1188.2 C227.1,1187.8 227.75,1187.6 228.55,1187.6 C229.45,1187.6 230.441667,1187.79167 231.525,1188.175 C232.608333,1188.55833 233.45,1188.96667 234.05,1189.4 L234.05,1189.4 L234.05,1197.15 C233.183333,1197.31667 232.233333,1197.4 231.2,1197.4 Z M273.383333,1202.65 L275.033333,1198.25 C273.866667,1198.25 272.966667,1198.05833 272.333333,1197.675 C271.7,1197.29167 271.383333,1196.53333 271.383333,1195.4 L271.383333,1195.4 L271.383333,1182.1 L274.933333,1182.1 L276.133333,1176.95 L271.383333,1176.95 L271.383333,1167 L265.783333,1167 L265.783333,1195.4 C265.783333,1200.13333 268.316667,1202.55 273.383333,1202.65 L273.383333,1202.65 Z M290,1202 L290,1185.9 C290,1184.66667 290.433333,1183.675 291.3,1182.925 C292.166667,1182.175 293.216667,1181.8 294.45,1181.8 C295.35,1181.8 296.266667,1182.03333 297.2,1182.5 L297.2,1182.5 L298.5,1177.15 L297.5,1176.95 C295.9,1176.61667 294.683333,1176.45 293.85,1176.45 C292.65,1176.45 291.366667,1176.68333 290,1177.15 L290,1177.15 L289.6,1176.95 L284.5,1176.95 L284.5,1202 L290,1202 Z M312.916667,1202.55 C314.516667,1202.55 317.116667,1202.36667 320.716667,1202 L320.716667,1202 L320.716667,1187.1 C320.716667,1184.9 320.541667,1183.1 320.191667,1181.7 C319.841667,1180.3 318.908333,1179.09167 317.391667,1178.075 C315.875,1177.05833 313.516667,1176.55 310.316667,1176.55 L310.316667,1176.55 L309.866667,1180.35 C311.433333,1180.35 312.716667,1180.575 313.716667,1181.025 C314.716667,1181.475 315.216667,1182.31667 315.216667,1183.55 C314.483333,1183.15 313.516667,1182.78333 312.316667,1182.45 C311.116667,1182.11667 309.9,1181.95 308.666667,1181.95 C307.266667,1181.95 306.016667,1182.21667 304.916667,1182.75 C302.616667,1183.88333 301.466667,1186.1 301.466667,1189.4 L301.466667,1189.4 L301.466667,1193.55 C301.466667,1196.95 302.5,1199.3 304.566667,1200.6 C306.633333,1201.9 309.416667,1202.55 312.916667,1202.55 Z M312.366667,1197.4 C308.8,1197.4 307.016667,1195.88333 307.016667,1192.85 L307.016667,1192.85 L307.016667,1190.1 C307.016667,1189.23333 307.266667,1188.6 307.766667,1188.2 C308.266667,1187.8 308.916667,1187.6 309.716667,1187.6 C310.616667,1187.6 311.608333,1187.79167 312.691667,1188.175 C313.775,1188.55833 314.616667,1188.96667 315.216667,1189.4 L315.216667,1189.4 L315.216667,1197.15 C314.35,1197.31667 313.4,1197.4 312.366667,1197.4 Z M337.883333,1202.6 C339.116667,1202.6 340.275,1202.48333 341.358333,1202.25 C342.441667,1202.01667 343.516667,1201.63333 344.583333,1201.1 C345.783333,1200.5 346.733333,1199.61667 347.433333,1198.45 C348.133333,1197.28333 348.483333,1195.85 348.483333,1194.15 L348.483333,1194.15 L348.483333,1184.7 C348.483333,1181.2 347.066667,1178.8 344.233333,1177.5 C342.8,1176.83333 341.233333,1176.5 339.533333,1176.5 C338.333333,1176.5 337,1176.66667 335.533333,1177 L335.533333,1177 L335.533333,1167 L330.033333,1167 L330.033333,1202 L332.783333,1202.25 C334.95,1202.48333 336.65,1202.6 337.883333,1202.6 Z M337.583333,1197.45 C336.783333,1197.45 336.1,1197.36667 335.533333,1197.2 L335.533333,1197.2 L335.533333,1182.9 C335.8,1182.66667 336.233333,1182.46667 336.833333,1182.3 C337.433333,1182.13333 338.066667,1182.05 338.733333,1182.05 C339.933333,1182.05 340.95,1182.375 341.783333,1183.025 C342.616667,1183.675 343.033333,1184.75 343.033333,1186.25 L343.033333,1186.25 L343.033333,1194.25 C343.033333,1195.35 342.475,1196.15833 341.358333,1196.675 C340.241667,1197.19167 338.983333,1197.45 337.583333,1197.45 Z M367.9,1202.55 C369.5,1202.55 372.1,1202.36667 375.7,1202 L375.7,1202 L375.7,1187.1 C375.7,1184.9 375.525,1183.1 375.175,1181.7 C374.825,1180.3 373.891667,1179.09167 372.375,1178.075 C370.858333,1177.05833 368.5,1176.55 365.3,1176.55 L365.3,1176.55 L364.85,1180.35 C366.416667,1180.35 367.7,1180.575 368.7,1181.025 C369.7,1181.475 370.2,1182.31667 370.2,1183.55 C369.466667,1183.15 368.5,1182.78333 367.3,1182.45 C366.1,1182.11667 364.883333,1181.95 363.65,1181.95 C362.25,1181.95 361,1182.21667 359.9,1182.75 C357.6,1183.88333 356.45,1186.1 356.45,1189.4 L356.45,1189.4 L356.45,1193.55 C356.45,1196.95 357.483333,1199.3 359.55,1200.6 C361.616667,1201.9 364.4,1202.55 367.9,1202.55 Z M367.35,1197.4 C363.783333,1197.4 362,1195.88333 362,1192.85 L362,1192.85 L362,1190.1 C362,1189.23333 362.25,1188.6 362.75,1188.2 C363.25,1187.8 363.9,1187.6 364.7,1187.6 C365.6,1187.6 366.591667,1187.79167 367.675,1188.175 C368.758333,1188.55833 369.6,1188.96667 370.2,1189.4 L370.2,1189.4 L370.2,1197.15 C369.333333,1197.31667 368.383333,1197.4 367.35,1197.4 Z M388.116667,1172.4 C388.916667,1172.4 389.6,1172.1 390.166667,1171.5 C390.733333,1170.9 391.016667,1170.2 391.016667,1169.4 C391.016667,1168.6 390.733333,1167.91667 390.166667,1167.35 C389.6,1166.78333 388.916667,1166.5 388.116667,1166.5 C387.316667,1166.5 386.616667,1166.78333 386.016667,1167.35 C385.416667,1167.91667 385.116667,1168.6 385.116667,1169.4 C385.116667,1170.2 385.416667,1170.9 386.016667,1171.5 C386.616667,1172.1 387.316667,1172.4 388.116667,1172.4 Z M383.216667,1212.45 C384.416667,1212.45 385.591667,1212.15 386.741667,1211.55 C387.891667,1210.95 388.841667,1210.14167 389.591667,1209.125 C390.341667,1208.10833 390.733333,1206.98333 390.766667,1205.75 L390.766667,1205.75 L390.766667,1176.95 L381.616667,1176.95 L382.716667,1181.55 L385.266667,1182.05 L385.266667,1203.75 C385.266667,1204.98333 385,1205.93333 384.466667,1206.6 C383.933333,1207.26667 383.341667,1207.71667 382.691667,1207.95 C382.041667,1208.18333 381.716667,1208.26667 381.716667,1208.2 L381.716667,1208.2 L383.216667,1212.45 Z M410.933333,1202.5 C414.033333,1202.5 416.35,1201.58333 417.883333,1199.75 C419.416667,1197.91667 420.183333,1195.6 420.183333,1192.8 L420.183333,1192.8 L420.183333,1186.2 C420.183333,1183.16667 419.366667,1180.775 417.733333,1179.025 C416.1,1177.275 413.833333,1176.4 410.933333,1176.4 C407.9,1176.4 405.575,1177.24167 403.958333,1178.925 C402.341667,1180.60833 401.533333,1183.03333 401.533333,1186.2 L401.533333,1186.2 L401.533333,1192.8 C401.533333,1195.56667 402.325,1197.875 403.908333,1199.725 C405.491667,1201.575 407.833333,1202.5 410.933333,1202.5 Z M410.933333,1197.1 C409.8,1197.1 408.866667,1196.8 408.133333,1196.2 C407.4,1195.6 407.033333,1194.63333 407.033333,1193.3 L407.033333,1193.3 L407.033333,1186.2 C407.033333,1183.36667 408.333333,1181.95 410.933333,1181.95 C412,1181.95 412.9,1182.21667 413.633333,1182.75 C414.366667,1183.28333 414.733333,1184.43333 414.733333,1186.2 L414.733333,1186.2 L414.733333,1193.3 C414.733333,1194.56667 414.375,1195.51667 413.658333,1196.15 C412.941667,1196.78333 412.033333,1197.1 410.933333,1197.1 Z M437.35,1202.75 C439.416667,1202.75 441.141667,1202.38333 442.525,1201.65 C443.908333,1200.91667 444.933333,1199.95833 445.6,1198.775 C446.266667,1197.59167 446.6,1196.31667 446.6,1194.95 C446.6,1193.15 446.191667,1191.675 445.375,1190.525 C444.558333,1189.375 443.591667,1188.50833 442.475,1187.925 C441.358333,1187.34167 439.983333,1186.75 438.35,1186.15 C437.183333,1185.71667 436.3,1185.34167 435.7,1185.025 C435.1,1184.70833 434.75,1184.31667 434.65,1183.85 C434.583333,1183.65 434.55,1183.45 434.55,1183.25 C434.55,1182.25 435.45,1181.75 437.25,1181.75 C438.083333,1181.75 438.8,1181.83333 439.4,1182 C440,1182.16667 440.441667,1182.34167 440.725,1182.525 C441.008333,1182.70833 441.183333,1182.83333 441.25,1182.9 L441.25,1182.9 L442.85,1177.8 C442.75,1177.73333 442.466667,1177.58333 442,1177.35 C441.533333,1177.11667 440.891667,1176.89167 440.075,1176.675 C439.258333,1176.45833 438.316667,1176.35 437.25,1176.35 C435.183333,1176.35 433.491667,1176.725 432.175,1177.475 C430.858333,1178.225 429.925,1179.175 429.375,1180.325 C428.825,1181.475 428.6,1182.61667 428.7,1183.75 C428.833333,1185.25 429.266667,1186.46667 430,1187.4 C430.733333,1188.33333 431.566667,1189.03333 432.5,1189.5 C433.433333,1189.96667 434.616667,1190.43333 436.05,1190.9 C437.716667,1191.5 438.925,1192.05 439.675,1192.55 C440.425,1193.05 440.8,1193.81667 440.8,1194.85 C440.8,1195.58333 440.5,1196.225 439.9,1196.775 C439.3,1197.325 438.45,1197.6 437.35,1197.6 C436.083333,1197.6 435.141667,1197.33333 434.525,1196.8 C433.908333,1196.26667 433.6,1195.7 433.6,1195.1 L433.6,1195.1 L428.1,1195.65 C428.166667,1196.95 428.558333,1198.13333 429.275,1199.2 C429.991667,1200.26667 431.041667,1201.125 432.425,1201.775 C433.808333,1202.425 435.45,1202.75 437.35,1202.75 Z M483.383333,1202.55 C484.983333,1202.55 487.583333,1202.36667 491.183333,1202 L491.183333,1202 L491.183333,1187.1 C491.183333,1184.9 491.008333,1183.1 490.658333,1181.7 C490.308333,1180.3 489.375,1179.09167 487.858333,1178.075 C486.341667,1177.05833 483.983333,1176.55 480.783333,1176.55 L480.783333,1176.55 L480.333333,1180.35 C481.9,1180.35 483.183333,1180.575 484.183333,1181.025 C485.183333,1181.475 485.683333,1182.31667 485.683333,1183.55 C484.95,1183.15 483.983333,1182.78333 482.783333,1182.45 C481.583333,1182.11667 480.366667,1181.95 479.133333,1181.95 C477.733333,1181.95 476.483333,1182.21667 475.383333,1182.75 C473.083333,1183.88333 471.933333,1186.1 471.933333,1189.4 L471.933333,1189.4 L471.933333,1193.55 C471.933333,1196.95 472.966667,1199.3 475.033333,1200.6 C477.1,1201.9 479.883333,1202.55 483.383333,1202.55 Z M482.833333,1197.4 C479.266667,1197.4 477.483333,1195.88333 477.483333,1192.85 L477.483333,1192.85 L477.483333,1190.1 C477.483333,1189.23333 477.733333,1188.6 478.233333,1188.2 C478.733333,1187.8 479.383333,1187.6 480.183333,1187.6 C481.083333,1187.6 482.075,1187.79167 483.158333,1188.175 C484.241667,1188.55833 485.083333,1188.96667 485.683333,1189.4 L485.683333,1189.4 L485.683333,1197.15 C484.816667,1197.31667 483.866667,1197.4 482.833333,1197.4 Z M530.866667,1175.1 L533.316667,1171.95 C533.816667,1171.31667 534.066667,1170.68333 534.066667,1170.05 C534.066667,1169.21667 533.666667,1168.6 532.866667,1168.2 C532.666667,1168.1 532.4,1168.05 532.066667,1168.05 C531.566667,1168.05 531.075,1168.18333 530.591667,1168.45 C530.108333,1168.71667 529.75,1169.13333 529.516667,1169.7 L529.516667,1169.7 L527.216667,1175.1 L530.866667,1175.1 Z M527.166667,1202.6 C528.7,1202.6 530.233333,1202.4 531.766667,1202 C533.3,1201.6 534.666667,1201.01667 535.866667,1200.25 L535.866667,1200.25 L533.866667,1195.5 C531.3,1196.83333 529.25,1197.5 527.716667,1197.5 C526.716667,1197.5 525.958333,1197.24167 525.441667,1196.725 C524.925,1196.20833 524.666667,1195.48333 524.666667,1194.55 L524.666667,1194.55 L524.666667,1193.15 L537.116667,1192.5 L537.116667,1184.9 C537.116667,1182.26667 536.341667,1180.20833 534.791667,1178.725 C533.241667,1177.24167 531.083333,1176.5 528.316667,1176.5 C525.55,1176.5 523.325,1177.25 521.641667,1178.75 C519.958333,1180.25 519.116667,1182.35 519.116667,1185.05 L519.116667,1185.05 L519.116667,1195.3 C519.116667,1197.73333 519.841667,1199.55833 521.291667,1200.775 C522.741667,1201.99167 524.7,1202.6 527.166667,1202.6 Z M524.666667,1188.1 L524.666667,1185.1 C524.666667,1184.3 524.95,1183.56667 525.516667,1182.9 C526.083333,1182.23333 527,1181.9 528.266667,1181.9 C529.2,1181.9 529.983333,1182.16667 530.616667,1182.7 C531.25,1183.23333 531.566667,1184 531.566667,1185 L531.566667,1185 L531.566667,1187.65 L524.666667,1188.1 Z M554.283333,1202.75 C556.35,1202.75 558.075,1202.38333 559.458333,1201.65 C560.841667,1200.91667 561.866667,1199.95833 562.533333,1198.775 C563.2,1197.59167 563.533333,1196.31667 563.533333,1194.95 C563.533333,1193.15 563.125,1191.675 562.308333,1190.525 C561.491667,1189.375 560.525,1188.50833 559.408333,1187.925 C558.291667,1187.34167 556.916667,1186.75 555.283333,1186.15 C554.116667,1185.71667 553.233333,1185.34167 552.633333,1185.025 C552.033333,1184.70833 551.683333,1184.31667 551.583333,1183.85 C551.516667,1183.65 551.483333,1183.45 551.483333,1183.25 C551.483333,1182.25 552.383333,1181.75 554.183333,1181.75 C555.016667,1181.75 555.733333,1181.83333 556.333333,1182 C556.933333,1182.16667 557.375,1182.34167 557.658333,1182.525 C557.941667,1182.70833 558.116667,1182.83333 558.183333,1182.9 L558.183333,1182.9 L559.783333,1177.8 C559.683333,1177.73333 559.4,1177.58333 558.933333,1177.35 C558.466667,1177.11667 557.825,1176.89167 557.008333,1176.675 C556.191667,1176.45833 555.25,1176.35 554.183333,1176.35 C552.116667,1176.35 550.425,1176.725 549.108333,1177.475 C547.791667,1178.225 546.858333,1179.175 546.308333,1180.325 C545.758333,1181.475 545.533333,1182.61667 545.633333,1183.75 C545.766667,1185.25 546.2,1186.46667 546.933333,1187.4 C547.666667,1188.33333 548.5,1189.03333 549.433333,1189.5 C550.366667,1189.96667 551.55,1190.43333 552.983333,1190.9 C554.65,1191.5 555.858333,1192.05 556.608333,1192.55 C557.358333,1193.05 557.733333,1193.81667 557.733333,1194.85 C557.733333,1195.58333 557.433333,1196.225 556.833333,1196.775 C556.233333,1197.325 555.383333,1197.6 554.283333,1197.6 C553.016667,1197.6 552.075,1197.33333 551.458333,1196.8 C550.841667,1196.26667 550.533333,1195.7 550.533333,1195.1 L550.533333,1195.1 L545.033333,1195.65 C545.1,1196.95 545.491667,1198.13333 546.208333,1199.2 C546.925,1200.26667 547.975,1201.125 549.358333,1201.775 C550.741667,1202.425 552.383333,1202.75 554.283333,1202.75 Z M578.75,1202.65 L580.4,1198.25 C579.233333,1198.25 578.333333,1198.05833 577.7,1197.675 C577.066667,1197.29167 576.75,1196.53333 576.75,1195.4 L576.75,1195.4 L576.75,1182.1 L580.3,1182.1 L581.5,1176.95 L576.75,1176.95 L576.75,1167 L571.15,1167 L571.15,1195.4 C571.15,1200.13333 573.683333,1202.55 578.75,1202.65 L578.75,1202.65 Z M600.116667,1202.55 C601.716667,1202.55 604.316667,1202.36667 607.916667,1202 L607.916667,1202 L607.916667,1187.1 C607.916667,1184.9 607.741667,1183.1 607.391667,1181.7 C607.041667,1180.3 606.108333,1179.09167 604.591667,1178.075 C603.075,1177.05833 600.716667,1176.55 597.516667,1176.55 L597.516667,1176.55 L597.066667,1180.35 C598.633333,1180.35 599.916667,1180.575 600.916667,1181.025 C601.916667,1181.475 602.416667,1182.31667 602.416667,1183.55 C601.683333,1183.15 600.716667,1182.78333 599.516667,1182.45 C598.316667,1182.11667 597.1,1181.95 595.866667,1181.95 C594.466667,1181.95 593.216667,1182.21667 592.116667,1182.75 C589.816667,1183.88333 588.666667,1186.1 588.666667,1189.4 L588.666667,1189.4 L588.666667,1193.55 C588.666667,1196.95 589.7,1199.3 591.766667,1200.6 C593.833333,1201.9 596.616667,1202.55 600.116667,1202.55 Z M599.566667,1197.4 C596,1197.4 594.216667,1195.88333 594.216667,1192.85 L594.216667,1192.85 L594.216667,1190.1 C594.216667,1189.23333 594.466667,1188.6 594.966667,1188.2 C595.466667,1187.8 596.116667,1187.6 596.916667,1187.6 C597.816667,1187.6 598.808333,1187.79167 599.891667,1188.175 C600.975,1188.55833 601.816667,1188.96667 602.416667,1189.4 L602.416667,1189.4 L602.416667,1197.15 C601.55,1197.31667 600.6,1197.4 599.566667,1197.4 Z M648.5,1175.1 L650.95,1171.95 C651.45,1171.31667 651.7,1170.68333 651.7,1170.05 C651.7,1169.21667 651.3,1168.6 650.5,1168.2 C650.3,1168.1 650.033333,1168.05 649.7,1168.05 C649.2,1168.05 648.708333,1168.18333 648.225,1168.45 C647.741667,1168.71667 647.383333,1169.13333 647.15,1169.7 L647.15,1169.7 L644.85,1175.1 L648.5,1175.1 Z M647.3,1202.55 C648.9,1202.55 651.5,1202.36667 655.1,1202 L655.1,1202 L655.1,1187.1 C655.1,1184.9 654.925,1183.1 654.575,1181.7 C654.225,1180.3 653.291667,1179.09167 651.775,1178.075 C650.258333,1177.05833 647.9,1176.55 644.7,1176.55 L644.7,1176.55 L644.25,1180.35 C645.816667,1180.35 647.1,1180.575 648.1,1181.025 C649.1,1181.475 649.6,1182.31667 649.6,1183.55 C648.866667,1183.15 647.9,1182.78333 646.7,1182.45 C645.5,1182.11667 644.283333,1181.95 643.05,1181.95 C641.65,1181.95 640.4,1182.21667 639.3,1182.75 C637,1183.88333 635.85,1186.1 635.85,1189.4 L635.85,1189.4 L635.85,1193.55 C635.85,1196.95 636.883333,1199.3 638.95,1200.6 C641.016667,1201.9 643.8,1202.55 647.3,1202.55 Z M646.75,1197.4 C643.183333,1197.4 641.4,1195.88333 641.4,1192.85 L641.4,1192.85 L641.4,1190.1 C641.4,1189.23333 641.65,1188.6 642.15,1188.2 C642.65,1187.8 643.3,1187.6 644.1,1187.6 C645,1187.6 645.991667,1187.79167 647.075,1188.175 C648.158333,1188.55833 649,1188.96667 649.6,1189.4 L649.6,1189.4 L649.6,1197.15 C648.733333,1197.31667 647.783333,1197.4 646.75,1197.4 Z M669.766667,1202 L669.766667,1185.9 C669.766667,1184.66667 670.2,1183.675 671.066667,1182.925 C671.933333,1182.175 672.983333,1181.8 674.216667,1181.8 C675.116667,1181.8 676.033333,1182.03333 676.966667,1182.5 L676.966667,1182.5 L678.266667,1177.15 L677.266667,1176.95 C675.666667,1176.61667 674.45,1176.45 673.616667,1176.45 C672.416667,1176.45 671.133333,1176.68333 669.766667,1177.15 L669.766667,1177.15 L669.366667,1176.95 L664.266667,1176.95 L664.266667,1202 L669.766667,1202 Z M691.783333,1202.6 C693.316667,1202.6 694.85,1202.4 696.383333,1202 C697.916667,1201.6 699.283333,1201.01667 700.483333,1200.25 L700.483333,1200.25 L698.483333,1195.5 C695.916667,1196.83333 693.866667,1197.5 692.333333,1197.5 C691.333333,1197.5 690.575,1197.24167 690.058333,1196.725 C689.541667,1196.20833 689.283333,1195.48333 689.283333,1194.55 L689.283333,1194.55 L689.283333,1193.15 L701.733333,1192.5 L701.733333,1184.9 C701.733333,1182.26667 700.958333,1180.20833 699.408333,1178.725 C697.858333,1177.24167 695.7,1176.5 692.933333,1176.5 C690.166667,1176.5 687.941667,1177.25 686.258333,1178.75 C684.575,1180.25 683.733333,1182.35 683.733333,1185.05 L683.733333,1185.05 L683.733333,1195.3 C683.733333,1197.73333 684.458333,1199.55833 685.908333,1200.775 C687.358333,1201.99167 689.316667,1202.6 691.783333,1202.6 Z M689.283333,1188.1 L689.283333,1185.1 C689.283333,1184.3 689.566667,1183.56667 690.133333,1182.9 C690.7,1182.23333 691.616667,1181.9 692.883333,1181.9 C693.816667,1181.9 694.6,1182.16667 695.233333,1182.7 C695.866667,1183.23333 696.183333,1184 696.183333,1185 L696.183333,1185 L696.183333,1187.65 L689.283333,1188.1 Z M721.15,1202.55 C722.75,1202.55 725.35,1202.36667 728.95,1202 L728.95,1202 L728.95,1187.1 C728.95,1184.9 728.775,1183.1 728.425,1181.7 C728.075,1180.3 727.141667,1179.09167 725.625,1178.075 C724.108333,1177.05833 721.75,1176.55 718.55,1176.55 L718.55,1176.55 L718.1,1180.35 C719.666667,1180.35 720.95,1180.575 721.95,1181.025 C722.95,1181.475 723.45,1182.31667 723.45,1183.55 C722.716667,1183.15 721.75,1182.78333 720.55,1182.45 C719.35,1182.11667 718.133333,1181.95 716.9,1181.95 C715.5,1181.95 714.25,1182.21667 713.15,1182.75 C710.85,1183.88333 709.7,1186.1 709.7,1189.4 L709.7,1189.4 L709.7,1193.55 C709.7,1196.95 710.733333,1199.3 712.8,1200.6 C714.866667,1201.9 717.65,1202.55 721.15,1202.55 Z M720.6,1197.4 C717.033333,1197.4 715.25,1195.88333 715.25,1192.85 L715.25,1192.85 L715.25,1190.1 C715.25,1189.23333 715.5,1188.6 716,1188.2 C716.5,1187.8 717.15,1187.6 717.95,1187.6 C718.85,1187.6 719.841667,1187.79167 720.925,1188.175 C722.008333,1188.55833 722.85,1188.96667 723.45,1189.4 L723.45,1189.4 L723.45,1197.15 C722.583333,1197.31667 721.633333,1197.4 720.6,1197.4 Z" id="Arrastratrabajosaéstaárea"></path>
        </g>
    </g>
</svg>